<svg width="20" height="20" viewBox="0 0 20 20" fill="none" xmlns="http://www.w3.org/2000/svg">
<path d="M11.7969 20.0012C10.5045 20.0012 9.45312 18.9498 9.45312 17.6575V4.68872H8.20312C6.91078 4.68872 5.85938 3.63731 5.85938 2.34497C5.85938 1.05263 6.91078 0.0012207 8.20312 0.0012207H11.7969C13.0892 0.0012207 14.1406 1.05263 14.1406 2.34497V17.6575C14.1406 18.9498 13.0892 20.0012 11.7969 20.0012ZM8.20312 1.1731C7.55695 1.1731 7.03125 1.6988 7.03125 2.34497C7.03125 2.99114 7.55695 3.51685 8.20312 3.51685H10.0391C10.3627 3.51685 10.625 3.77919 10.625 4.10278V17.6575C10.625 18.3036 11.1507 18.8293 11.7969 18.8293C12.443 18.8293 12.9688 18.3036 12.9688 17.6575V2.34497C12.9688 1.6988 12.443 1.1731 11.7969 1.1731H8.20312Z" fill="#181C30"/>
</svg>
