<svg viewBox="0 0 20 20" xmlns="http://www.w3.org/2000/svg">
<path d="M8.97126 20.0012C6.10563 20.0012 5.93935 19.9457 5.64591 19.8479C5.06474 19.6542 4.63028 19.2143 4.45392 18.6409C4.17958 17.749 4.66825 17.0374 4.85224 16.7695C5.01415 16.5338 5.24899 16.2263 5.60442 15.7608C6.42579 14.6854 7.95458 12.6836 10.5164 9.02337C11.3548 7.76915 11.8674 6.89927 11.9956 5.79931C11.9447 4.532 10.8978 3.51673 9.61825 3.51673C8.4836 3.51673 7.50181 4.32259 7.28372 5.4329C7.09661 6.38548 6.17259 7.00595 5.22009 6.81892C4.26751 6.63181 3.64696 5.70786 3.83407 4.75528C4.3752 2.0006 6.80778 0.0012207 9.61829 0.0012207C12.8687 0.0012207 15.5131 2.6456 15.5131 5.89599C15.3862 7.75899 14.6523 9.1711 13.3966 11.0392C11.6474 13.5385 10.3702 15.2793 9.46665 16.485C10.9291 16.483 12.7267 16.4693 14.4185 16.4481C14.426 16.448 14.4336 16.4479 14.4411 16.4479C15.4016 16.4479 16.1861 17.2204 16.1982 18.1836C16.2104 19.1543 15.4334 19.9512 14.4627 19.9633C14.4429 19.9636 12.466 19.9883 10.4689 19.9974C9.9013 19.9999 9.40524 20.0012 8.97126 20.0012Z" fill="inherit"/>
</svg>
