<svg viewBox="0 0 20 20" xmlns="http://www.w3.org/2000/svg">
<path d="M9.07115 20.0012C6.26704 20.0012 6.09888 19.9452 5.73052 19.8224C4.97017 19.569 4.40087 18.9906 4.16868 18.2358C3.81286 17.0789 4.42958 16.181 4.6322 15.886C4.79302 15.6519 5.0154 15.3608 5.35197 14.92C6.11212 13.9247 7.52646 12.0728 9.89739 8.68528C10.444 7.90431 10.8254 7.19892 11.0309 6.58876C11.0775 6.4504 11.1111 6.30255 11.1307 6.14935C11.1395 6.08036 11.1372 6.03173 11.1337 6.0031C11.0431 5.25372 10.4033 4.68868 9.64552 4.68868C8.9304 4.68868 8.31173 5.19587 8.1745 5.89474C7.95911 6.99114 6.99275 7.78696 5.87665 7.78708C5.72525 7.78708 5.57263 7.77216 5.42302 7.74278C4.80868 7.62212 4.27814 7.26946 3.92911 6.74978C3.58001 6.23009 3.45427 5.6056 3.57493 4.99126C4.14279 2.09985 6.69587 0.0012207 9.64552 0.0012207C12.7718 0.0012207 15.4122 2.33938 15.7873 5.44001C15.8388 5.86552 15.8365 6.30403 15.7803 6.74341C15.7216 7.2029 15.6183 7.65427 15.4732 8.08501C15.1248 9.11927 14.5409 10.2255 13.7377 11.3731C12.7262 12.8183 11.7981 14.1151 10.9212 15.3081C11.9307 15.3024 13.0232 15.2925 14.0953 15.279C14.7198 15.2716 15.3123 15.5071 15.7609 15.9443C16.2093 16.3816 16.4607 16.9671 16.4686 17.5931C16.4765 18.219 16.2401 18.8106 15.803 19.2588C15.3659 19.707 14.7805 19.9582 14.1545 19.9661C14.0788 19.967 12.2789 19.9893 10.4389 19.9977C9.93048 20 9.47029 20.0012 9.07115 20.0012ZM9.64552 3.51677C10.9954 3.51677 12.1354 4.52513 12.2971 5.86239C12.3138 5.99997 12.3124 6.14645 12.2931 6.29778C12.2637 6.52759 12.2127 6.75126 12.1415 6.96274C11.9002 7.67899 11.4682 8.48458 10.8575 9.3572C8.47255 12.7647 7.04861 14.6292 6.28361 15.6308C5.95747 16.0578 5.74224 16.3397 5.59814 16.5494C5.35154 16.9085 5.12189 17.3487 5.28872 17.8913C5.40825 18.2797 5.70435 18.5784 6.10111 18.7106C6.30009 18.777 6.45716 18.8293 9.07111 18.8293C9.46845 18.8293 9.92685 18.8282 10.4336 18.8258C12.269 18.8175 14.0643 18.7952 14.1398 18.7943C14.4528 18.7903 14.7455 18.6648 14.964 18.4406C15.1826 18.2165 15.3008 17.9207 15.2968 17.6078C15.2929 17.2949 15.1672 17.0021 14.9429 16.7834C14.7186 16.5648 14.4249 16.4468 14.1107 16.4508C14.1106 16.4508 14.1108 16.4508 14.1107 16.4508C12.6045 16.4697 11.0578 16.4817 9.75579 16.4846C9.75536 16.4846 9.75493 16.4846 9.7545 16.4846C9.53302 16.4846 9.33048 16.3598 9.23099 16.1618C9.1313 15.9635 9.15224 15.7259 9.28505 15.5481C10.3585 14.1106 11.501 12.5252 12.7777 10.7011C13.5167 9.64516 14.05 8.63911 14.3627 7.71087C14.4831 7.35333 14.569 6.97778 14.6179 6.59485C14.6618 6.25145 14.6638 5.91032 14.6239 5.58079C14.3199 3.06798 12.1797 1.1731 9.64552 1.1731C7.2545 1.1731 5.18505 2.87388 4.72478 5.21712C4.66447 5.52427 4.72732 5.83649 4.90185 6.09634C5.07642 6.35618 5.34169 6.53251 5.6488 6.59286C5.72423 6.60767 5.80087 6.61517 5.87657 6.61517C6.43404 6.61513 6.91689 6.21716 7.02458 5.6688C7.2695 4.42185 8.37177 3.51677 9.64552 3.51677Z" fill="inherit"/>
</svg>
