<svg viewBox="0 0 20 20" xmlns="http://www.w3.org/2000/svg">
<path d="M15.84 5.88013C15.84 2.63849 13.2027 0.0012207 9.96106 0.0012207C7.15809 0.0012207 4.73208 1.99524 4.19247 4.74255C4.00536 5.69521 4.62595 6.61907 5.57852 6.80618C6.53118 6.99321 7.45509 6.3727 7.64216 5.42013C7.8588 4.31728 8.83399 3.51685 9.96106 3.51685C11.2641 3.51685 12.3243 4.57704 12.3243 5.88013C12.3243 7.18321 11.2641 8.24341 9.96106 8.24341C8.99024 8.24341 8.20325 9.0304 8.20325 10.0012C8.20325 10.972 8.99024 11.759 9.96106 11.759C11.2641 11.759 12.3243 12.8192 12.3243 14.1223C12.3243 15.4254 11.2641 16.4856 9.96106 16.4856C8.83399 16.4856 7.8588 15.6852 7.6422 14.5823C7.45509 13.6297 6.53122 13.009 5.57856 13.1963C4.62595 13.3834 4.0054 14.3072 4.19251 15.2599C4.73208 18.0072 7.15809 20.0012 9.96106 20.0012C13.2027 20.0012 15.84 17.364 15.84 14.1223C15.84 12.5185 15.1942 11.0629 14.1493 10.0012C15.1942 8.9395 15.84 7.48392 15.84 5.88013Z" fill="inherit"/>
</svg>
