<svg viewBox="0 0 20 20" xmlns="http://www.w3.org/2000/svg">
<path d="M9.964 20.0012C7.02142 20.0012 4.47447 17.9076 3.90794 15.0231C3.78728 14.4088 3.91306 13.7843 4.26212 13.2645C4.61118 12.7449 5.14173 12.3922 5.75603 12.2715C7.02419 12.0226 8.25853 12.8517 8.50751 14.1197C8.64341 14.8115 9.25595 15.3137 9.96396 15.3137C10.7824 15.3137 11.4483 14.6478 11.4483 13.8293C11.4483 13.0109 10.7824 12.345 9.96396 12.345C8.67161 12.345 7.62021 11.2936 7.62021 10.0012C7.62021 8.70888 8.67161 7.65747 9.96396 7.65747C10.7824 7.65747 11.4483 6.99157 11.4483 6.1731C11.4483 5.35462 10.7824 4.68872 9.96396 4.68872C9.25595 4.68872 8.64341 5.19091 8.50751 5.88282C8.28833 6.99888 7.30552 7.77493 6.20837 7.77505C6.05911 7.77505 5.90798 7.76071 5.75611 7.73087C5.14169 7.6102 4.61115 7.25755 4.26212 6.73786C3.91302 6.21813 3.78728 5.59364 3.90794 4.97935C4.47447 2.09485 7.02142 0.0012207 9.964 0.0012207C13.3672 0.0012207 16.1359 2.76993 16.1359 6.1731C16.1359 7.57267 15.6657 8.91317 14.8022 10.0012C15.6657 11.0893 16.1359 12.4298 16.1359 13.8293C16.1359 17.2325 13.3672 20.0012 9.964 20.0012ZM6.20802 13.3994C6.13337 13.3994 6.05775 13.4066 5.98181 13.4214C5.34786 13.5459 4.93329 14.1631 5.05786 14.7972C5.51673 17.1336 7.58005 18.8293 9.964 18.8293C12.721 18.8293 14.964 16.5863 14.964 13.8293C14.964 12.5521 14.4801 11.3352 13.6016 10.4031C13.3889 10.1774 13.3889 9.82501 13.6016 9.59935C14.4801 8.6672 14.964 7.45036 14.964 6.1731C14.964 3.4161 12.721 1.1731 9.964 1.1731C7.58005 1.1731 5.51669 2.86884 5.05782 5.20524C4.93329 5.83931 5.34782 6.45645 5.98185 6.58103C6.61583 6.70517 7.2331 6.29099 7.35763 5.657C7.60122 4.41688 8.69736 3.51685 9.964 3.51685C11.4286 3.51685 12.6202 4.70845 12.6202 6.1731C12.6202 7.63774 11.4286 8.82935 9.964 8.82935C9.31782 8.82935 8.79212 9.35505 8.79212 10.0012C8.79212 10.6474 9.31782 11.1731 9.964 11.1731C11.4286 11.1731 12.6202 12.3647 12.6202 13.8293C12.6202 15.294 11.4286 16.4856 9.964 16.4856C8.69736 16.4856 7.60122 15.5856 7.35763 14.3455C7.24806 13.7874 6.75665 13.3994 6.20802 13.3994Z" fill="inherit"/>
</svg>
