<svg viewBox="0 0 20 20" xmlns="http://www.w3.org/2000/svg">
<path d="M15.3125 11.6209H14.6875V2.75613C14.5814 1.48253 13.8189 0.444643 12.745 0.112026C11.6807 -0.217505 10.5463 0.198081 9.71014 1.22398C8.77803 2.36757 4.45205 10.1666 3.14838 12.5296C2.80448 13.153 2.86694 13.9312 3.33037 14.4962C3.66862 14.9085 4.18241 15.1366 4.71576 15.1366H11.1719V18.2434C11.1719 19.2142 11.9589 20.0012 12.9297 20.0012C13.9005 20.0012 14.6875 19.2142 14.6875 18.2434V15.1365H15.3125C16.2833 15.1365 17.0703 14.3495 17.0703 13.3787C17.0703 12.4079 16.2833 11.6209 15.3125 11.6209ZM11.1719 11.6209H7.67416L11.1719 5.48308V11.6209Z" fill="inherit"/>
</svg>
