<svg viewBox="0 0 20 20" xmlns="http://www.w3.org/2000/svg">
<path d="M12.5454 20.0012L12.5212 20.0011C11.8988 19.9957 11.3123 19.747 10.8735 19.3005C10.4346 18.8541 10.1959 18.2635 10.2013 17.6375C10.2071 16.9678 10.213 16.2409 10.2188 15.4825H4.92142C4.09611 15.4825 3.32275 15.041 2.90318 14.3304C2.48357 13.6198 2.47056 12.7295 2.86927 12.007C2.92232 11.9109 4.18138 9.63035 5.53201 7.24289C8.38536 2.19886 8.82482 1.6598 9.03603 1.4007C10.0025 0.215036 11.341 -0.256957 12.6165 0.138083C13.8924 0.533122 14.7962 1.74047 14.9191 3.21379C14.9766 3.90449 14.9592 7.21367 14.9383 10.7955H15.0777C16.3701 10.7955 17.4215 11.8468 17.4215 13.139C17.4215 14.4312 16.3701 15.4825 15.0777 15.4825H14.9067C14.8998 16.3725 14.8934 17.1331 14.8887 17.678C14.8776 18.9589 13.8264 20.0011 12.5454 20.0012ZM11.7355 1.17629C11.0966 1.17629 10.4547 1.51488 9.94431 2.14101C9.78353 2.33828 9.35642 2.86222 6.55197 7.81976C5.20435 10.2019 3.94814 12.4773 3.89533 12.573C3.69595 12.9343 3.70247 13.3794 3.91228 13.7346C4.12208 14.09 4.50876 14.3107 4.92138 14.3107H10.8091C10.9653 14.3107 11.115 14.373 11.225 14.4838C11.335 14.5946 11.3962 14.7448 11.3951 14.9009C11.3879 15.873 11.3804 16.8055 11.3732 17.6477C11.3705 17.9606 11.4898 18.2559 11.7092 18.4791C11.9287 18.7023 12.2219 18.8267 12.5349 18.8294L12.5453 18.8295C13.1858 18.8294 13.7113 18.3083 13.7168 17.6679C13.7226 17.008 13.7307 16.0315 13.7392 14.8922C13.7417 14.5703 14.0033 14.3107 14.3252 14.3107H15.0777C15.7239 14.3107 16.2496 13.7851 16.2496 13.139C16.2496 12.493 15.7239 11.9673 15.0777 11.9673H14.3489C14.1929 11.9673 14.0434 11.9051 13.9334 11.7945C13.8234 11.6839 13.7621 11.534 13.763 11.378L13.7643 11.1539C13.785 7.62367 13.8064 3.97328 13.7513 3.31117C13.6683 2.31656 13.0868 1.51043 12.2698 1.25746C12.0939 1.20297 11.9148 1.17629 11.7355 1.17629ZM10.8322 11.9673H7.90868C7.70079 11.9673 7.50841 11.8571 7.40325 11.6778C7.2981 11.4985 7.29583 11.2769 7.39732 11.0954C8.52478 9.07984 9.57193 7.23972 10.3459 5.91402C10.4794 5.68543 10.7495 5.5748 11.0051 5.6439C11.2607 5.71312 11.4381 5.94507 11.4379 6.2098C11.437 7.52625 11.4304 9.26738 11.4182 11.3848C11.4163 11.7071 11.1545 11.9673 10.8322 11.9673ZM8.90892 10.7955H10.2496C10.2543 9.93015 10.258 9.13324 10.2607 8.40793C9.84115 9.14277 9.38536 9.94773 8.90892 10.7955Z" fill="inherit"/>
</svg>
