<svg width="24" height="24" viewBox="0 0 24 24" fill="none" xmlns="http://www.w3.org/2000/svg">
<path d="M24 12.0002C24 10.4956 23.1015 9.19687 21.813 8.61233C23.6393 6.37707 21.5463 2.91621 18.7751 3.00753H18.6574C18.0648 -0.164881 13.859 -1.09153 11.9931 1.53701C10.126 -1.09284 5.92057 -0.163146 5.32871 3.00753H5.21104C2.43964 2.91602 0.347005 6.37773 2.17314 8.61233C-0.725224 9.91147 -0.723535 14.0901 2.17314 15.3881C0.346818 17.6234 2.43982 21.0842 5.21104 20.9929H5.32871C5.92137 24.1653 10.1272 25.092 11.9931 22.4634C13.8602 25.0933 18.0656 24.1636 18.6574 20.9929H18.7751C21.5465 21.0844 23.6392 17.6227 21.813 15.3881C23.1015 14.8036 24 13.5048 24 12.0002ZM20.2822 14.3109H19.5287C18.5963 14.3457 18.5968 15.6836 19.5287 15.718C20.3872 15.718 21.0858 16.4166 21.0858 17.2752C21.0858 18.5493 20.0492 19.5859 18.7751 19.5859H18.6096C18.315 18.7109 17.4874 18.0788 16.5144 18.0788C16.1259 18.0788 15.8109 18.3938 15.8109 18.7823C15.8109 19.1708 16.1259 19.4858 16.5144 19.4858C16.9575 19.4858 17.318 19.8463 17.318 20.2894C17.2022 23.3502 12.8123 23.3502 12.6966 20.2894V17.2752C12.662 16.3427 11.3238 16.3434 11.2895 17.2752V20.2894C11.1731 23.3507 6.7839 23.3499 6.6681 20.2894C6.6681 19.8463 7.02859 19.4858 7.47167 19.4858C7.86021 19.4858 8.1752 19.1708 8.1752 18.7823C8.1752 18.3937 7.86021 18.0787 7.47167 18.0787C6.49869 18.0787 5.67105 18.7109 5.37646 19.5858H5.21099C3.93685 19.5858 2.90026 18.5492 2.90026 17.2751C2.90026 16.4165 3.59882 15.718 4.45741 15.718C5.38922 15.6838 5.38964 14.3452 4.45741 14.3109H3.70393C0.641879 14.1943 0.644224 9.80491 3.70393 9.68949H4.45751C5.38987 9.65473 5.3894 8.31685 4.45751 8.28242C3.59892 8.28242 2.90036 7.58386 2.90036 6.72527C2.90036 5.45113 3.93694 4.41455 5.21108 4.41455H5.37655C5.67115 5.28951 6.49873 5.92165 7.47176 5.92165C7.8603 5.92165 8.1753 5.60666 8.1753 5.21812C8.1753 4.82958 7.8603 4.51459 7.47176 4.51459C7.02868 4.51459 6.66819 4.1541 6.66819 3.71101C6.78399 0.65023 11.1739 0.65023 11.2896 3.71101V6.72527C11.3242 7.65773 12.6624 7.65703 12.6967 6.72527V3.71106C12.813 0.649761 17.2023 0.650605 17.3181 3.71111C17.3181 4.15419 16.9576 4.51468 16.5145 4.51468C16.126 4.51468 15.811 4.82968 15.811 5.21821C15.811 5.60675 16.126 5.92175 16.5145 5.92175C17.4875 5.92175 18.3151 5.2896 18.6097 4.41464H18.7752C20.0493 4.41464 21.0859 5.45122 21.0859 6.72537C21.0859 7.584 20.3873 8.28252 19.5287 8.28252C18.5969 8.31666 18.5965 9.65525 19.5287 9.68958H20.2823C23.3443 9.80604 23.3419 14.1955 20.2822 14.3109Z" fill="#007BFF"/>
<path d="M9.78244 9.036C8.57223 9.036 7.57181 10.014 7.57181 11.2466V14.2609C7.60642 15.1934 8.94458 15.1927 8.97887 14.2609V13.4573H10.5861V14.2609C10.6207 15.1934 11.9588 15.1927 11.9931 14.2609V11.2466C11.9931 10.0387 11.0173 9.036 9.78244 9.036ZM10.586 12.0503H8.97882V11.2466C9.01766 10.1824 10.5467 10.1814 10.586 11.2466V12.0503Z" fill="#007BFF"/>
<path d="M15.7609 10.4431C16.6934 10.4085 16.6927 9.07029 15.7609 9.036H13.5002C12.5678 9.07062 12.5685 10.4088 13.5002 10.4431H13.927V13.5574H13.5002C12.5678 13.592 12.5685 14.9301 13.5002 14.9644H15.7609C16.6934 14.9298 16.6927 13.5917 15.7609 13.5574H15.3341V10.4431H15.7609Z" fill="#007BFF"/>
</svg>
