<svg viewBox="0 0 20 20"  xmlns="http://www.w3.org/2000/svg">
<path d="M5.23077 10.0012V19.232C5.23077 19.6551 4.88462 20.0012 4.46154 20.0012H3.30769C2.03077 20.0012 1 18.9705 1 17.6935V11.5397C1 10.2628 2.03077 9.23199 3.30769 9.23199H4.46154C4.88462 9.23199 5.23077 9.57814 5.23077 10.0012Z" fill="inherit"/>
<path d="M19.4846 11.5397C19.4846 11.7858 19.4462 12.032 19.3692 12.2705L17.3154 18.4243C17.0077 19.3628 16.1231 20.0012 15.1308 20.0012H7.77692C7.35385 20.0012 7.00769 19.6551 7.00769 19.232V10.0012C7.00769 9.81661 7.07692 9.63968 7.19231 9.50122L11.4231 4.57045C12.1615 3.70122 13.4615 3.60122 14.3308 4.34737C14.9385 4.87045 15.1923 5.70122 14.9692 6.47814L14.1846 9.23199H17.1846C18.4538 9.23199 19.4846 10.2628 19.4846 11.5397Z" fill="inherit"/>
<path d="M13.1615 2.30891C12.7385 2.30891 12.3923 1.96276 12.3923 1.53968V0.770451C12.3923 0.347375 12.7385 0.0012207 13.1615 0.0012207C13.5846 0.0012207 13.9308 0.347375 13.9308 0.770451V1.53968C13.9308 1.96276 13.5846 2.30891 13.1615 2.30891Z" fill="inherit"/>
<path d="M15.3385 3.20891C14.9154 3.20891 14.5692 2.86276 14.5692 2.43968C14.5692 2.23199 14.6538 2.03968 14.7923 1.89353L15.3385 1.34737C15.6385 1.04737 16.1231 1.04737 16.4231 1.34737C16.7231 1.64737 16.7231 2.13199 16.4231 2.43199L15.8769 2.97814C15.7308 3.1243 15.5385 3.20122 15.3308 3.20122L15.3385 3.20891Z" fill="inherit"/>
<path d="M10.9846 3.20891C10.7769 3.20891 10.5846 3.1243 10.4385 2.98584L9.89231 2.43968C9.59231 2.13968 9.59231 1.65507 9.89231 1.35507C10.1923 1.05507 10.6769 1.05507 10.9769 1.35507L11.5231 1.90122C11.8231 2.20122 11.8231 2.68584 11.5231 2.98584C11.3769 3.13199 11.1846 3.20891 10.9769 3.20891H10.9846Z" fill="inherit"/>
</svg>
