<svg viewBox="0 0 24 22" fill="none" xmlns="http://www.w3.org/2000/svg">
<path d="M24 6.25391C24 5.0908 23.0537 4.14453 21.8906 4.14453H18.1406V2.63155C18.1406 1.41097 17.1476 0.417969 15.9271 0.417969H8.07295C6.85238 0.417969 5.85938 1.41097 5.85938 2.63155V4.14453H2.10938C0.946266 4.14453 0 5.0908 0 6.25391V9.58189C0 10.202 0.201937 10.9754 0.9375 11.7341V19.4727C0.9375 20.6358 1.88377 21.582 3.04688 21.582H20.9531C22.1162 21.582 23.0625 20.6358 23.0625 19.4727V11.7341C23.7977 10.9759 24 10.2027 24 9.58189V6.25391ZM7.26562 2.63155C7.26562 2.18638 7.62778 1.82422 8.07295 1.82422H15.9271C16.3723 1.82422 16.7344 2.18638 16.7344 2.63155V4.14453H7.26562V2.63155ZM1.40625 6.25391C1.40625 5.8662 1.72167 5.55078 2.10938 5.55078H21.8906C22.2783 5.55078 22.5938 5.8662 22.5938 6.25391V9.58189C22.5938 11.312 19.2746 12.7238 14.4375 13.0937V12.4414C14.4375 12.0531 14.1227 11.7383 13.7344 11.7383H10.2656C9.87731 11.7383 9.5625 12.0531 9.5625 12.4414V13.0934C4.72973 12.7231 1.40625 11.3075 1.40625 9.58189V6.25391ZM13.0312 13.1445V14.0586C13.0312 14.5626 12.6212 14.9727 12.1172 14.9727H11.8828C11.3788 14.9727 10.9688 14.5626 10.9688 14.0586V13.1445H13.0312ZM20.9531 20.1758H3.04688C2.65917 20.1758 2.34375 19.8604 2.34375 19.4727V12.766C4.43738 13.8388 6.63759 14.2525 9.60637 14.5069C9.81586 15.5724 10.7568 16.3789 11.8828 16.3789H12.1172C13.2433 16.3789 14.1843 15.5723 14.3937 14.5067C16.846 14.3291 19.0599 13.8789 20.6764 13.2248C21.0399 13.0777 21.3651 12.9241 21.6562 12.7659V19.4727C21.6562 19.8604 21.3408 20.1758 20.9531 20.1758Z" fill="#007BFF"/>
</svg>
