<svg width="24" height="24" viewBox="0 0 24 24" fill="none" xmlns="http://www.w3.org/2000/svg">
<path d="M21.8906 0.046875H2.10938C0.946266 0.046875 0 0.993141 0 2.15625V21.8438C0 23.0069 0.946266 23.9531 2.10938 23.9531H21.8906C23.0537 23.9531 24 23.0069 24 21.8438V2.15625C24 0.993141 23.0537 0.046875 21.8906 0.046875ZM2.10938 1.45312H21.8906C22.2783 1.45312 22.5938 1.76855 22.5938 2.15625V5.67188H1.40625V2.15625C1.40625 1.76855 1.72167 1.45312 2.10938 1.45312ZM21.8906 22.5469H2.10938C1.72167 22.5469 1.40625 22.2315 1.40625 21.8438V7.07812H22.5938V21.8438C22.5938 22.2315 22.2783 22.5469 21.8906 22.5469Z" fill="#007BFF"/>
<path d="M14.3864 9.24436C14.0295 9.09141 13.6161 9.25673 13.4631 9.61364L9.24436 19.4574C9.09136 19.8143 9.25673 20.2277 9.61364 20.3806C9.97069 20.5336 10.384 20.3682 10.5369 20.0114L14.7556 10.1676C14.9086 9.81066 14.7433 9.39731 14.3864 9.24436Z" fill="#007BFF"/>
<path d="M8.3303 11.5607C8.08767 11.2575 7.64513 11.2084 7.34203 11.451L3.82641 14.2635C3.47489 14.5446 3.47466 15.0802 3.82641 15.3615L7.34203 18.174C7.64527 18.4167 8.08781 18.3675 8.3303 18.0643C8.57288 17.761 8.52375 17.3185 8.22047 17.076L5.39119 14.8125L8.22047 12.549C8.52375 12.3065 8.57288 11.864 8.3303 11.5607Z" fill="#007BFF"/>
<path d="M20.1736 14.2635L16.658 11.451C16.3547 11.2083 15.9122 11.2575 15.6697 11.5607C15.4271 11.864 15.4763 12.3065 15.7795 12.549L18.6088 14.8125L15.7795 17.076C15.4763 17.3185 15.4271 17.761 15.6697 18.0642C15.9126 18.3678 16.3552 18.4163 16.658 18.174L20.1736 15.3615C20.5251 15.0804 20.5253 14.5448 20.1736 14.2635Z" fill="#007BFF"/>
<path d="M3.5625 4.26562C3.95083 4.26562 4.26562 3.95083 4.26562 3.5625C4.26562 3.17417 3.95083 2.85938 3.5625 2.85938C3.17417 2.85938 2.85938 3.17417 2.85938 3.5625C2.85938 3.95083 3.17417 4.26562 3.5625 4.26562Z" fill="#007BFF"/>
<path d="M6.375 4.26562C6.76333 4.26562 7.07812 3.95083 7.07812 3.5625C7.07812 3.17417 6.76333 2.85938 6.375 2.85938C5.98667 2.85938 5.67188 3.17417 5.67188 3.5625C5.67188 3.95083 5.98667 4.26562 6.375 4.26562Z" fill="#007BFF"/>
<path d="M9.1875 4.26562C9.57582 4.26562 9.89062 3.95083 9.89062 3.5625C9.89062 3.17417 9.57582 2.85938 9.1875 2.85938C8.79918 2.85938 8.48438 3.17417 8.48438 3.5625C8.48438 3.95083 8.79918 4.26562 9.1875 4.26562Z" fill="#007BFF"/>
<path d="M16.2188 4.26562H20.4375C20.8258 4.26562 21.1406 3.95081 21.1406 3.5625C21.1406 3.17419 20.8258 2.85938 20.4375 2.85938H16.2188C15.8304 2.85938 15.5156 3.17419 15.5156 3.5625C15.5156 3.95081 15.8304 4.26562 16.2188 4.26562Z" fill="#007BFF"/>
</svg>
