<svg width="24" height="24" viewBox="0 0 24 24" fill="none" xmlns="http://www.w3.org/2000/svg">
<path d="M23.2966 22.5938H22.5466V10.6409C22.5466 10.3383 22.353 10.0696 22.0659 9.97389L14.1093 7.32171V4.92232C14.1093 4.62921 13.9276 4.36685 13.6531 4.26396L2.40338 0.0453004C1.9442 -0.126871 1.45337 0.213113 1.45337 0.70366V22.5938H0.703369C0.315057 22.5938 0.000244141 22.9086 0.000244141 23.2969C0.000244141 23.6853 0.315057 24.0001 0.703369 24.0001C0.861291 24.0001 22.992 24.0001 23.2966 24.0001C23.685 24.0001 23.9998 23.6853 23.9998 23.2969C23.9998 22.9086 23.685 22.5938 23.2966 22.5938ZM7.07823 22.5938H5.67203V19.7813H7.07823V22.5938ZM9.89068 22.5938H8.48448V19.7813H9.89068V22.5938ZM12.7031 22.5938H11.2969V19.0782C11.2969 18.6899 10.9821 18.3751 10.5938 18.3751H4.9689C4.58059 18.3751 4.26578 18.6899 4.26578 19.0782V22.5938H2.85957V1.71822L12.7031 5.40953V22.5938ZM18.328 22.5938H16.9218V19.7813H18.328V22.5938ZM21.1404 22.5938H19.7342V19.0782C19.7342 18.6899 19.4194 18.3751 19.0311 18.3751H16.2187C15.8304 18.3751 15.5155 18.6899 15.5155 19.0782V22.5938H14.1093V8.80399L21.1404 11.1477V22.5938Z" fill="#007BFF"/>
<path d="M6.37515 15.5627H4.96895C4.58063 15.5627 4.26582 15.8775 4.26582 16.2658C4.26582 16.6541 4.58059 16.9689 4.96895 16.9689H6.37515C6.76346 16.9689 7.07828 16.6541 7.07828 16.2658C7.07828 15.8775 6.76346 15.5627 6.37515 15.5627Z" fill="#007BFF"/>
<path d="M10.5938 15.5627H9.1876C8.79929 15.5627 8.48448 15.8775 8.48448 16.2658C8.48448 16.6541 8.79924 16.9689 9.1876 16.9689H10.5938C10.9821 16.9689 11.2969 16.6541 11.2969 16.2658C11.2969 15.8775 10.9821 15.5627 10.5938 15.5627Z" fill="#007BFF"/>
<path d="M6.37515 12.7503H4.96895C4.58063 12.7503 4.26582 13.0651 4.26582 13.4534C4.26582 13.8417 4.58059 14.1565 4.96895 14.1565H6.37515C6.76346 14.1565 7.07828 13.8417 7.07828 13.4534C7.07828 13.0651 6.76346 12.7503 6.37515 12.7503Z" fill="#007BFF"/>
<path d="M10.5938 12.7503H9.1876C8.79929 12.7503 8.48448 13.0651 8.48448 13.4534C8.48448 13.8417 8.79924 14.1565 9.1876 14.1565H10.5938C10.9821 14.1565 11.2969 13.8417 11.2969 13.4534C11.2969 13.0651 10.9821 12.7503 10.5938 12.7503Z" fill="#007BFF"/>
<path d="M19.0311 15.5627H16.2187C15.8304 15.5627 15.5155 15.8775 15.5155 16.2658C15.5155 16.6541 15.8303 16.9689 16.2187 16.9689H19.0311C19.4194 16.9689 19.7342 16.6541 19.7342 16.2658C19.7342 15.8775 19.4194 15.5627 19.0311 15.5627Z" fill="#007BFF"/>
<path d="M19.0311 12.7503H16.2187C15.8304 12.7503 15.5155 13.0651 15.5155 13.4534C15.5155 13.8417 15.8303 14.1565 16.2187 14.1565H19.0311C19.4194 14.1565 19.7342 13.8417 19.7342 13.4534C19.7342 13.0651 19.4194 12.7503 19.0311 12.7503Z" fill="#007BFF"/>
<path d="M6.37515 9.9378H4.96895C4.58063 9.9378 4.26582 10.2526 4.26582 10.6409C4.26582 11.0292 4.58059 11.3441 4.96895 11.3441H6.37515C6.76346 11.3441 7.07828 11.0292 7.07828 10.6409C7.07823 10.2526 6.76346 9.9378 6.37515 9.9378Z" fill="#007BFF"/>
<path d="M10.5938 9.9378H9.1876C8.79929 9.9378 8.48448 10.2526 8.48448 10.6409C8.48448 11.0292 8.79924 11.3441 9.1876 11.3441H10.5938C10.9821 11.3441 11.2969 11.0292 11.2969 10.6409C11.2969 10.2526 10.9821 9.9378 10.5938 9.9378Z" fill="#007BFF"/>
<path d="M6.37515 7.12535H4.96895C4.58063 7.12535 4.26582 7.44016 4.26582 7.82847C4.26582 8.21678 4.58059 8.5316 4.96895 8.5316H6.37515C6.76346 8.5316 7.07828 8.21678 7.07828 7.82847C7.07823 7.44016 6.76346 7.12535 6.37515 7.12535Z" fill="#007BFF"/>
<path d="M10.5938 7.12535H9.1876C8.79929 7.12535 8.48448 7.44016 8.48448 7.82847C8.48448 8.21678 8.79924 8.5316 9.1876 8.5316H10.5938C10.9821 8.5316 11.2969 8.21678 11.2969 7.82847C11.2969 7.44016 10.9821 7.12535 10.5938 7.12535Z" fill="#007BFF"/>
</svg>
