<svg viewBox="0 0 24 24" fill="none" xmlns="http://www.w3.org/2000/svg">
<path d="M11.0103 3.46392H10.268C4.60622 3.46392 0 8.07014 0 13.732C0 19.3938 4.60622 24 10.268 24C15.9299 24 20.5361 19.3938 20.5361 13.732V12.9897H11.0103V3.46392ZM19.0205 14.4742C18.6423 18.9713 14.8612 22.5155 10.268 22.5155C5.42479 22.5155 1.48454 18.5752 1.48454 13.732C1.48454 9.1388 5.02872 5.35774 9.52577 4.97953V14.4742H19.0205Z" fill="#007BFF"/>
<path d="M13.732 0H12.9897V11.0103H24V10.268C24 4.60622 19.3938 0 13.732 0ZM14.4742 9.52577V1.51561C18.7264 1.87324 22.1268 5.27357 22.4844 9.52577H14.4742Z" fill="#007BFF"/>
</svg>
