<svg viewBox="0 0 20 20" xmlns="http://www.w3.org/2000/svg">
<path d="M9.59423 12.8638C9.43084 12.8614 9.26956 12.8264 9.11983 12.761C8.9701 12.6955 8.83491 12.6009 8.72217 12.4826L5.20915 8.77325C5.09857 8.65706 5.012 8.5202 4.9544 8.37051C4.89679 8.22081 4.86928 8.06123 4.87343 7.90088C4.87759 7.74054 4.91333 7.58259 4.97862 7.43608C5.04391 7.28958 5.13745 7.15738 5.2539 7.04708C5.37034 6.93678 5.50741 6.85052 5.65723 6.79327C5.80706 6.73601 5.96671 6.70887 6.12705 6.7134C6.28738 6.71793 6.44524 6.75404 6.5916 6.81967C6.73795 6.88529 6.86993 6.97914 6.97996 7.09585L9.63138 9.895L17.9193 1.6071C18.1482 1.37905 18.4582 1.25114 18.7813 1.25144C19.1045 1.25174 19.4142 1.38024 19.6427 1.60871C19.8712 1.83719 19.9997 2.14699 20 2.4701C20.0003 2.79322 19.8724 3.10325 19.6443 3.33216L10.4701 12.5064C10.2408 12.7344 9.93091 12.8628 9.60757 12.8638H9.59423Z" fill="inherit"/>
<path d="M8.02997 18.3138C6.76308 18.2381 5.52901 17.8809 4.41751 17.2683C3.30601 16.6557 2.34503 15.803 1.60448 14.7723C0.863932 13.7417 0.36243 12.5589 0.136454 11.31C-0.089521 10.0611 -0.034287 8.7776 0.298139 7.55277C0.630564 6.32793 1.23182 5.19259 2.05818 4.22934C2.88453 3.26608 3.91521 2.49912 5.07522 1.98426C6.23524 1.4694 7.49544 1.21957 8.76414 1.25296C10.0329 1.28634 11.2782 1.6021 12.4095 2.17725C12.659 2.30484 12.8569 2.51434 12.9702 2.7706C13.0835 3.02687 13.1052 3.3143 13.0317 3.58467C12.9581 3.85503 12.7938 4.09188 12.5664 4.25546C12.3389 4.41904 12.0621 4.49941 11.7824 4.48307C11.6142 4.47315 11.45 4.42798 11.3004 4.35049C10.1296 3.75462 8.79763 3.55261 7.50275 3.77452C6.20787 3.99643 5.0192 4.63039 4.11356 5.58211C3.20791 6.53383 2.63367 7.75247 2.47624 9.05676C2.31881 10.3611 2.58661 11.6813 3.2398 12.8212C3.89299 13.9611 4.89668 14.8596 6.10158 15.3833C7.30648 15.9069 8.64822 16.0276 9.92723 15.7274C11.2062 15.4273 12.3542 14.7223 13.2003 13.7173C14.0465 12.7123 14.5456 11.461 14.6235 10.1495C14.6327 9.98942 14.6733 9.83267 14.7432 9.68827C14.813 9.54387 14.9106 9.41466 15.0304 9.30803C15.1503 9.2014 15.2899 9.11945 15.4414 9.06686C15.593 9.01427 15.7534 8.99208 15.9135 9.00155C16.0736 9.01103 16.2303 9.05198 16.3746 9.12208C16.5188 9.19217 16.6479 9.29002 16.7543 9.41004C16.8607 9.53006 16.9424 9.66988 16.9947 9.8215C17.047 9.97313 17.0689 10.1336 17.0591 10.2937C16.9229 12.5537 15.8958 14.6673 14.2031 16.1709C12.5103 17.6745 10.2902 18.4452 8.02997 18.3138Z" fill="inherit"/>
</svg>
