<svg  viewBox="0 0 20 20"  xmlns="http://www.w3.org/2000/svg">
<path d="M10 0.0012207C4.49379 0.0012207 0 4.49532 0 10.0012C0 15.5074 4.4941 20.0012 10 20.0012C15.5062 20.0012 20 15.5071 20 10.0012C20 4.49501 15.5059 0.0012207 10 0.0012207ZM10 18.8293C5.13215 18.8293 1.17188 14.8691 1.17188 10.0012C1.17188 5.13337 5.13215 1.1731 10 1.1731C14.8679 1.1731 18.8281 5.13337 18.8281 10.0012C18.8281 14.8691 14.8679 18.8293 10 18.8293Z" fill="inherit"/>
<path d="M5.02816 15.559C5.35177 15.559 5.6141 15.2967 5.6141 14.9731C5.6141 14.6495 5.35177 14.3871 5.02816 14.3871C4.70456 14.3871 4.44223 14.6495 4.44223 14.9731C4.44223 15.2967 4.70456 15.559 5.02816 15.559Z" fill="inherit"/>
<path d="M14.9718 5.61532C15.2954 5.61532 15.5578 5.35299 15.5578 5.02938C15.5578 4.70578 15.2954 4.44345 14.9718 4.44345C14.6482 4.44345 14.3859 4.70578 14.3859 5.02938C14.3859 5.35299 14.6482 5.61532 14.9718 5.61532Z" fill="inherit"/>
<path d="M4.61383 4.61505C4.385 4.84388 4.385 5.21485 4.61383 5.44368C4.84266 5.67251 5.21363 5.67251 5.44246 5.44368C5.67129 5.21485 5.67129 4.84388 5.44246 4.61505C5.21367 4.38622 4.84266 4.38622 4.61383 4.61505Z" fill="inherit"/>
<path d="M14.5575 14.5588C14.3287 14.7876 14.3287 15.1586 14.5575 15.3874C14.7864 15.6162 15.1573 15.6162 15.3862 15.3874C15.615 15.1586 15.615 14.7876 15.3862 14.5588C15.1573 14.3299 14.7863 14.3299 14.5575 14.5588Z" fill="inherit"/>
<path d="M10 4.72778C10.3236 4.72778 10.5859 4.46544 10.5859 4.14185V2.96997C10.5859 2.64638 10.3236 2.38403 10 2.38403C9.67641 2.38403 9.41406 2.64638 9.41406 2.96997V4.14185C9.41406 4.46544 9.67641 4.72778 10 4.72778Z" fill="inherit"/>
<path d="M10 15.2747C9.67641 15.2747 9.41406 15.537 9.41406 15.8606V17.0325C9.41406 17.3561 9.67641 17.6184 10 17.6184C10.3236 17.6184 10.5859 17.3561 10.5859 17.0325V15.8606C10.5859 15.537 10.3236 15.2747 10 15.2747Z" fill="inherit"/>
<path d="M4.72656 10.0012C4.72656 9.67763 4.46422 9.41528 4.14062 9.41528H2.96875C2.64516 9.41528 2.38281 9.67763 2.38281 10.0012C2.38281 10.3248 2.64516 10.5872 2.96875 10.5872H4.14062C4.46422 10.5872 4.72656 10.3248 4.72656 10.0012Z" fill="inherit"/>
<path d="M15.2734 10.0012C15.2734 10.3248 15.5358 10.5872 15.8594 10.5872H17.0312C17.3548 10.5872 17.6172 10.3248 17.6172 10.0012C17.6172 9.67763 17.3548 9.41528 17.0312 9.41528H15.8594C15.5358 9.41528 15.2734 9.67763 15.2734 10.0012Z" fill="inherit"/>
<path d="M10.5859 9.75853V6.4856C10.5859 6.162 10.3236 5.89966 10 5.89966C9.67641 5.89966 9.41406 6.162 9.41406 6.4856V10.0012C9.41406 10.1566 9.47582 10.3056 9.5857 10.4156L13.1013 13.9312C13.3301 14.16 13.7011 14.16 13.93 13.9312C14.1588 13.7024 14.1588 13.3314 13.93 13.1025L10.5859 9.75853Z" fill="inherit"/>
</svg>
