<svg  viewBox="0 0 20 20" xmlns="http://www.w3.org/2000/svg">
<path d="M19.8852 9.30892C19.7352 8.8089 19.3852 8.44641 19.0227 8.08389C18.7601 7.82138 18.6726 7.52137 18.7726 7.14635C18.8601 6.80884 18.9226 6.47131 18.9602 6.2713C18.9602 5.19626 18.3726 4.33371 17.4976 4.0337C17.2601 3.9462 17.0226 3.8837 16.7726 3.8087C16.4851 3.7212 16.285 3.5337 16.1975 3.23369C16.1225 2.99618 16.0725 2.74615 15.9725 2.50864C15.66 1.6961 15.0475 1.20858 14.1725 1.05857C13.7224 0.996069 13.2849 1.12109 12.8599 1.2336C12.4849 1.3336 12.1724 1.25861 11.9099 0.971097C11.7599 0.821091 11.5973 0.671077 11.4348 0.533572C10.6598 -0.128955 9.54727 -0.178965 8.72223 0.408559C8.48472 0.583566 8.27221 0.796089 8.0597 1.0086C7.79719 1.25861 7.49718 1.3336 7.15967 1.2336C6.97216 1.1836 6.78465 1.14607 6.59715 1.09607C5.4721 0.858562 4.38455 1.4711 4.00954 2.55865C3.93454 2.78366 3.87203 3.00865 3.79703 3.24616C3.70953 3.52117 3.52202 3.70868 3.23451 3.79619C3.047 3.85869 2.83449 3.90872 2.64698 3.98373C1.73445 4.28374 1.17192 4.90876 1.07192 5.8588C1.03442 6.27132 1.13442 6.70882 1.22193 7.13384C1.30943 7.52136 1.24693 7.83387 0.959414 8.10888C0.809408 8.24638 0.671902 8.40887 0.534397 8.55888C-0.178132 9.38391 -0.178132 10.6215 0.534397 11.4465C0.671902 11.609 0.834409 11.784 0.984415 11.934C1.25943 12.1965 1.32193 12.4965 1.22193 12.8591C1.17192 13.0466 1.13442 13.2341 1.08442 13.4216C0.84691 14.5216 1.47194 15.6217 2.54698 15.9967C2.74699 16.0592 2.947 16.1217 3.1595 16.1842C3.52202 16.2717 3.73453 16.4967 3.83453 16.8592C3.88453 17.0717 3.93454 17.2843 4.02204 17.4968C4.34705 18.3218 4.94708 18.7968 5.82211 18.9468C6.28463 19.0218 6.72215 18.8843 7.15967 18.7718C7.50968 18.6843 7.80969 18.7468 8.0597 18.9968C8.20971 19.1593 8.37222 19.3093 8.53472 19.4469C9.37226 20.1844 10.6223 20.1844 11.4723 19.4469C11.6349 19.2968 11.7974 19.1468 11.9599 18.9843C12.1974 18.7593 12.4724 18.6843 12.7974 18.7593C13.0099 18.8093 13.2099 18.8718 13.4224 18.9093C14.5225 19.1468 15.61 18.5343 15.985 17.4718C16.06 17.2592 16.1225 17.0468 16.1725 16.8342C16.2725 16.4842 16.4975 16.2717 16.8476 16.1717C17.0601 16.1217 17.2726 16.0592 17.4851 15.9842C18.3101 15.6592 18.7976 15.0592 18.9352 14.1716C19.0102 13.7091 18.8851 13.2841 18.7726 12.8591C18.6851 12.4965 18.7351 12.1965 19.0102 11.934C19.1602 11.784 19.3102 11.6215 19.4477 11.459C19.9852 10.8215 20.1227 10.1089 19.8852 9.30892ZM14.5725 7.29635L10.0848 13.7716C9.94728 13.9841 9.72227 14.1216 9.45976 14.1716H9.32226C9.10975 14.1716 8.90974 14.1091 8.74723 13.9841L5.62211 11.5715C5.20959 11.259 5.13459 10.6715 5.4471 10.259C5.75961 9.84645 6.34714 9.77143 6.75965 10.0839L8.63473 11.534C8.89724 11.734 9.25975 11.6715 9.44726 11.409L13.0349 6.2338C13.3349 5.80878 13.9099 5.69628 14.335 5.99629C14.7725 6.2963 14.8725 6.87134 14.5725 7.29635Z" fill="inherit"/>
</svg>
