<svg  viewBox="0 0 20 20" xmlns="http://www.w3.org/2000/svg">
<path d="M19 3.00122H1C0.734783 3.00122 0.48043 3.10658 0.292893 3.29411C0.105357 3.48165 0 3.736 0 4.00122C0 4.26644 0.105357 4.52079 0.292893 4.70833C0.48043 4.89586 0.734783 5.00122 1 5.00122H3V17.0012C3.00024 17.7968 3.31639 18.5597 3.87894 19.1223C4.4415 19.6848 5.20442 20.001 6 20.0012H14C14.7956 20.001 15.5585 19.6849 16.1211 19.1223C16.6836 18.5597 16.9998 17.7968 17 17.0012V5.00122H19C19.2652 5.00122 19.5196 4.89586 19.7071 4.70833C19.8946 4.52079 20 4.26644 20 4.00122C20 3.736 19.8946 3.48165 19.7071 3.29411C19.5196 3.10658 19.2652 3.00122 19 3.00122ZM9 14.0012C9 14.2664 8.89464 14.5208 8.70711 14.7083C8.51957 14.8959 8.26522 15.0012 8 15.0012C7.73478 15.0012 7.48043 14.8959 7.29289 14.7083C7.10536 14.5208 7 14.2664 7 14.0012V9.00122C7 8.736 7.10536 8.48165 7.29289 8.29411C7.48043 8.10658 7.73478 8.00122 8 8.00122C8.26522 8.00122 8.51957 8.10658 8.70711 8.29411C8.89464 8.48165 9 8.736 9 9.00122V14.0012ZM13 14.0012C13 14.2664 12.8946 14.5208 12.7071 14.7083C12.5196 14.8959 12.2652 15.0012 12 15.0012C11.7348 15.0012 11.4804 14.8959 11.2929 14.7083C11.1054 14.5208 11 14.2664 11 14.0012V9.00122C11 8.736 11.1054 8.48165 11.2929 8.29411C11.4804 8.10658 11.7348 8.00122 12 8.00122C12.2652 8.00122 12.5196 8.10658 12.7071 8.29411C12.8946 8.48165 13 8.736 13 9.00122V14.0012Z" fill="inherit"/>
<path d="M8 2.00122H12C12.2652 2.00122 12.5196 1.89586 12.7071 1.70833C12.8946 1.52079 13 1.26644 13 1.00122C13 0.736004 12.8946 0.48165 12.7071 0.294114C12.5196 0.106577 12.2652 0.0012207 12 0.0012207H8C7.73478 0.0012207 7.48043 0.106577 7.29289 0.294114C7.10536 0.48165 7 0.736004 7 1.00122C7 1.26644 7.10536 1.52079 7.29289 1.70833C7.48043 1.89586 7.73478 2.00122 8 2.00122Z" fill="inherit"/>
</svg>
