<svg width="24" height="24" viewBox="0 0 24 24" fill="none" xmlns="http://www.w3.org/2000/svg">
<path d="M21.7906 3.01252H17.6062C16.3997 1.19827 14.3373 0 12 0C9.66267 0 7.60027 1.19827 6.39384 3.01252H2.20936C0.991125 3.01252 0 4.00364 0 5.22188V17.2719C0 18.4901 0.991125 19.4813 2.20936 19.4813H8.28436V22.5938H6.72811C6.3398 22.5938 6.02498 22.9086 6.02498 23.2969C6.02498 23.6852 6.3398 24 6.72811 24H17.2719C17.6602 24 17.975 23.6852 17.975 23.2969C17.975 22.9086 17.6602 22.5938 17.2719 22.5938H15.7156V19.4813H21.7906C23.0089 19.4813 24 18.4901 24 17.2719V5.22188C24 4.00364 23.0089 3.01252 21.7906 3.01252ZM12 1.40625C14.9345 1.40625 17.3219 3.79364 17.3219 6.72811C17.3219 9.66258 14.9345 12.05 12 12.05C9.06548 12.05 6.67814 9.66258 6.67814 6.72811C6.67814 3.79364 9.06548 1.40625 12 1.40625ZM14.3094 22.5938H9.69066V19.4813H14.3094V22.5938ZM22.5938 17.2719C22.5938 17.7147 22.2335 18.075 21.7906 18.075H2.20936C1.76653 18.075 1.40625 17.7147 1.40625 17.2719V5.22188C1.40625 4.77905 1.76653 4.41877 2.20936 4.41877H5.68022C5.41608 5.13933 5.27184 5.91722 5.27184 6.72816C5.27184 10.4381 8.29008 13.4563 12 13.4563C13.6022 13.4563 15.0751 12.893 16.2319 11.9545L19.7871 15.5097C20.0617 15.7843 20.5069 15.7843 20.7815 15.5097C21.0561 15.2352 21.0561 14.79 20.7815 14.5154L17.2262 10.9601C18.1648 9.80334 18.7281 8.33039 18.7281 6.72816C18.7281 5.91722 18.5838 5.13933 18.3197 4.41877H21.7905C22.2334 4.41877 22.5937 4.77905 22.5937 5.22188L22.5938 17.2719Z" fill="#007BFF"/>
</svg>
