<svg viewBox="0 0 20 20" xmlns="http://www.w3.org/2000/svg">
<path d="M3.76666 12.8507C3.59662 13.0167 3.48736 13.2319 3.45555 13.4636L2.66666 18.7754C2.58466 19.4092 2.98889 20.0012 3.93333 20.0012L9.42221 19.2378C9.66162 19.207 9.88404 19.1013 10.0555 18.9367L16.613 12.5908C17.0191 12.1978 17.0191 11.5466 16.613 11.1536L11.7621 6.45916C11.3744 6.08396 10.7589 6.08396 10.3712 6.45916L3.76666 12.8507Z" fill="inherit"/>
<path d="M13.6059 3.6752C13.063 3.92704 13.0333 4.63558 13.4633 5.05174L18.176 9.61243C18.5835 10.0068 19.2499 9.98644 19.5154 9.48536C19.8339 8.88412 20.0024 8.21357 20 7.5281C19.9915 6.70825 19.7422 5.90764 19.2811 5.21981C18.8201 4.53197 18.1663 3.98529 17.3961 3.64364C16.6259 3.30199 15.7712 3.17947 14.9318 3.29039C14.4695 3.35147 14.0224 3.48195 13.6059 3.6752Z" fill="inherit"/>
<path d="M1.11111 2.15176H11.1111C11.4058 2.15176 11.6884 2.03847 11.8968 1.83682C12.1051 1.63517 12.2222 1.36167 12.2222 1.07649C12.2222 0.79131 12.1051 0.517812 11.8968 0.31616C11.6884 0.114508 11.4058 0.0012207 11.1111 0.0012207H1.11111C0.816425 0.0012207 0.53381 0.114508 0.325436 0.31616C0.117063 0.517812 0 0.79131 0 1.07649C0 1.36167 0.117063 1.63517 0.325436 1.83682C0.53381 2.03847 0.816425 2.15176 1.11111 2.15176Z" fill="inherit"/>
<path d="M1.11111 6.45283H7.77777C8.07245 6.45283 8.35507 6.33955 8.56344 6.13789C8.77181 5.93624 8.88888 5.66274 8.88888 5.37756C8.88888 5.09239 8.77181 4.81889 8.56344 4.61723C8.35507 4.41558 8.07245 4.3023 7.77777 4.3023H1.11111C0.816425 4.3023 0.53381 4.41558 0.325436 4.61723C0.117063 4.81889 0 5.09239 0 5.37756C0 5.66274 0.117063 5.93624 0.325436 6.13789C0.53381 6.33955 0.816425 6.45283 1.11111 6.45283Z" fill="inherit"/>
<path d="M3.33333 8.60337H1.11111C0.816425 8.60337 0.53381 8.71666 0.325436 8.91831C0.117063 9.11996 0 9.39346 0 9.67864C0 9.96382 0.117063 10.2373 0.325436 10.439C0.53381 10.6406 0.816425 10.7539 1.11111 10.7539H3.33333C3.62801 10.7539 3.91063 10.6406 4.119 10.439C4.32738 10.2373 4.44444 9.96382 4.44444 9.67864C4.44444 9.39346 4.32738 9.11996 4.119 8.91831C3.91063 8.71666 3.62801 8.60337 3.33333 8.60337Z" fill="inherit"/>
</svg>
