<svg viewBox="0 0 20 20" xmlns="http://www.w3.org/2000/svg">
<path d="M11.6714 12.255C11.1739 12.5867 10.5959 12.762 10 12.762C9.40414 12.762 8.82617 12.5867 8.32859 12.255L0.133164 6.79117C0.0876953 6.76086 0.0433984 6.72926 0 6.69676V15.6498C0 16.6762 0.833008 17.4909 1.84113 17.4909H18.1588C19.1853 17.4909 20 16.6579 20 15.6498V6.69672C19.9565 6.7293 19.9121 6.76098 19.8665 6.79133L11.6714 12.255Z" fill="inherit"/>
<path d="M0.783203 5.81609L8.97863 11.2799C9.28887 11.4868 9.64441 11.5902 9.99996 11.5902C10.3555 11.5902 10.7111 11.4867 11.0214 11.2799L19.2168 5.81609C19.7072 5.48934 20 4.94246 20 4.35223C20 3.33734 19.1743 2.51172 18.1595 2.51172H1.84051C0.825664 2.51176 0 3.33738 0 4.3532C0 4.94246 0.292812 5.48934 0.783203 5.81609Z" fill="inherit"/>
</svg>
