<svg viewBox="0 0 20 20" xmlns="http://www.w3.org/2000/svg">
<path d="M18.9896 10.1738L9.04601 0.230214C8.7409 -0.0749009 8.24625 -0.0749009 7.94118 0.230214C7.6361 0.535329 7.63606 1.02997 7.94118 1.33505L8.65832 2.05219L5.04803 9.75241L1.46759 13.3328C0.553771 14.2467 0.553771 15.7336 1.46759 16.6474L2.57247 17.7523C3.48844 18.6683 4.97104 18.6683 5.88701 17.7523L6.80239 16.8369L9.26031 19.2948C9.70511 19.7504 10.3004 20.0012 10.9373 20.0012C12.2296 20.0012 13.281 18.9498 13.281 17.6575C13.281 17.0206 13.0302 16.4253 12.5746 15.9805L10.3515 13.7573L17.1677 10.5615L17.8848 11.2786C18.1899 11.5838 18.6846 11.5838 18.9896 11.2786C19.2947 10.9736 19.2947 10.4789 18.9896 10.1738ZM4.78214 16.6474C4.47683 16.9528 3.98265 16.9527 3.6773 16.6474L2.57243 15.5426C2.26782 15.2379 2.26782 14.7423 2.57243 14.4377L5.69725 11.3129L7.90696 13.5226L4.78214 16.6474ZM11.4815 17.097C11.6343 17.2455 11.7185 17.4445 11.7185 17.6575C11.7185 18.0883 11.368 18.4388 10.9372 18.4388C10.7242 18.4388 10.5252 18.3546 10.3767 18.2018C10.374 18.199 7.90715 15.7321 7.90715 15.7321L9.01175 14.6275C9.01175 14.6275 11.4787 17.0943 11.4815 17.097ZM9.17656 12.5825L6.63732 10.0433L9.83315 3.22707L15.9928 9.38663L9.17656 12.5825Z" fill="inherit"/>
<path d="M16.1507 5.07089C16.3463 5.45543 16.8167 5.60859 17.2012 5.41296L18.7915 4.60394C19.176 4.40828 19.3292 3.93793 19.1335 3.55336C18.9379 3.16879 18.4676 3.01566 18.083 3.21129L16.4927 4.02031C16.1082 4.21597 15.955 4.68632 16.1507 5.07089Z" fill="inherit"/>
<path d="M14.149 3.06924C14.5336 3.26486 15.0039 3.1117 15.1996 2.72713L16.0085 1.13686C16.2042 0.752286 16.051 0.281934 15.6665 0.0863094C15.2819 -0.109316 14.8116 0.0438094 14.6159 0.428419L13.8069 2.01869C13.6113 2.40326 13.7644 2.87361 14.149 3.06924Z" fill="inherit"/>
</svg>
