<svg viewBox="0 0 20 20" xmlns="http://www.w3.org/2000/svg">
<path d="M19.4141 13.4947H18.7448V4.66657C18.7448 3.66036 17.9318 2.82544 16.9036 2.82544H3.09637C2.08621 2.82544 1.25523 3.64212 1.25523 4.66657V13.4947H0.585938C0.262344 13.4947 0 13.757 0 14.0806V15.3359C0 16.3419 0.812656 17.177 1.84113 17.177H18.1588C19.1688 17.177 20 16.3606 20 15.3359V14.0806C20 13.757 19.7377 13.4947 19.4141 13.4947ZM2.42707 4.66657C2.42707 4.29786 2.72543 3.99731 3.09633 3.99731H16.9036C17.2732 3.99731 17.5729 4.29642 17.5729 4.66657V13.4947H14.6287C14.4204 11.8397 13.3416 10.4521 11.8669 9.80556C13.4937 8.18118 12.324 5.33032 9.99996 5.33587C7.67598 5.33032 6.50613 8.18161 8.13312 9.80556C6.6584 10.452 5.57965 11.8397 5.37137 13.4947H2.42707V4.66657ZM10 10.5872C11.7267 10.5872 13.1645 11.8464 13.4441 13.4947H11.8828C11.7274 13.4947 11.5784 13.5564 11.4685 13.6663C11.3781 13.7567 11.253 13.8085 11.1253 13.8085H8.87477C8.74703 13.8085 8.62191 13.7566 8.53141 13.6662C8.42152 13.5564 8.27254 13.4947 8.11719 13.4947H6.55594C6.83547 11.8464 8.27332 10.5872 10 10.5872ZM8.54621 7.96149C8.54621 7.15989 9.19836 6.50774 10 6.50774C11.926 6.58083 11.9255 9.34251 10 9.41528C9.1984 9.41528 8.54621 8.76313 8.54621 7.96149ZM18.8281 15.3359C18.8281 15.7046 18.5298 16.0051 18.1588 16.0051H1.84113C1.4716 16.0051 1.17188 15.706 1.17188 15.3359V14.6666H7.90379C8.18453 14.8704 8.52121 14.9804 8.87473 14.9804H11.1252C11.4787 14.9804 11.8155 14.8704 12.0962 14.6666H18.8281V15.3359Z" fill="inherit"/>
</svg>
