<svg viewBox="0 0 20 20" xmlns="http://www.w3.org/2000/svg">
<path d="M7.07031 11.759C6.74672 11.759 6.48438 12.0214 6.48438 12.345V13.5168C6.48438 13.8404 6.74672 14.1028 7.07031 14.1028C7.39391 14.1028 7.65625 13.8404 7.65625 13.5168V12.345C7.65625 12.0214 7.39391 11.759 7.07031 11.759Z" fill="inherit"/>
<path d="M12.9297 14.1028C13.2533 14.1028 13.5156 13.8404 13.5156 13.5168V12.345C13.5156 12.0214 13.2533 11.759 12.9297 11.759C12.6061 11.759 12.3438 12.0214 12.3438 12.345V13.5168C12.3438 13.8404 12.6061 14.1028 12.9297 14.1028Z" fill="inherit"/>
<path d="M10.625 4.14185H17.0312C17.3548 4.14185 17.6172 3.8795 17.6172 3.55591C17.6172 3.23231 17.3548 2.96997 17.0312 2.96997H10.625C10.3014 2.96997 10.0391 3.23231 10.0391 3.55591C10.0391 3.8795 10.3014 4.14185 10.625 4.14185Z" fill="inherit"/>
<path d="M20 6.87622V2.54028C20 1.14024 18.861 0.0012207 17.4609 0.0012207H10.1953C8.79527 0.0012207 7.65625 1.14024 7.65625 2.54028V7.07153H6.875C4.73332 7.07153 2.93715 8.57817 2.49004 10.5872H2.38281V6.97075C3.0648 6.72888 3.55469 6.07759 3.55469 5.31372C3.55469 4.34446 2.76613 3.55591 1.79688 3.55591C0.827617 3.55591 0.0390625 4.34446 0.0390625 5.31372C0.0390625 6.07759 0.528945 6.72888 1.21094 6.97075V10.6747C0.508711 10.9052 0 11.5666 0 12.345V14.6887C0 15.658 0.788555 16.4465 1.75781 16.4465H2.48152C2.91391 18.475 4.71945 20.0012 6.875 20.0012H13.125C15.2805 20.0012 17.0861 18.475 17.5185 16.4465H18.2422C19.2114 16.4465 20 15.658 20 14.6887V12.345C20 11.3757 19.2114 10.5872 18.2422 10.5872H17.5097C17.4187 10.1778 17.2709 9.78337 17.0704 9.41528H17.4609C18.861 9.41528 20 8.27626 20 6.87622ZM8.82812 2.54028C8.82812 1.78642 9.44145 1.1731 10.1953 1.1731H17.4609C18.2148 1.1731 18.8281 1.78642 18.8281 2.54028V6.87622C18.8281 7.63009 18.2148 8.24341 17.4609 8.24341H10.5859C10.495 8.24341 10.4053 8.26458 10.3239 8.30524L8.82812 9.05313V2.54028ZM1.79688 4.72778C2.11996 4.72778 2.38281 4.99063 2.38281 5.31372C2.38281 5.63681 2.11996 5.89966 1.79688 5.89966C1.47379 5.89966 1.21094 5.63681 1.21094 5.31372C1.21094 4.99063 1.47379 4.72778 1.79688 4.72778ZM1.17188 14.6887V12.345C1.17188 12.0219 1.43473 11.759 1.75781 11.759H2.38281V15.2747H1.75781C1.43473 15.2747 1.17188 15.0118 1.17188 14.6887ZM18.8281 12.345V14.6887C18.8281 15.0118 18.5653 15.2747 18.2422 15.2747H17.6172V11.759H18.2422C18.5653 11.759 18.8281 12.0219 18.8281 12.345ZM16.4453 11.5637V15.509C16.4453 17.3399 14.9558 18.8293 13.125 18.8293H6.875C5.04418 18.8293 3.55469 17.3399 3.55469 15.509V11.5637C3.55469 9.7329 5.04418 8.24341 6.875 8.24341H7.65625V10.0012C7.65625 10.4361 8.11492 10.72 8.50422 10.5253L10.7243 9.41528H15.6555C16.1648 10.0147 16.4453 10.7748 16.4453 11.5637Z" fill="inherit"/>
<path d="M10.625 6.4856H17.0312C17.3548 6.4856 17.6172 6.22325 17.6172 5.89966C17.6172 5.57606 17.3548 5.31372 17.0312 5.31372H10.625C10.3014 5.31372 10.0391 5.57606 10.0391 5.89966C10.0391 6.22325 10.3014 6.4856 10.625 6.4856Z" fill="inherit"/>
<path d="M8.24219 15.8606C8.24219 16.1842 8.50453 16.4465 8.82812 16.4465H11.1719C11.4955 16.4465 11.7578 16.1842 11.7578 15.8606C11.7578 15.537 11.4955 15.2747 11.1719 15.2747H8.82812C8.50453 15.2747 8.24219 15.537 8.24219 15.8606Z" fill="inherit"/>
</svg>
