<svg viewBox="0 0 20 20" xmlns="http://www.w3.org/2000/svg">
<path d="M18.8446 5.33431L19.7703 4.40856C20.2608 3.91814 19.9135 3.07479 19.218 3.07479H16.9264V0.783376C16.9264 0.0897119 16.0844 -0.260782 15.5926 0.230856L14.6669 1.15661C13.2344 0.399923 11.6333 0.00212659 9.99953 0.00212659C4.47311 0.00212659 0 4.47447 0 10.0017C0 15.5281 4.47235 20.0012 9.99953 20.0012C15.526 20.0012 19.9991 15.5288 19.9991 10.0017C19.9991 8.3679 19.6014 6.76695 18.8446 5.33431ZM16.1452 4.63728H17.3318L15.8215 6.1476H13.8536V4.17967L15.3639 2.66936V3.85604C15.3639 4.28755 15.7136 4.63728 16.1452 4.63728ZM9.99953 18.4388C5.3366 18.4388 1.5625 14.6652 1.5625 10.0017C1.5625 5.33873 5.33599 1.56447 9.99953 1.56447C11.2144 1.56447 12.4075 1.82479 13.5005 2.32314L12.52 3.30367C12.3735 3.45015 12.2911 3.64882 12.2911 3.85604V6.60521L9.44716 9.44929C9.14214 9.75431 9.14214 10.249 9.44716 10.554C9.75219 10.859 10.2469 10.8592 10.5521 10.554L13.396 7.7101H16.1452C16.3524 7.7101 16.551 7.6277 16.6975 7.48137L17.6782 6.50069C18.1766 7.59367 18.4367 8.78676 18.4367 10.0017C18.4367 14.6646 14.6632 18.4388 9.99953 18.4388ZM16.1601 10.0017C16.1601 13.3986 13.3966 16.1622 9.99953 16.1622C6.60262 16.1622 3.83895 13.3986 3.83895 10.0017C3.83895 6.60475 6.60262 3.84108 9.99953 3.84108C10.431 3.84108 10.7808 4.19081 10.7808 4.62233C10.7808 5.05385 10.431 5.40358 9.99953 5.40358C7.46413 5.40358 5.40145 7.46626 5.40145 10.0017C5.40145 12.5371 7.46413 14.5997 9.99953 14.5997C12.5349 14.5997 14.5978 12.5371 14.5978 10.0017C14.5978 9.57014 14.9475 9.22041 15.3789 9.22041C15.8104 9.22041 16.1601 9.57014 16.1601 10.0017Z" fill="inherit"/>
</svg>
