<svg viewBox="0 0 20 20" xmlns="http://www.w3.org/2000/svg">
<path d="M17.6562 1.87622H2.34375C1.05141 1.87622 0 2.92763 0 4.21997V6.15337L8.60121 12.5511C9.01953 12.8622 9.50977 13.0178 10 13.0178C10.4902 13.0178 10.9805 12.8622 11.3988 12.5511L20 6.15337V4.21997C20 2.92763 18.9486 1.87622 17.6562 1.87622ZM18.4375 5.36825L10.4663 11.2973C10.1874 11.5048 9.81262 11.5048 9.53375 11.2973L1.5625 5.36825V4.21997C1.5625 3.78919 1.91297 3.43872 2.34375 3.43872H17.6562C18.087 3.43872 18.4375 3.78919 18.4375 4.21997V5.36825ZM18.4375 9.2629L20 8.10071V15.7825C20 17.0748 18.9486 18.1262 17.6562 18.1262H2.34375C1.05141 18.1262 0 17.0748 0 15.7825V8.10071L1.5625 9.2629V15.7825C1.5625 16.2133 1.91297 16.5637 2.34375 16.5637H17.6562C18.087 16.5637 18.4375 16.2133 18.4375 15.7825V9.2629Z" fill="inherit"/>
</svg>
