<svg viewBox="0 0 20 20" xmlns="http://www.w3.org/2000/svg">
<path d="M6.25031 16.5247H3.51593V7.69653H6.25031V16.5247ZM6.52313 4.88388C6.52313 3.99994 5.80597 3.28247 4.92249 3.28247C4.03564 3.28247 3.32031 3.99994 3.32031 4.88388C3.32031 5.76813 4.03564 6.4856 4.92249 6.4856C5.80597 6.4856 6.52313 5.76813 6.52313 4.88388ZM16.4844 11.6678C16.4844 9.29794 15.9837 7.54028 13.2153 7.54028C11.8851 7.54028 10.9921 8.20557 10.6276 8.8974H10.625V7.69653H7.96875V16.5247H10.625V12.1414C10.625 10.9935 10.9172 9.88144 12.3401 9.88144C13.7436 9.88144 13.7891 11.1942 13.7891 12.2144V16.5247H16.4844V11.6678ZM20 17.6575V2.34497C20 1.05255 18.9487 0.0012207 17.6562 0.0012207H2.34375C1.05133 0.0012207 0 1.05255 0 2.34497V17.6575C0 18.9499 1.05133 20.0012 2.34375 20.0012H17.6562C18.9487 20.0012 20 18.9499 20 17.6575ZM17.6562 1.56372C18.087 1.56372 18.4375 1.91422 18.4375 2.34497V17.6575C18.4375 18.0882 18.087 18.4387 17.6562 18.4387H2.34375C1.91299 18.4387 1.5625 18.0882 1.5625 17.6575V2.34497C1.5625 1.91422 1.91299 1.56372 2.34375 1.56372H17.6562Z" fill="inherit"/>
</svg>
