<svg width="24" height="24" viewBox="0 0 24 24" fill="none" xmlns="http://www.w3.org/2000/svg">
<path d="M23.2967 9.03786H18.3192C19.9578 4.75759 16.5973 -0.0665636 12.0001 0.000700199C7.40377 -0.066798 4.04151 4.75829 5.68106 9.03791H0.703541C-0.228355 9.0725 -0.227652 10.4099 0.703541 10.4441H1.91856L9.79076 18.3164V23.2969C9.79076 23.5405 9.9169 23.7668 10.1242 23.895C10.3287 24.0214 10.5875 24.0362 10.8083 23.9257L13.8208 22.4195C14.059 22.3004 14.2095 22.057 14.2095 21.7906V18.3164L22.0817 10.4441H23.2967C24.2286 10.4095 24.2279 9.07212 23.2967 9.03786ZM6.67835 6.72858C6.67835 3.79414 9.06567 1.40682 12.0001 1.40682C15.8667 1.35591 18.5176 5.59583 16.7931 9.03786H13.8657C14.3429 8.24344 14.4569 7.11322 13.3899 6.47424C13.0209 6.25904 12.5887 6.15095 12.1706 6.04647C11.8482 5.96585 11.5147 5.88246 11.3188 5.76823C11.197 5.69712 11.197 5.66637 11.197 5.59892C11.2364 4.72131 12.2043 4.64476 12.6489 4.98253C13.3426 5.60581 14.2722 4.64434 13.627 3.97212C13.4477 3.79283 13.126 3.59399 12.7032 3.48117V3.33966C12.6686 2.40776 11.3313 2.40846 11.297 3.33966V3.50503C9.93307 3.92117 9.04716 6.03433 10.6103 6.98296C10.9793 7.19816 11.4115 7.30625 11.8296 7.41073C12.152 7.49135 12.4855 7.57474 12.6814 7.68897C12.8032 7.76008 12.8032 7.79083 12.8032 7.85828C12.7638 8.7359 11.7959 8.81244 11.3513 8.47467C10.8856 8.02314 10.1058 8.40052 10.1622 9.03791H7.20713C6.86889 8.33892 6.67835 7.55576 6.67835 6.72858ZM12.8032 21.3561L11.197 22.1592V18.7282H12.8032V21.3561ZM13.2151 17.322H10.7851L3.90722 10.4441H20.093L13.2151 17.322Z" fill="#007BFF"/>
</svg>
