<svg width="40" height="40" viewBox="0 0 40 40" fill="none" xmlns="http://www.w3.org/2000/svg">
<path d="M38.8281 37.6562H1.17188C0.524687 37.6562 0 38.1809 0 38.8281C0 39.4753 0.524687 40 1.17188 40H38.8281C39.4753 40 40 39.4753 40 38.8281C40 38.1809 39.4753 37.6562 38.8281 37.6562Z" fill="#007BFF"/>
<path d="M3.59375 28.125C2.94656 28.125 2.42188 28.6497 2.42188 29.2969V34.1406C2.42188 34.7878 2.94656 35.3125 3.59375 35.3125H8.28125C8.92844 35.3125 9.45312 34.7878 9.45312 34.1406V29.2969C9.45312 28.6497 8.92844 28.125 8.28125 28.125H3.59375ZM7.10938 32.9688H4.76562V30.4688H7.10938V32.9688Z" fill="#007BFF"/>
<path d="M12.9688 24.2188C12.3216 24.2188 11.7969 24.7434 11.7969 25.3906V34.1406C11.7969 34.7878 12.3216 35.3125 12.9688 35.3125H17.6562C18.3034 35.3125 18.8281 34.7878 18.8281 34.1406V25.3906C18.8281 24.7434 18.3034 24.2188 17.6562 24.2188H12.9688ZM16.4844 32.9688H14.1406V26.5625H16.4844V32.9688Z" fill="#007BFF"/>
<path d="M22.3438 26.5625C21.6966 26.5625 21.1719 27.0872 21.1719 27.7344V34.1406C21.1719 34.7878 21.6966 35.3125 22.3438 35.3125H27.0312C27.6784 35.3125 28.2031 34.7878 28.2031 34.1406V27.7344C28.2031 27.0872 27.6784 26.5625 27.0312 26.5625H22.3438ZM25.8594 32.9688H23.5156V28.9062H25.8594V32.9688Z" fill="#007BFF"/>
<path d="M30.5469 19.9219V34.1406C30.5469 34.7878 31.0716 35.3125 31.7188 35.3125H36.4062C37.0534 35.3125 37.5781 34.7878 37.5781 34.1406V19.9219C37.5781 19.2747 37.0534 18.75 36.4062 18.75H31.7188C31.0716 18.75 30.5469 19.2747 30.5469 19.9219ZM32.8906 21.0938H35.2344V32.9688H32.8906V21.0938Z" fill="#007BFF"/>
<path d="M10.5469 16.7969C11.1941 16.7969 11.7188 16.2722 11.7188 15.625C11.7188 14.9778 11.1941 14.4531 10.5469 14.4531C9.89967 14.4531 9.375 14.9778 9.375 15.625C9.375 16.2722 9.89967 16.7969 10.5469 16.7969Z" fill="#007BFF"/>
<path d="M8.20312 8.98438C8.85031 8.98438 9.375 8.45969 9.375 7.8125C9.375 7.75711 9.37883 7.70141 9.38641 7.64758C9.46703 7.06953 9.96398 6.64062 10.5477 6.64062C10.5556 6.64062 10.5637 6.6407 10.5717 6.64086C11.1723 6.65289 11.6861 7.14992 11.7172 7.74859C11.7341 8.07437 11.6203 8.38344 11.3967 8.61891C11.1729 8.85453 10.871 8.98438 10.5469 8.98438C9.89969 8.98438 9.375 9.50906 9.375 10.1562V12.1094C9.375 12.7566 9.89969 13.2812 10.5469 13.2812C11.1941 13.2812 11.7188 12.7566 11.7188 12.1094V11.1255C12.2374 10.9416 12.7122 10.6373 13.0964 10.2326C13.7669 9.52641 14.1083 8.60102 14.0577 7.62695C13.9627 5.79688 12.4522 4.33437 10.6188 4.2975C8.84117 4.26172 7.31086 5.5625 7.06508 7.32391C7.04266 7.48508 7.03125 7.64937 7.03125 7.8125C7.03125 8.45969 7.55594 8.98438 8.20312 8.98438Z" fill="#007BFF"/>
<path d="M8.66609 20.9258L5.20547 23.6943C4.70008 24.0986 4.61812 24.836 5.02242 25.3414C5.42672 25.8468 6.16414 25.9288 6.66953 25.5245L12.415 20.9281C13.3474 20.7608 14.2377 20.4705 15.0684 20.0746L24.2934 23.3692C24.7888 23.5462 25.3415 23.3712 25.6449 22.9414L33.3971 11.9591L33.7224 13.8041C33.8348 14.4415 34.4427 14.8671 35.08 14.7547C35.7173 14.6423 36.1429 14.0345 36.0305 13.3971L35.2166 8.78078C35.1042 8.14344 34.4964 7.71781 33.859 7.83023L29.2427 8.64422C28.6053 8.75664 28.1797 9.36445 28.2921 10.0018C28.4045 10.6391 29.0123 11.0648 29.6497 10.9523L31.4648 10.6323L24.2434 20.8626L17.5134 18.459C19.7075 16.5249 21.0938 13.6948 21.0938 10.5469C21.0938 4.73133 16.3624 0 10.5469 0C4.73133 0 0 4.73133 0 10.5469C0 15.7207 3.74469 20.0363 8.66609 20.9258ZM10.5469 2.34375C15.0701 2.34375 18.75 6.02367 18.75 10.5469C18.75 15.0701 15.0701 18.75 10.5469 18.75C6.02367 18.75 2.34375 15.0701 2.34375 10.5469C2.34375 6.02367 6.02367 2.34375 10.5469 2.34375Z" fill="#007BFF"/>
</svg>
