<svg viewBox="0 0 20 20" xmlns="http://www.w3.org/2000/svg">
<path d="M20 6.04614C20 5.07688 19.2114 4.28833 18.2422 4.28833H15.1172V3.02751C15.1172 2.01036 14.2897 1.18286 13.2726 1.18286H6.72746C5.71031 1.18286 4.88281 2.01036 4.88281 3.02751V4.28833H1.75781C0.788555 4.28833 0 5.07688 0 6.04614V8.81946C0 9.33626 0.168281 9.98075 0.78125 10.6129V17.0618C0.78125 18.031 1.5698 18.8196 2.53906 18.8196H17.4609C18.4302 18.8196 19.2188 18.031 19.2188 17.0618V10.6129C19.8314 9.9811 20 9.33681 20 8.81946V6.04614ZM6.05469 3.02751C6.05469 2.65653 6.35648 2.35474 6.72746 2.35474H13.2726C13.6436 2.35474 13.9454 2.65653 13.9454 3.02751V4.28833H6.05469V3.02751ZM1.17188 6.04614C1.17188 5.72306 1.43473 5.46021 1.75781 5.46021H18.2422C18.5653 5.46021 18.8281 5.72306 18.8281 6.04614V8.81946C18.8281 10.2612 16.0622 11.4377 12.0312 11.7459V11.2024C12.0312 10.8788 11.7689 10.6165 11.4453 10.6165H8.55469C8.23109 10.6165 7.96875 10.8788 7.96875 11.2024V11.7458C3.94145 11.4371 1.17188 10.2575 1.17188 8.81946V6.04614ZM10.8594 11.7883V12.55C10.8594 12.97 10.5177 13.3118 10.0977 13.3118H9.90234C9.48234 13.3118 9.14062 12.97 9.14062 12.55V11.7883H10.8594ZM17.4609 17.6477H2.53906C2.21598 17.6477 1.95312 17.3849 1.95312 17.0618V11.4729C3.69781 12.3669 5.53133 12.7116 8.00531 12.9236C8.17988 13.8116 8.96398 14.4836 9.90234 14.4836H10.0977C11.0361 14.4836 11.8202 13.8115 11.9947 12.9234C14.0384 12.7754 15.8832 12.4003 17.2303 11.8552C17.5332 11.7327 17.8042 11.6046 18.0469 11.4728V17.0618C18.0469 17.3849 17.784 17.6477 17.4609 17.6477Z" fill="inherit"/>
</svg>
