<svg viewBox="0 0 20 20" xmlns="http://www.w3.org/2000/svg">
<path d="M9.17526 2.88782H8.5567C3.83852 2.88782 0 6.72633 0 11.4445C0 16.1627 3.83852 20.0012 8.5567 20.0012C13.2749 20.0012 17.1134 16.1627 17.1134 11.4445V10.826H9.17526V2.88782ZM15.8504 12.0631C15.5352 15.8106 12.3843 18.7641 8.5567 18.7641C4.52066 18.7641 1.23711 15.4806 1.23711 11.4445C1.23711 7.61689 4.1906 4.466 7.93814 4.15083V12.0631H15.8504Z" fill="inherit"/>
<path d="M11.4433 0.0012207H10.8247V9.17648H20V8.55792C20 3.83974 16.1615 0.0012207 11.4433 0.0012207ZM12.0619 7.93936V1.26423C15.6054 1.56225 18.439 4.39586 18.737 7.93936H12.0619Z" fill="inherit"/>
</svg>
