<svg viewBox="0 0 20 20" xmlns="http://www.w3.org/2000/svg">
<path d="M11.93 4.90931L13.3004 5.92313C13.4547 6.03724 13.3767 6.28974 13.1817 6.29095L12.7516 6.29356C12.7512 6.29356 12.7508 6.29356 12.7504 6.29356C12.6398 6.29356 12.5495 6.20403 12.5488 6.09341C12.5468 5.76981 12.283 5.50845 11.9593 5.5111C11.6357 5.5131 11.375 5.77704 11.3769 6.10064C11.3808 6.72583 11.8041 7.25177 12.3778 7.41372V7.44208C12.3778 7.76567 12.6402 8.02802 12.9637 8.02802C13.2873 8.02802 13.5496 7.76567 13.5496 7.44208V7.41251C13.7779 7.34923 13.9869 7.22751 14.1578 7.05438C14.4157 6.79321 14.5564 6.44728 14.5539 6.07935V6.07567C14.5509 5.64591 14.3429 5.23669 13.9973 4.98106L12.627 3.96728C12.4714 3.85212 12.5531 3.60399 12.747 3.60399H13.1777C13.2889 3.60399 13.3794 3.69435 13.3794 3.8054C13.3794 4.12899 13.6417 4.39134 13.9653 4.39134C14.2888 4.39134 14.5512 4.12899 14.5512 3.8054C14.5512 3.17708 14.1267 2.6463 13.5496 2.48372V2.45552C13.5496 2.13192 13.2872 1.86958 12.9637 1.86958C12.6401 1.86958 12.3778 2.13192 12.3778 2.45552V2.48294C11.7993 2.64462 11.3735 3.17606 11.3735 3.8054C11.3735 4.2388 11.5816 4.65146 11.93 4.90931Z" fill="inherit"/>
<path d="M12.9637 9.89634C15.6925 9.89634 17.9125 7.67689 17.9125 4.94876C17.9125 2.22064 15.6925 0.0012207 12.9637 0.0012207C10.2349 0.0012207 8.01488 2.22067 8.01488 4.9488C8.01488 7.67692 10.2349 9.89634 12.9637 9.89634ZM12.9637 1.1731C15.0464 1.1731 16.7407 2.86688 16.7407 4.9488C16.7407 7.03071 15.0464 8.7245 12.9637 8.7245C10.8811 8.7245 9.18672 7.03071 9.18672 4.9488C9.18672 2.86688 10.8811 1.1731 12.9637 1.1731Z" fill="inherit"/>
<path d="M19.5971 11.2194C18.9634 10.4036 17.8193 10.2501 16.9958 10.8214L14.7664 12.3129C14.4566 11.736 13.8475 11.3428 13.1481 11.3428H11.5578C10.7551 10.5899 9.6834 10.1625 8.57801 10.1625C7.74836 10.1625 6.94129 10.3968 6.24414 10.8403C5.61598 11.2399 5.10215 11.7918 4.74906 12.4434L4.45055 12.626L4.37321 12.3998C4.26852 12.0936 3.93555 11.9302 3.62938 12.0349L0.396604 13.1395C0.0905495 13.2441 -0.0730443 13.5773 0.0316432 13.8835L1.98762 19.6047C2.09235 19.911 2.42543 20.0742 2.73145 19.9696L5.96422 18.8651C6.25293 18.7664 6.44207 18.4513 6.3227 18.1021L11.4524 17.9433C12.8494 17.9414 14.1891 17.5124 15.3271 16.7024L19.1955 13.9508C20.0824 13.3195 20.2655 12.0793 19.5971 11.2194ZM2.90692 18.6713L1.33004 14.059L3.45391 13.3333C3.6827 14.0025 4.79465 17.2549 5.03078 17.9456L2.90692 18.6713ZM18.5162 12.9959L14.6477 15.7475C13.7067 16.4174 12.5985 16.7714 11.4431 16.7714C11.4371 16.7714 11.431 16.7715 11.425 16.7717L5.92606 16.9418L4.83895 13.762L5.49969 13.358C5.49953 13.3581 5.49985 13.3579 5.49969 13.358C5.59696 13.2984 5.67344 13.2108 5.71985 13.1162C6.2591 12.0171 7.3543 11.3343 8.57801 11.3343C9.46231 11.3343 10.2836 11.6883 10.8907 12.3311C11.0025 12.4495 11.1631 12.5146 11.3167 12.5146H13.1481C13.5142 12.5146 13.812 12.8122 13.812 13.1781C13.812 13.5402 13.5191 13.8417 13.1481 13.8417H9.84227C9.51867 13.8417 9.25637 14.104 9.25637 14.4276C9.25637 14.7512 9.51871 15.0136 9.84227 15.0136H13.1481C13.6388 15.0136 14.0999 14.8225 14.4459 14.4759C14.6881 14.2339 14.8539 13.9361 14.9322 13.6118L17.6518 11.7924C17.6551 11.7902 17.6583 11.7879 17.6616 11.7857C17.9823 11.5617 18.4265 11.6226 18.6718 11.9384C18.9304 12.2712 18.8597 12.7514 18.5162 12.9959Z" fill="inherit"/>
</svg>
