<svg viewBox="0 0 20 20" xmlns="http://www.w3.org/2000/svg">
<path d="M19.8284 4.2129C19.9655 4.07584 20.0259 3.87985 19.9897 3.6894C19.9536 3.49895 19.8255 3.3387 19.6478 3.2614L17.6728 2.40239L16.9797 0.40097C16.9136 0.210249 16.754 0.0669439 16.5573 0.0217145C16.3607 -0.0234368 16.1545 0.0356974 16.0118 0.178416L14.8945 1.29564C13.3913 0.463971 11.6684 0.00948929 9.99317 0.00948929C7.32389 0.00948929 4.8144 1.04895 2.92691 2.93643C1.03942 4.82392 0 7.33338 0 10.0026C0 12.6719 1.03946 15.1814 2.92695 17.0688C4.8144 18.9563 7.32393 19.9958 9.99321 19.9958C12.6625 19.9958 15.172 18.9563 17.0595 17.0688C18.9469 15.1814 19.9864 12.6719 19.9864 10.0026C19.9864 8.33979 19.5728 6.70801 18.7869 5.25442L19.8284 4.2129ZM15.7247 6.6595L14.5139 6.33458L17.3342 3.53289L18.3915 3.99276L15.7247 6.6595ZM15.5041 10.0026C15.5041 13.0413 13.0319 15.5135 9.99317 15.5135C6.95443 15.5135 4.48224 13.0413 4.48224 10.0026C4.48224 6.96388 6.95443 4.49169 9.99317 4.49169C10.9082 4.49169 11.688 4.67222 12.4346 5.05773L12.7367 6.44836L11.9938 7.1864C11.4288 6.78387 10.7382 6.5469 9.99313 6.5469C8.08759 6.5469 6.53737 8.09712 6.53737 10.0027C6.53737 11.9082 8.08759 13.4584 9.99313 13.4584C11.8987 13.4584 13.4489 11.9082 13.4489 10.0027C13.4489 9.26434 13.216 8.57941 12.82 8.01728L13.5524 7.28975L14.9933 7.67642C15.3411 8.38877 15.5041 9.13166 15.5041 10.0026ZM12.2772 10.0026C12.2772 11.262 11.2526 12.2866 9.99317 12.2866C8.73377 12.2866 7.70916 11.262 7.70916 10.0026C7.70916 8.74322 8.73377 7.71861 9.99317 7.71861C10.4126 7.71861 10.8056 7.83273 11.1438 8.03084L9.55981 9.60438C9.33027 9.8324 9.32906 10.2034 9.55708 10.4329C9.6716 10.5482 9.82213 10.6059 9.97274 10.6059C10.122 10.6059 10.2714 10.5492 10.3856 10.4357L11.9703 8.86137C12.1651 9.19747 12.2772 9.58707 12.2772 10.0026ZM16.1786 1.6686L16.5292 2.68084L13.723 5.46858L13.4831 4.36421L16.1786 1.6686ZM18.8146 10.0026C18.8146 12.3589 17.897 14.5741 16.2308 16.2403C14.5647 17.9064 12.3494 18.824 9.99317 18.824C7.6369 18.824 5.42163 17.9064 3.75549 16.2403C2.08934 14.5741 1.17175 12.3589 1.17175 10.0026C1.17175 7.64631 2.08934 5.43108 3.75549 3.76498C5.42163 2.09883 7.6369 1.18124 9.99317 1.18124C11.3628 1.18124 12.7703 1.52632 14.0279 2.16222L12.4283 3.76181C12.4268 3.76338 12.4254 3.76502 12.4238 3.76658C11.6722 3.46696 10.8706 3.31995 9.99313 3.31995C6.3083 3.31995 3.31046 6.31778 3.31046 10.0026C3.31046 13.6874 6.3083 16.6853 9.99313 16.6853C13.678 16.6853 16.6758 13.6874 16.6758 10.0026C16.6758 9.17755 16.5532 8.44368 16.2954 7.74403C16.3016 7.73841 16.308 7.73321 16.314 7.72728L17.9172 6.12402C18.5061 7.32615 18.8146 8.65272 18.8146 10.0026Z" fill="inherit"/>
</svg>
