<svg viewBox="0 0 20 20" xmlns="http://www.w3.org/2000/svg">
<path d="M3.60386 2.71853L3.60112 2.7154C3.53187 2.64672 3.44977 2.59234 3.3595 2.55538C3.26923 2.51842 3.17257 2.49961 3.07503 2.50001C2.97749 2.50041 2.88098 2.52001 2.79102 2.55771C2.70106 2.5954 2.6194 2.65045 2.55071 2.7197C2.48203 2.78895 2.42765 2.87106 2.39069 2.96133C2.35373 3.05159 2.33492 3.14826 2.33532 3.2458C2.33612 3.44279 2.41515 3.63139 2.55501 3.77011L3.67495 4.89005C2.31677 5.82025 1.14771 7.00005 0.22997 8.36668C0.0801034 8.58795 0 8.84906 0 9.1163C0 9.38354 0.0801034 9.64465 0.22997 9.86592C2.57259 13.3332 6.28633 15.3645 10.0001 15.3391C11.203 15.3434 12.3979 15.1432 13.5337 14.7469L15.3466 16.5598C15.4863 16.695 15.6735 16.7699 15.8678 16.7686C16.0622 16.7673 16.2483 16.6898 16.3861 16.5527C16.524 16.4157 16.6025 16.23 16.6049 16.0356C16.6073 15.8413 16.5334 15.6537 16.399 15.5133L3.60386 2.71853ZM10.0001 13.323C9.29646 13.3228 8.60413 13.1462 7.98637 12.8094C7.3686 12.4726 6.84508 11.9863 6.46367 11.3951C6.08225 10.8038 5.8551 10.1264 5.80296 9.42474C5.75083 8.72306 5.87538 8.01951 6.16523 7.37838L7.33518 8.54832C7.24094 8.99239 7.25915 9.45297 7.38815 9.88821C7.51715 10.3235 7.75286 10.7196 8.07385 11.0406C8.39485 11.3616 8.79096 11.5973 9.22621 11.7263C9.66145 11.8553 10.122 11.8735 10.5661 11.7792L11.736 12.9492C11.1907 13.1964 10.5988 13.3239 10.0001 13.323Z" fill="inherit"/>
<path d="M19.7702 8.36472C17.4275 4.89552 13.7138 2.86424 10.0001 2.88963C8.79713 2.88527 7.6022 3.08552 6.46641 3.48182L8.26332 5.27873C9.04305 4.92587 9.91181 4.81902 10.7538 4.97242C11.5958 5.12583 12.3711 5.5322 12.9762 6.13739C13.5814 6.74257 13.9878 7.51782 14.1412 8.35982C14.2946 9.20183 14.1878 10.0706 13.8349 10.8503L16.3248 13.3402C17.6832 12.4102 18.8524 11.2303 19.7702 9.86358C19.9199 9.64235 20 9.38132 20 9.11415C20 8.84699 19.9199 8.58595 19.7702 8.36472Z" fill="inherit"/>
<path d="M10.0001 6.39008C9.80984 6.3901 9.62013 6.41 9.43404 6.44946L12.665 9.67998C12.7492 9.28306 12.7437 8.87234 12.6489 8.47781C12.5541 8.08328 12.3724 7.71491 12.117 7.39961C11.8616 7.08431 11.539 6.83004 11.1727 6.65538C10.8065 6.48072 10.4058 6.39008 10.0001 6.39008Z" fill="inherit"/>
</svg>
