<svg viewBox="0 0 20 20" xmlns="http://www.w3.org/2000/svg">
<path d="M9.43454 9.21247H2.09707C1.72207 9.21247 1.37207 8.98747 1.23457 8.63747C1.09707 8.28747 1.17207 7.88747 1.43457 7.61247L7.17205 1.87499H1.93457C1.42207 1.87499 0.99707 1.44999 0.99707 0.937497C0.99707 0.424998 1.42207 0 1.93457 0H9.43454C9.80954 0 10.1595 0.224999 10.297 0.574998C10.447 0.924997 10.3595 1.3375 10.097 1.59999L4.35956 7.33747H9.43454C9.94704 7.33747 10.372 7.76247 10.372 8.27497C10.372 8.79997 9.94704 9.21247 9.43454 9.21247Z" fill="inherit"/>
<path d="M18.9593 12.4999H12.9344C12.5594 12.4999 12.2094 12.2749 12.0719 11.9249C11.9219 11.5749 12.0094 11.1749 12.2719 10.8999L16.6968 6.4874H12.8094C12.2969 6.4874 11.8719 6.06241 11.8719 5.54991C11.8719 5.03741 12.2969 4.61241 12.8094 4.61241H18.9593C19.3343 4.61241 19.6843 4.83741 19.8218 5.18741C19.9718 5.53741 19.8843 5.93741 19.6218 6.2124L15.1969 10.6249H18.9593C19.4718 10.6249 19.8968 11.0499 19.8968 11.5624C19.8968 12.0749 19.4843 12.4999 18.9593 12.4999Z" fill="inherit"/>
<path d="M9.96032 20H5.03534C4.66034 20 4.31034 19.775 4.17284 19.425C4.02284 19.075 4.11034 18.675 4.37284 18.4L7.69783 15.075H4.92284C4.41034 15.075 3.98534 14.65 3.98534 14.1375C3.98534 13.625 4.41034 13.2 4.92284 13.2H9.94782C10.3228 13.2 10.6728 13.425 10.8103 13.775C10.9603 14.125 10.8728 14.525 10.6103 14.8L7.29783 18.125H9.96032C10.4728 18.125 10.8978 18.55 10.8978 19.0625C10.8978 19.575 10.4728 20 9.96032 20Z" fill="inherit"/>
</svg>
