<svg viewBox="0 0 20 20" xmlns="http://www.w3.org/2000/svg">
<path d="M4.65548 6.43539H0.640452C0.462258 6.43539 0.317871 6.57984 0.317871 6.75797V19.6565C0.317871 19.8347 0.462258 19.9791 0.640452 19.9791H4.65548C4.83368 19.9791 4.97806 19.8347 4.97806 19.6565V6.75797C4.97806 6.57984 4.83368 6.43539 4.65548 6.43539Z" fill="inherit"/>
<path d="M2.64942 0.0231934C1.18852 0.0231934 0 1.21042 0 2.66971C0 4.12965 1.18852 5.31732 2.64942 5.31732C4.10916 5.31732 5.29671 4.12958 5.29671 2.66971C5.29677 1.21042 4.10916 0.0231934 2.64942 0.0231934Z" fill="inherit"/>
<path d="M14.868 6.11481C13.2554 6.11481 12.0634 6.80803 11.3403 7.59571V6.75797C11.3403 6.57984 11.1959 6.43539 11.0177 6.43539H7.17264C6.99445 6.43539 6.85006 6.57984 6.85006 6.75797V19.6565C6.85006 19.8347 6.99445 19.9791 7.17264 19.9791H11.1789C11.3571 19.9791 11.5015 19.8347 11.5015 19.6565V13.2747C11.5015 11.1242 12.0856 10.2864 13.5847 10.2864C15.2174 10.2864 15.3471 11.6295 15.3471 13.3854V19.6566C15.3471 19.8348 15.4915 19.9792 15.6697 19.9792H19.6774C19.8556 19.9792 20 19.8348 20 19.6566V12.5815C20 9.38377 19.3903 6.11481 14.868 6.11481Z" fill="inherit"/>
</svg>
