<svg viewBox="0 0 20 20" xmlns="http://www.w3.org/2000/svg">
<path d="M13.5371 14.5401C13.3404 14.5395 13.1483 14.4809 12.9848 14.3717C12.8212 14.2624 12.6936 14.1074 12.6177 13.926C12.5418 13.7445 12.5211 13.5448 12.5582 13.3516C12.5952 13.1585 12.6884 12.9806 12.8261 12.8401C13.5761 12.0864 13.9972 11.0664 13.9972 10.0031C13.9972 8.9398 13.5761 7.91977 12.8261 7.16607C12.6447 6.97649 12.5451 6.72322 12.5487 6.46087C12.5524 6.19852 12.659 5.94812 12.8456 5.76364C13.0321 5.57917 13.2837 5.47541 13.5461 5.47474C13.8085 5.47407 14.0606 5.57654 14.2481 5.76006C15.3684 6.88802 15.9972 8.4133 15.9972 10.0031C15.9972 11.5929 15.3684 13.1182 14.2481 14.2461C14.1549 14.3396 14.044 14.4138 13.922 14.4642C13.8 14.5147 13.6692 14.5405 13.5371 14.5401ZM7.16005 14.2511C7.34859 14.0647 7.45534 13.8109 7.45684 13.5458C7.45834 13.2806 7.35446 13.0257 7.16805 12.8371C6.41803 12.0834 5.99699 11.0634 5.99699 10.0001C5.99699 8.9368 6.41803 7.91677 7.16805 7.16307C7.26289 7.07025 7.33831 6.95948 7.38991 6.83721C7.44151 6.71495 7.46826 6.58364 7.4686 6.45094C7.46894 6.31823 7.44286 6.18678 7.39189 6.06426C7.34091 5.94173 7.26606 5.83058 7.1717 5.73727C7.07733 5.64397 6.96534 5.57038 6.84224 5.5208C6.71915 5.47121 6.58742 5.44662 6.45472 5.44846C6.32203 5.45031 6.19103 5.47854 6.06936 5.53152C5.94769 5.5845 5.83778 5.66117 5.74604 5.75706C4.62571 6.88502 3.99695 8.4103 3.99695 10.0001C3.99695 11.5899 4.62571 13.1152 5.74604 14.2431C5.9325 14.4317 6.18622 14.5384 6.45139 14.5399C6.71655 14.5414 6.97146 14.4375 7.16005 14.2511ZM17.4291 16.6711C19.082 14.8424 19.9971 12.4651 19.9971 10.0001C19.9971 7.53507 19.082 5.15782 17.4291 3.32904C17.2512 3.13238 17.0024 3.01447 16.7375 3.00124C16.4726 2.98802 16.2133 3.08057 16.0166 3.25854C15.82 3.4365 15.7021 3.68529 15.6888 3.95019C15.6756 4.21509 15.7682 4.47439 15.9461 4.67105C17.2662 6.13208 17.997 8.03105 17.997 10.0001C17.997 11.9691 17.2662 13.8681 15.9461 15.3291C15.7682 15.5258 15.6756 15.7851 15.6888 16.05C15.7021 16.3149 15.82 16.5637 16.0166 16.7416C16.2133 16.9196 16.4726 17.0122 16.7375 16.9989C17.0024 16.9857 17.2512 16.8678 17.4291 16.6711ZM3.97702 16.7411C4.17361 16.5633 4.29152 16.3146 4.30483 16.0498C4.31815 15.7851 4.22578 15.5258 4.04802 15.3291C2.72798 13.8681 1.99717 11.9691 1.99717 10.0001C1.99717 8.03105 2.72798 6.13208 4.04802 4.67105C4.13614 4.57367 4.20422 4.45989 4.24836 4.33621C4.29251 4.21252 4.31186 4.08135 4.30531 3.95019C4.29877 3.81903 4.26645 3.69044 4.21021 3.57176C4.15396 3.45309 4.0749 3.34665 3.97752 3.25854C3.88015 3.17042 3.76637 3.10234 3.64268 3.0582C3.519 3.01405 3.38783 2.9947 3.25666 3.00124C2.99177 3.01447 2.74297 3.13238 2.56501 3.32904C0.912164 5.15782 -0.00292969 7.53507 -0.00292969 10.0001C-0.00292969 12.4651 0.912164 14.8424 2.56501 16.6711C2.74302 16.8676 2.99175 16.9853 3.25653 16.9984C3.5213 17.0116 3.78046 16.919 3.97702 16.7411ZM9.99707 8.50008C9.7004 8.50008 9.41039 8.58805 9.16371 8.75288C8.91703 8.9177 8.72477 9.15197 8.61124 9.42606C8.49771 9.70015 8.468 10.0018 8.52588 10.2927C8.58376 10.5837 8.72662 10.851 8.9364 11.0608C9.14618 11.2705 9.41346 11.4134 9.70443 11.4713C9.99541 11.5292 10.297 11.4995 10.5711 11.3859C10.8452 11.2724 11.0795 11.0801 11.2443 10.8335C11.4091 10.5868 11.4971 10.2968 11.4971 10.0001C11.4971 9.60226 11.339 9.22073 11.0577 8.93942C10.7764 8.65811 10.3949 8.50008 9.99707 8.50008Z" fill="inherit"/>
</svg>
