<svg viewBox="0 0 20 20" xmlns="http://www.w3.org/2000/svg">
<path d="M19.697 9.26848L15.7957 5.36724C15.6997 5.27117 15.5856 5.19497 15.4601 5.14298C15.3346 5.09098 15.2001 5.06423 15.0642 5.06423C14.9284 5.06423 14.7938 5.09098 14.6683 5.14298C14.5428 5.19497 14.4288 5.27117 14.3327 5.36724C14.1387 5.56124 14.0297 5.82436 14.0297 6.09872C14.0297 6.37308 14.1387 6.63621 14.3327 6.83021L16.468 8.96551H5.17241C4.89805 8.96551 4.63492 9.0745 4.44092 9.2685C4.24692 9.46251 4.13793 9.72563 4.13793 9.99999C4.13793 10.2744 4.24692 10.5375 4.44092 10.7315C4.63492 10.9255 4.89805 11.0345 5.17241 11.0345H16.468L14.3327 13.1698C14.1387 13.3638 14.0297 13.6269 14.0297 13.9013C14.0297 14.1756 14.1387 14.4388 14.3327 14.6328C14.5267 14.8268 14.7899 14.9358 15.0642 14.9358C15.3386 14.9357 15.6017 14.8268 15.7957 14.6327L19.697 10.7315C19.891 10.5375 20 10.2743 20 9.99997C20 9.72561 19.891 9.46249 19.697 9.26848Z" fill="inherit"/>
<path d="M12.069 15.8621C11.7946 15.8621 11.5315 15.971 11.3375 16.165C11.1435 16.3591 11.0345 16.6222 11.0345 16.8965V17.931H2.06896V2.06896H11.0345V3.10345C11.0345 3.37781 11.1435 3.64093 11.3375 3.83493C11.5315 4.02894 11.7946 4.13793 12.069 4.13793C12.3433 4.13793 12.6064 4.02894 12.8004 3.83493C12.9944 3.64093 13.1034 3.37781 13.1034 3.10345V1.72414C13.1034 1.49772 13.0588 1.27352 12.9722 1.06434C12.8855 0.855156 12.7586 0.665089 12.5985 0.504988C12.4383 0.344887 12.2483 0.217888 12.0391 0.131242C11.8299 0.0445961 11.6057 0 11.3793 0H1.72414C1.26687 0 0.828326 0.18165 0.504988 0.504988C0.18165 0.828326 0 1.26687 0 1.72414V18.2758C0 18.7331 0.18165 19.1717 0.504988 19.495C0.828326 19.8183 1.26687 20 1.72414 20H11.3793C11.6057 20 11.8299 19.9554 12.0391 19.8687C12.2483 19.7821 12.4383 19.6551 12.5985 19.495C12.7586 19.3349 12.8855 19.1448 12.9722 18.9356C13.0588 18.7265 13.1034 18.5023 13.1034 18.2758V16.8965C13.1034 16.6222 12.9944 16.3591 12.8004 16.165C12.6064 15.971 12.3433 15.8621 12.069 15.8621Z" fill="inherit"/>
</svg>
