<svg viewBox="0 0 231 40" xmlns="http://www.w3.org/2000/svg">
<path d="M54.226 25.9684V4.10416H58.4527V25.9684H54.226ZM56.9551 25.9684V22.5231H70.6338V25.9684H56.9551ZM56.9551 16.4607V13.2805H69.003V16.4607H56.9551ZM56.9551 7.54938V4.10416H70.5672V7.54938H56.9551ZM73.1648 25.9684L80.6531 15.0362L73.2646 4.10416H78.1904L83.4491 12.6842H83.6151L88.9073 4.10416H93.866L86.4439 14.9369L94.0655 25.9684H89.1402L83.6151 17.2226H83.4491L78.0905 25.9684H73.1648ZM95.5891 25.9684L103.177 4.10416H109.335L116.923 25.9684H112.33L106.505 7.45004H106.04L100.149 25.9684H95.5891ZM99.6161 21.463V18.5146H113.462V21.463H99.6161ZM129.144 26.3991C127.48 26.3991 125.993 26.1671 124.684 25.7033C123.375 25.2174 122.266 24.5107 121.356 23.5832C120.447 22.6335 119.747 21.463 119.26 20.0717C118.771 18.6803 118.527 17.0902 118.527 15.3013C118.527 13.4461 118.771 11.8008 119.26 10.3652C119.769 8.92975 120.479 7.71502 121.39 6.72119C122.299 5.70528 123.386 4.94339 124.651 4.43544C125.916 3.92749 127.325 3.67347 128.878 3.67347C130.076 3.67347 131.185 3.82807 132.206 4.13727C133.227 4.44648 134.103 4.91028 134.835 5.5286C135.589 6.12494 136.177 6.85371 136.599 7.71502C137.021 8.55425 137.242 9.51497 137.265 10.5972L133.337 11.6241C133.36 10.6303 133.149 9.80209 132.705 9.13954C132.261 8.47699 131.685 7.98007 130.975 7.64879C130.287 7.31752 129.543 7.15188 128.745 7.15188C128.035 7.15188 127.325 7.29544 126.615 7.58257C125.926 7.86962 125.306 8.32238 124.751 8.94079C124.196 9.55911 123.753 10.3763 123.42 11.3922C123.086 12.386 122.921 13.6118 122.921 15.0694C122.921 16.9245 123.186 18.4263 123.719 19.5748C124.273 20.7232 125.028 21.5735 125.982 22.1256C126.959 22.6556 128.057 22.9206 129.277 22.9206C130.52 22.9206 131.507 22.6777 132.239 22.1918C132.971 21.6838 133.504 21.0213 133.837 20.2041C134.169 19.3649 134.358 18.4594 134.402 17.4877L138.097 18.1171C138.074 19.2656 137.897 20.3477 137.564 21.3636C137.231 22.3795 136.71 23.263 136 24.0138C135.312 24.7647 134.402 25.35 133.271 25.7696C132.139 26.1892 130.764 26.3991 129.144 26.3991ZM146.314 25.9684V4.10416H150.541V25.9684H146.314ZM139.79 7.64879V4.10416H157.097V7.64879H139.79ZM160.376 25.9684V4.10416H164.57V25.9684H160.376ZM161.341 25.9684V22.3906H174.188V25.9684H161.341ZM179.912 25.9684V19.0778L171.958 4.10416H176.95L181.942 15.2019H182.109L187.068 4.10416H192.027L184.139 19.0115V25.9684H179.912ZM200.992 25.9684L208.58 4.10416H214.737L222.325 25.9684H217.733L211.908 7.45004H211.443L205.551 25.9684H200.992ZM205.019 21.463V18.5146H218.864V21.463H205.019ZM225.607 25.9684V4.10416H229.867V25.9684H225.607Z" fill="inherit"/>
<path d="M57.55 39.5918C57.0054 39.5918 56.5153 39.5377 56.0795 39.4292C55.6523 39.3292 55.2835 39.1749 54.9735 38.9664C54.6719 38.7495 54.4331 38.4826 54.2572 38.1657C54.0896 37.8405 53.9933 37.4693 53.9681 37.0524L55.5517 36.5395C55.5684 36.9148 55.6606 37.2276 55.8282 37.4777C56.0041 37.7279 56.2513 37.9114 56.5697 38.0281C56.8881 38.1449 57.2441 38.2033 57.638 38.2033C58.015 38.2033 58.3334 38.1574 58.5931 38.0657C58.8529 37.974 59.0498 37.853 59.1838 37.7029C59.3179 37.5445 59.3849 37.3735 59.3849 37.19C59.3849 36.9731 59.3011 36.7981 59.1335 36.6646C58.966 36.5312 58.7355 36.4186 58.4423 36.3268C58.1574 36.2351 57.8306 36.1475 57.462 36.0641C57.0515 35.9724 56.6451 35.8681 56.2429 35.7513C55.8491 35.6346 55.4889 35.4845 55.1621 35.301C54.8437 35.1175 54.5882 34.8799 54.3954 34.588C54.2111 34.2961 54.1189 33.9292 54.1189 33.4871C54.1189 32.9784 54.2446 32.5405 54.496 32.1736C54.7557 31.7983 55.1328 31.5064 55.6271 31.2979C56.1214 31.0894 56.7163 30.9851 57.4117 30.9851C58.1155 30.9851 58.7146 31.0894 59.209 31.2979C59.7116 31.4981 60.1012 31.7858 60.3777 32.1611C60.6542 32.5281 60.8051 32.9659 60.8302 33.4746L59.1964 33.925C59.1964 33.6664 59.1545 33.4412 59.0707 33.2495C58.9869 33.0576 58.8696 32.8991 58.7188 32.7741C58.568 32.6407 58.3795 32.5405 58.1533 32.4738C57.9354 32.4071 57.684 32.3738 57.3991 32.3738C57.0724 32.3738 56.7875 32.4155 56.5445 32.4988C56.31 32.5822 56.1298 32.6948 56.0041 32.8366C55.8869 32.9784 55.8282 33.1452 55.8282 33.337C55.8282 33.5622 55.9204 33.7498 56.1047 33.8999C56.2974 34.0417 56.5488 34.1585 56.8588 34.2502C57.1771 34.3419 57.5249 34.4295 57.9019 34.5129C58.2621 34.588 58.6266 34.6839 58.9953 34.8006C59.3724 34.909 59.72 35.055 60.0385 35.2385C60.3652 35.4136 60.625 35.6555 60.8176 35.9641C61.0187 36.2643 61.1192 36.6438 61.1192 37.1024C61.1192 37.6028 60.9852 38.0407 60.7171 38.4159C60.449 38.7913 60.0468 39.0832 59.5106 39.2916C58.9827 39.4918 58.3292 39.5918 57.55 39.5918ZM79.5737 39.5918C78.9703 39.5918 78.4299 39.5001 77.9523 39.3166C77.4748 39.1249 77.0642 38.8496 76.7207 38.491C76.3855 38.124 76.1258 37.6779 75.9414 37.1524C75.7655 36.6187 75.6775 36.0099 75.6775 35.326C75.6775 34.3502 75.8493 33.5455 76.1928 32.9117C76.5363 32.2695 77.0055 31.79 77.6004 31.473C78.2037 31.1478 78.8824 30.9851 79.6367 30.9851C80.2231 30.9851 80.7551 31.0811 81.2322 31.2729C81.71 31.4563 82.1161 31.7316 82.452 32.0986C82.795 32.4572 83.059 32.9075 83.2433 33.4496C83.4276 33.9833 83.5201 34.5963 83.5201 35.2885C83.5201 35.9974 83.4276 36.6187 83.2433 37.1524C83.059 37.6862 82.791 38.1366 82.4392 38.5035C82.0954 38.8621 81.6805 39.1332 81.1947 39.3166C80.7089 39.5001 80.1688 39.5918 79.5737 39.5918ZM79.624 38.1533C80.0683 38.1533 80.4408 38.0448 80.7424 37.828C81.0439 37.6112 81.2745 37.2984 81.4332 36.8898C81.5928 36.4811 81.6726 35.9807 81.6726 35.3886C81.6726 34.7714 81.5888 34.2461 81.4213 33.8124C81.2617 33.3787 81.0272 33.0493 80.7169 32.8241C80.4073 32.5906 80.03 32.4738 79.5865 32.4738C79.1504 32.4738 78.7776 32.5864 78.4676 32.8116C78.166 33.0284 77.9314 33.3453 77.7638 33.7623C77.6046 34.1793 77.525 34.6964 77.525 35.3135C77.525 35.7639 77.5711 36.1684 77.6633 36.527C77.7638 36.8772 77.902 37.1733 78.078 37.4152C78.2539 37.6571 78.4718 37.8405 78.7315 37.9656C78.9913 38.0907 79.2887 38.1533 79.624 38.1533ZM98.4969 39.4167V31.1603H100.307V39.4167H98.4969ZM98.8742 39.4167V37.9031H103.813V39.4167H98.8742ZM121.837 39.5918C121.326 39.5918 120.87 39.5377 120.467 39.4292C120.073 39.3292 119.73 39.1832 119.437 38.9914C119.143 38.7913 118.896 38.5535 118.695 38.2783C118.502 37.9948 118.356 37.6779 118.255 37.3276C118.163 36.9774 118.117 36.5937 118.117 36.1767V31.1603H119.939V36.1141C119.939 36.5395 120.006 36.8939 120.14 37.1775C120.282 37.4527 120.492 37.6571 120.769 37.7905C121.045 37.9239 121.397 37.9906 121.824 37.9906C122.26 37.9906 122.616 37.9239 122.893 37.7905C123.177 37.6571 123.387 37.4527 123.521 37.1775C123.663 36.8939 123.735 36.5395 123.735 36.1141V31.1603H125.532V36.1767C125.532 37.2609 125.222 38.1032 124.602 38.7037C123.99 39.2958 123.069 39.5918 121.837 39.5918ZM142.518 39.4167V31.1603H144.328V39.4167H142.518ZM140.067 32.674V31.1603H146.779V32.674H140.067ZM161.386 39.4167V31.1603H163.234V39.4167H161.386ZM182.11 39.5918C181.507 39.5918 180.967 39.5001 180.489 39.3166C180.011 39.1249 179.601 38.8496 179.257 38.491C178.922 38.124 178.662 37.6779 178.478 37.1524C178.302 36.6187 178.214 36.0099 178.214 35.326C178.214 34.3502 178.386 33.5455 178.73 32.9117C179.073 32.2695 179.542 31.79 180.137 31.473C180.74 31.1478 181.419 30.9851 182.173 30.9851C182.759 30.9851 183.291 31.0811 183.769 31.2729C184.247 31.4563 184.653 31.7316 184.988 32.0986C185.332 32.4572 185.596 32.9075 185.78 33.4496C185.964 33.9833 186.056 34.5963 186.056 35.2885C186.056 35.9974 185.964 36.6187 185.78 37.1524C185.596 37.6862 185.328 38.1366 184.975 38.5035C184.632 38.8621 184.217 39.1332 183.731 39.3166C183.246 39.5001 182.705 39.5918 182.11 39.5918ZM182.16 38.1533C182.604 38.1533 182.977 38.0448 183.279 37.828C183.581 37.6112 183.811 37.2984 183.97 36.8898C184.13 36.4811 184.209 35.9807 184.209 35.3886C184.209 34.7714 184.125 34.2461 183.957 33.8124C183.798 33.3787 183.564 33.0493 183.254 32.8241C182.943 32.5906 182.567 32.4738 182.122 32.4738C181.687 32.4738 181.314 32.5864 181.004 32.8116C180.702 33.0284 180.468 33.3453 180.3 33.7623C180.141 34.1793 180.061 34.6964 180.061 35.3135C180.061 35.7639 180.107 36.1684 180.2 36.527C180.3 36.8772 180.438 37.1733 180.615 37.4152C180.79 37.6571 181.008 37.8405 181.268 37.9656C181.527 38.0907 181.825 38.1533 182.16 38.1533ZM201.033 39.4167V31.1603H203.396L207.154 37.0024H207.292L207.179 31.1603H208.938V39.4167H206.802L202.83 33.2995H202.692L202.805 39.4167H201.033ZM227.431 39.5918C226.886 39.5918 226.396 39.5377 225.961 39.4292C225.533 39.3292 225.165 39.1749 224.854 38.9664C224.553 38.7495 224.314 38.4826 224.138 38.1657C223.97 37.8405 223.874 37.4693 223.849 37.0524L225.433 36.5395C225.449 36.9148 225.541 37.2276 225.709 37.4777C225.885 37.7279 226.132 37.9114 226.451 38.0281C226.769 38.1449 227.125 38.2033 227.519 38.2033C227.896 38.2033 228.214 38.1574 228.474 38.0657C228.734 37.974 228.931 37.853 229.065 37.7029C229.199 37.5445 229.266 37.3735 229.266 37.19C229.266 36.9731 229.182 36.7981 229.014 36.6646C228.847 36.5312 228.616 36.4186 228.323 36.3268C228.038 36.2351 227.712 36.1475 227.343 36.0641C226.932 35.9724 226.526 35.8681 226.123 35.7513C225.73 35.6346 225.37 35.4845 225.043 35.301C224.724 35.1175 224.469 34.8799 224.276 34.588C224.092 34.2961 224 33.9292 224 33.4871C224 32.9784 224.125 32.5405 224.377 32.1736C224.636 31.7983 225.014 31.5064 225.508 31.2979C226.002 31.0894 226.597 30.9851 227.293 30.9851C227.996 30.9851 228.596 31.0894 229.089 31.2979C229.593 31.4981 229.982 31.7858 230.259 32.1611C230.535 32.5281 230.686 32.9659 230.711 33.4746L229.077 33.925C229.077 33.6664 229.035 33.4412 228.951 33.2495C228.868 33.0576 228.75 32.8991 228.6 32.7741C228.449 32.6407 228.261 32.5405 228.034 32.4738C227.816 32.4071 227.565 32.3738 227.28 32.3738C226.953 32.3738 226.668 32.4155 226.425 32.4988C226.19 32.5822 226.011 32.6948 225.885 32.8366C225.768 32.9784 225.709 33.1452 225.709 33.337C225.709 33.5622 225.801 33.7498 225.985 33.8999C226.178 34.0417 226.43 34.1585 226.739 34.2502C227.058 34.3419 227.405 34.4295 227.783 34.5129C228.143 34.588 228.507 34.6839 228.876 34.8006C229.253 34.909 229.601 35.055 229.919 35.2385C230.246 35.4136 230.505 35.6555 230.698 35.9641C230.899 36.2643 231 36.6438 231 37.1024C231 37.6028 230.866 38.0407 230.598 38.4159C230.33 38.7913 229.928 39.0832 229.392 39.2916C228.864 39.4918 228.21 39.5918 227.431 39.5918Z" fill="inherit"/>
<path d="M18.779 23.643L11.3877 31.0218C10.6948 31.7135 10.6948 32.8354 11.3877 33.5271C12.0807 34.2189 13.2044 34.2189 13.8974 33.5271L18.779 28.6538C19.4719 27.962 20.5957 27.962 21.2887 28.6538L32.1344 39.4812C32.8273 40.1729 33.9511 40.1729 34.644 39.4812C35.337 38.7895 35.337 37.6676 34.644 36.9758L21.2887 23.643C20.5957 22.9512 19.4719 22.9512 18.779 23.643Z" fill="inherit"/>
<path d="M21.2884 16.357L28.6798 8.97825C29.3726 8.28648 29.3726 7.16459 28.6798 6.47289C27.9868 5.78112 26.863 5.78112 26.1701 6.47289L21.2884 11.3463C20.5956 12.038 19.4718 12.038 18.7788 11.3463L7.93305 0.518812C7.24011 -0.172937 6.11633 -0.172937 5.42341 0.518812C4.73048 1.21057 4.73048 2.33246 5.42341 3.02422L18.7788 16.357C19.4718 17.0488 20.5956 17.0488 21.2884 16.357Z" fill="inherit"/>
<path d="M28.7018 18.7474L39.5476 7.91994C40.2405 7.22817 40.2405 6.10628 39.5476 5.41451C38.8546 4.72281 37.7308 4.72281 37.038 5.41451L23.6825 18.7474C22.9896 19.4392 22.9896 20.5611 23.6825 21.2528L31.0738 28.6316C31.7667 29.3233 32.8905 29.3233 33.5835 28.6316C34.2764 27.9399 34.2764 26.818 33.5835 26.1262L28.7018 21.2528C28.0088 20.5611 28.0088 19.4392 28.7018 18.7474Z" fill="inherit"/>
<path d="M16.3847 18.7474L8.99346 11.3686C8.30052 10.6768 7.17674 10.6768 6.48382 11.3686C5.7909 12.0604 5.7909 13.1823 6.48382 13.874L11.3655 18.7474C12.0584 19.4392 12.0584 20.5611 11.3655 21.2528L0.519694 32.0802C-0.173231 32.772 -0.173231 33.8939 0.519694 34.5857C1.21262 35.2774 2.33641 35.2774 3.02933 34.5857L16.3847 21.2528C17.0777 20.5611 17.0777 19.4392 16.3847 18.7474Z" fill="inherit"/>
</svg>
