<svg width="320" height="56" viewBox="0 0 320 56" fill="none" xmlns="http://www.w3.org/2000/svg">
<path d="M75.1182 36.3557V5.74583H80.9735V36.3557H75.1182ZM78.8988 36.3557V31.5323H97.8477V36.3557H78.8988ZM78.8988 23.045V18.5927H95.5886V23.045H78.8988ZM78.8988 10.5691V5.74583H97.7555V10.5691H78.8988ZM101.354 36.3557L111.727 21.0507L101.492 5.74583H108.316L115.601 17.7578H115.83L123.162 5.74583H130.031L119.749 20.9116L130.307 36.3557H123.484L115.83 24.1117H115.601L108.177 36.3557H101.354ZM132.418 36.3557L142.93 5.74583H151.46L161.971 36.3557H155.608L147.54 10.4301H146.895L138.735 36.3557H132.418ZM137.996 30.0482V25.9205H157.176V30.0482H137.996ZM178.9 36.9587C176.595 36.9587 174.536 36.634 172.723 35.9846C170.909 35.3044 169.372 34.315 168.112 33.0165C166.853 31.6869 165.883 30.0482 165.208 28.1004C164.532 26.1524 164.194 23.9263 164.194 21.4218C164.194 18.8246 164.532 16.5211 165.208 14.5113C165.914 12.5017 166.898 10.801 168.159 9.40966C169.419 7.98739 170.925 6.92075 172.676 6.20961C174.429 5.49848 176.381 5.14286 178.532 5.14286C180.192 5.14286 181.728 5.3593 183.143 5.79218C184.556 6.22507 185.771 6.87439 186.784 7.74005C187.83 8.57491 188.644 9.5952 189.229 10.801C189.812 11.9759 190.119 13.321 190.15 14.836L184.71 16.2738C184.741 14.8824 184.449 13.7229 183.834 12.7954C183.219 11.8678 182.42 11.1721 181.437 10.7083C180.484 10.2445 179.454 10.0126 178.348 10.0126C177.364 10.0126 176.381 10.2136 175.397 10.6156C174.444 11.0175 173.584 11.6513 172.815 12.5171C172.047 13.3828 171.432 14.5268 170.971 15.949C170.509 17.3404 170.28 19.0565 170.28 21.0972C170.28 23.6944 170.648 25.7969 171.386 27.4047C172.154 29.0125 173.199 30.2029 174.521 30.9758C175.874 31.7178 177.395 32.0889 179.085 32.0889C180.807 32.0889 182.174 31.7487 183.188 31.0685C184.203 30.3574 184.941 29.4298 185.402 28.2858C185.862 27.1109 186.123 25.8432 186.185 24.4828L191.303 25.364C191.272 26.9718 191.027 28.4868 190.565 29.909C190.104 31.3313 189.382 32.5681 188.399 33.6193C187.445 34.6706 186.185 35.4899 184.618 36.0775C183.05 36.6649 181.145 36.9587 178.9 36.9587ZM202.686 36.3557V5.74583H208.541V36.3557H202.686ZM193.649 10.7083V5.74583H217.624V10.7083H193.649ZM222.166 36.3557V5.74583H227.975V36.3557H222.166ZM223.503 36.3557V31.3469H241.3V36.3557H223.503ZM249.229 36.3557V26.709L238.21 5.74583H245.125L252.041 21.2826H252.272L259.141 5.74583H266.012L255.085 26.6162V36.3557H249.229ZM278.431 36.3557L288.942 5.74583H297.472L307.983 36.3557H301.621L293.553 10.4301H292.908L284.746 36.3557H278.431ZM284.009 30.0482V25.9205H303.188V30.0482H284.009ZM312.53 36.3557V5.74583H318.431V36.3557H312.53Z" fill="#181C30"/>
<path d="M79.7229 55.4286C78.9685 55.4286 78.2895 55.3528 77.6859 55.2009C77.094 55.0608 76.5833 54.8448 76.1538 54.5529C75.736 54.2493 75.4052 53.8757 75.1614 53.432C74.9294 52.9767 74.7959 52.4571 74.7611 51.8733L76.9547 51.1553C76.9779 51.6807 77.1056 52.1186 77.3377 52.4688C77.5815 52.819 77.9238 53.076 78.3649 53.2394C78.806 53.4029 79.2992 53.4846 79.8448 53.4846C80.3671 53.4846 80.8081 53.4203 81.168 53.2919C81.5278 53.1635 81.8005 52.9942 81.9863 52.784C82.1719 52.5623 82.2648 52.3229 82.2648 52.066C82.2648 51.7624 82.1487 51.5173 81.9165 51.3304C81.6845 51.1437 81.3652 50.986 80.959 50.8575C80.5644 50.7291 80.1117 50.6065 79.601 50.4898C79.0324 50.3614 78.4694 50.2154 77.9122 50.0519C77.3668 49.8885 76.8677 49.6782 76.4151 49.4215C75.9739 49.1645 75.6199 48.8318 75.353 48.4232C75.0977 48.0145 74.9699 47.5008 74.9699 46.882C74.9699 46.1697 75.1441 45.5567 75.4923 45.043C75.8521 44.5177 76.3744 44.109 77.0592 43.8171C77.7439 43.5252 78.568 43.3792 79.5314 43.3792C80.5063 43.3792 81.3363 43.5252 82.0211 43.8171C82.7174 44.0973 83.2571 44.5001 83.6402 45.0255C84.0232 45.5393 84.2322 46.1523 84.267 46.8644L82.0036 47.4949C82.0036 47.133 81.9456 46.8177 81.8296 46.5492C81.7134 46.2807 81.551 46.0588 81.342 45.8837C81.1331 45.6969 80.872 45.5567 80.5586 45.4634C80.2568 45.37 79.9086 45.3233 79.514 45.3233C79.0613 45.3233 78.6667 45.3817 78.3301 45.4984C78.0052 45.6151 77.7555 45.7727 77.5815 45.9713C77.419 46.1697 77.3377 46.4033 77.3377 46.6717C77.3377 46.987 77.4655 47.2497 77.7207 47.4599C77.9877 47.6583 78.3359 47.8219 78.7654 47.9503C79.2064 48.0787 79.6881 48.2013 80.2104 48.3181C80.7095 48.4232 81.2144 48.5575 81.725 48.7209C82.2474 48.8726 82.729 49.077 83.1702 49.3339C83.6228 49.5791 83.9826 49.9177 84.2495 50.3497C84.5281 50.77 84.6674 51.3013 84.6674 51.9434C84.6674 52.644 84.4817 53.2569 84.1103 53.7823C83.7389 54.3078 83.1818 54.7164 82.4389 55.0083C81.7077 55.2885 80.8024 55.4286 79.7229 55.4286ZM110.232 55.4286C109.396 55.4286 108.647 55.3002 107.986 55.0433C107.324 54.7748 106.756 54.3895 106.28 53.8875C105.815 53.3737 105.456 52.749 105.2 52.0134C104.957 51.2662 104.835 50.4138 104.835 49.4565C104.835 48.0903 105.073 46.9637 105.548 46.0763C106.024 45.1773 106.674 44.506 107.498 44.0622C108.334 43.6069 109.274 43.3792 110.319 43.3792C111.132 43.3792 111.869 43.5135 112.529 43.7821C113.191 44.0389 113.754 44.4242 114.219 44.938C114.694 45.44 115.06 46.0704 115.315 46.8294C115.571 47.5766 115.699 48.4348 115.699 49.4039C115.699 50.3964 115.571 51.2662 115.315 52.0134C115.06 52.7607 114.689 53.3912 114.201 53.9049C113.725 54.407 113.151 54.7865 112.478 55.0433C111.805 55.3002 111.056 55.4286 110.232 55.4286ZM110.302 53.4146C110.917 53.4146 111.433 53.2627 111.851 52.9592C112.269 52.6556 112.588 52.2177 112.808 51.6457C113.029 51.0735 113.139 50.373 113.139 49.5441C113.139 48.68 113.023 47.9445 112.791 47.3373C112.57 46.7302 112.245 46.269 111.816 45.9537C111.387 45.6268 110.864 45.4634 110.25 45.4634C109.646 45.4634 109.129 45.621 108.7 45.9363C108.282 46.2397 107.957 46.6834 107.725 47.2673C107.504 47.851 107.394 48.5749 107.394 49.4389C107.394 50.0694 107.458 50.6357 107.585 51.1378C107.725 51.6281 107.916 52.0427 108.16 52.3813C108.404 52.7199 108.705 52.9767 109.065 53.1519C109.425 53.327 109.837 53.4146 110.302 53.4146ZM136.446 55.1834V43.6244H138.953V55.1834H136.446ZM136.969 55.1834V53.0643H143.81V55.1834H136.969ZM168.779 55.4286C168.07 55.4286 167.438 55.3528 166.88 55.2009C166.335 55.0608 165.859 54.8565 165.454 54.5879C165.047 54.3078 164.704 53.975 164.426 53.5897C164.158 53.1927 163.956 52.749 163.817 52.2587C163.689 51.7683 163.625 51.2311 163.625 50.6474V43.6244H166.15V50.5598C166.15 51.1553 166.243 51.6515 166.428 52.0484C166.625 52.4337 166.916 52.7199 167.299 52.9066C167.681 53.0935 168.169 53.1869 168.761 53.1869C169.364 53.1869 169.857 53.0935 170.241 52.9066C170.635 52.7199 170.926 52.4337 171.112 52.0484C171.308 51.6515 171.408 51.1553 171.408 50.5598V43.6244H173.896V50.6474C173.896 52.1653 173.468 53.3445 172.609 54.1852C171.761 55.0141 170.485 55.4286 168.779 55.4286ZM197.427 55.1834V43.6244H199.935V55.1834H197.427ZM194.032 45.7436V43.6244H203.33V45.7436H194.032ZM223.565 55.1834V43.6244H226.124V55.1834H223.565ZM252.273 55.4286C251.438 55.4286 250.69 55.3002 250.028 55.0433C249.366 54.7748 248.798 54.3895 248.321 53.8875C247.857 53.3737 247.497 52.749 247.242 52.0134C246.999 51.2662 246.877 50.4138 246.877 49.4565C246.877 48.0903 247.115 46.9637 247.591 46.0763C248.066 45.1773 248.716 44.506 249.54 44.0622C250.376 43.6069 251.316 43.3792 252.36 43.3792C253.173 43.3792 253.91 43.5135 254.572 43.7821C255.234 44.0389 255.796 44.4242 256.26 44.938C256.737 45.44 257.102 46.0704 257.358 46.8294C257.613 47.5766 257.74 48.4348 257.74 49.4039C257.74 50.3964 257.613 51.2662 257.358 52.0134C257.102 52.7607 256.731 53.3912 256.243 53.9049C255.767 54.407 255.193 54.7865 254.52 55.0433C253.847 55.3002 253.098 55.4286 252.273 55.4286ZM252.343 53.4146C252.958 53.4146 253.474 53.2627 253.893 52.9592C254.311 52.6556 254.63 52.2177 254.85 51.6457C255.071 51.0735 255.181 50.373 255.181 49.5441C255.181 48.68 255.065 47.9445 254.833 47.3373C254.613 46.7302 254.288 46.269 253.858 45.9537C253.428 45.6268 252.906 45.4634 252.291 45.4634C251.687 45.4634 251.171 45.621 250.741 45.9363C250.324 46.2397 249.999 46.6834 249.767 47.2673C249.546 47.851 249.435 48.5749 249.435 49.4389C249.435 50.0694 249.499 50.6357 249.628 51.1378C249.767 51.6281 249.958 52.0427 250.202 52.3813C250.445 52.7199 250.747 52.9767 251.107 53.1519C251.466 53.327 251.879 53.4146 252.343 53.4146ZM278.487 55.1834V43.6244H281.76L286.966 51.8033H287.158L287.001 43.6244H289.439V55.1834H286.479L280.977 46.6193H280.786L280.943 55.1834H278.487ZM315.056 55.4286C314.301 55.4286 313.622 55.3528 313.019 55.2009C312.427 55.0608 311.916 54.8448 311.486 54.5529C311.069 54.2493 310.738 53.8757 310.494 53.432C310.262 52.9767 310.128 52.4571 310.094 51.8733L312.288 51.1553C312.311 51.6807 312.438 52.1186 312.67 52.4688C312.914 52.819 313.257 53.076 313.698 53.2394C314.139 53.4029 314.631 53.4846 315.177 53.4846C315.7 53.4846 316.141 53.4203 316.5 53.2919C316.86 53.1635 317.133 52.9942 317.319 52.784C317.505 52.5623 317.597 52.3229 317.597 52.066C317.597 51.7624 317.481 51.5173 317.249 51.3304C317.017 51.1437 316.698 50.986 316.291 50.8575C315.897 50.7291 315.445 50.6065 314.934 50.4898C314.365 50.3614 313.803 50.2154 313.245 50.0519C312.7 49.8885 312.2 49.6782 311.748 49.4215C311.306 49.1645 310.953 48.8318 310.685 48.4232C310.43 48.0145 310.303 47.5008 310.303 46.882C310.303 46.1697 310.476 45.5567 310.826 45.043C311.185 44.5177 311.707 44.109 312.391 43.8171C313.077 43.5252 313.901 43.3792 314.865 43.3792C315.839 43.3792 316.669 43.5252 317.353 43.8171C318.051 44.0973 318.59 44.5001 318.973 45.0255C319.356 45.5393 319.565 46.1523 319.6 46.8644L317.337 47.4949C317.337 47.133 317.278 46.8177 317.162 46.5492C317.046 46.2807 316.884 46.0588 316.675 45.8837C316.466 45.6969 316.205 45.5567 315.891 45.4634C315.59 45.37 315.241 45.3233 314.847 45.3233C314.394 45.3233 313.999 45.3817 313.662 45.4984C313.337 45.6151 313.089 45.7727 312.914 45.9713C312.752 46.1697 312.67 46.4033 312.67 46.6717C312.67 46.987 312.798 47.2497 313.053 47.4599C313.321 47.6583 313.669 47.8219 314.098 47.9503C314.539 48.0787 315.02 48.2013 315.543 48.3181C316.043 48.4232 316.547 48.5575 317.058 48.7209C317.58 48.8726 318.062 49.077 318.503 49.3339C318.956 49.5791 319.315 49.9177 319.582 50.3497C319.861 50.77 320 51.3013 320 51.9434C320 52.644 319.814 53.2569 319.443 53.7823C319.072 54.3078 318.515 54.7164 317.772 55.0083C317.041 55.2885 316.135 55.4286 315.056 55.4286Z" fill="#181C30"/>
<path d="M26.0142 33.1002L15.7752 43.4305C14.8153 44.399 14.8153 45.9696 15.7752 46.938C16.7351 47.9065 18.2919 47.9065 19.2518 46.938L26.0142 40.1153C26.9741 39.1468 28.5309 39.1468 29.4908 40.1153L44.5152 55.2737C45.4751 56.2421 47.0318 56.2421 47.9917 55.2737C48.9516 54.3052 48.9516 52.7346 47.9917 51.7661L29.4908 33.1002C28.5309 32.1317 26.9741 32.1317 26.0142 33.1002Z" fill="#181C30"/>
<path d="M29.4904 22.8999L39.7296 12.5695C40.6894 11.6011 40.6894 10.0304 39.7296 9.06205C38.7696 8.09357 37.2129 8.09357 36.253 9.06205L29.4904 15.8848C28.5306 16.8532 26.9739 16.8532 26.014 15.8848L10.9895 0.726336C10.0296 -0.242112 8.47283 -0.242112 7.51294 0.726336C6.55305 1.6948 6.55305 3.26544 7.51294 4.23391L26.014 22.8999C26.9739 23.8684 28.5306 23.8684 29.4904 22.8999Z" fill="#181C30"/>
<path d="M39.76 26.2464L54.7845 11.0879C55.7444 10.1194 55.7444 8.54879 54.7845 7.58031C53.8246 6.61194 52.2678 6.61194 51.308 7.58031L32.8069 26.2464C31.847 27.2149 31.847 28.7855 32.8069 29.7539L43.0459 40.0843C44.0059 41.0527 45.5626 41.0527 46.5225 40.0843C47.4825 39.1158 47.4825 37.5452 46.5225 36.5767L39.76 29.7539C38.8001 28.7855 38.8001 27.2149 39.76 26.2464Z" fill="#181C30"/>
<path d="M22.6975 26.2464L12.4585 15.9161C11.4986 14.9476 9.94181 14.9476 8.98191 15.9161C8.02202 16.8845 8.02202 18.4552 8.98191 19.4236L15.7444 26.2464C16.7043 27.2149 16.7043 28.7855 15.7444 29.7539L0.719923 44.9123C-0.239974 45.8808 -0.239974 47.4515 0.719923 48.4199C1.67982 49.3884 3.23658 49.3884 4.19648 48.4199L22.6975 29.7539C23.6574 28.7855 23.6574 27.2149 22.6975 26.2464Z" fill="#181C30"/>
</svg>
