<svg width="32" height="32" viewBox="0 0 32 32" fill="none" xmlns="http://www.w3.org/2000/svg">
<path d="M14.998 18.9144L9.09487 24.8174C8.54145 25.3708 8.54145 26.2683 9.09487 26.8217C9.6483 27.3751 10.5458 27.3751 11.0992 26.8217L14.998 22.923C15.5514 22.3696 16.4489 22.3696 17.0023 22.923L25.6644 31.585C26.2178 32.1383 27.1153 32.1383 27.6687 31.585C28.2221 31.0316 28.2221 30.1341 27.6687 29.5806L17.0023 18.9144C16.4489 18.361 15.5514 18.361 14.998 18.9144Z" fill="white"/>
<path d="M17.0021 13.0856L22.9053 7.1826C23.4587 6.62918 23.4587 5.73167 22.9053 5.17832C22.3519 4.6249 21.4544 4.6249 20.9009 5.17832L17.0021 9.07701C16.4488 9.63043 15.5513 9.63043 14.9978 9.07701L6.33578 0.415049C5.78237 -0.13835 4.88485 -0.13835 4.33144 0.415049C3.77803 0.968454 3.77803 1.86597 4.33144 2.41938L14.9978 13.0856C15.5513 13.6391 16.4488 13.6391 17.0021 13.0856Z" fill="white"/>
<path d="M22.9229 14.9979L31.5849 6.33595C32.1384 5.78253 32.1384 4.88502 31.5849 4.3316C31.0315 3.77825 30.134 3.77825 29.5806 4.3316L18.9142 14.9979C18.3608 15.5513 18.3608 16.4489 18.9142 17.0022L24.8173 22.9053C25.3707 23.4587 26.2682 23.4587 26.8217 22.9053C27.3751 22.3519 27.3751 21.4544 26.8217 20.901L22.9229 17.0022C22.3694 16.4489 22.3694 15.5513 22.9229 14.9979Z" fill="white"/>
<path d="M13.0858 14.9979L7.18269 9.09489C6.62927 8.54147 5.73176 8.54147 5.17835 9.09489C4.62494 9.64831 4.62494 10.5458 5.17835 11.0992L9.07712 14.9979C9.63054 15.5513 9.63054 16.4489 9.07712 17.0022L0.415057 25.6642C-0.138352 26.2176 -0.138352 27.1151 0.415057 27.6685C0.968469 28.222 1.86599 28.222 2.4194 27.6685L13.0858 17.0022C13.6392 16.4489 13.6392 15.5513 13.0858 14.9979Z" fill="white"/>
</svg>
