<svg viewBox="0 0 20 20" xmlns="http://www.w3.org/2000/svg">
<path d="M19.9369 8.84864C19.8944 8.74695 19.8336 8.65445 19.7561 8.57695L17.2567 6.07763C16.9309 5.75261 16.4042 5.75261 16.0784 6.07763C15.7525 6.40347 15.7525 6.931 16.0784 7.25601L17.1559 8.33357H12.5006C12.0398 8.33357 11.6673 8.70691 11.6673 9.16694C11.6673 9.62696 12.0398 10.0003 12.5006 10.0003H17.1559L16.0783 11.0779C15.7525 11.4037 15.7525 11.9312 16.0783 12.2562C16.2408 12.4196 16.4542 12.5004 16.6675 12.5004C16.8809 12.5004 17.0942 12.4196 17.2567 12.2562L19.7561 9.75693C19.8336 9.68025 19.8944 9.58774 19.9369 9.48524C20.021 9.28198 20.021 9.05197 19.9369 8.84864Z" fill="inherit"/>
<path d="M14.1674 11.6673C13.7066 11.6673 13.334 12.0406 13.334 12.5007V16.6676H10.0005V3.3335C10.0005 2.96598 9.75884 2.64096 9.40632 2.53514L6.51199 1.66677H13.334V5.83367C13.334 6.2937 13.7066 6.66704 14.1674 6.66704C14.6282 6.66704 15.0008 6.2937 15.0008 5.83367V0.833404C15.0008 0.37334 14.6282 0 14.1674 0H0.833365C0.803363 0 0.776682 0.0125007 0.74754 0.0158212C0.708358 0.0200011 0.672536 0.0266421 0.635034 0.0358222C0.547529 0.0583234 0.468345 0.092505 0.394201 0.139148C0.37588 0.150828 0.353378 0.151649 0.335877 0.16497C0.329158 0.170009 0.326658 0.179189 0.319978 0.18419C0.229153 0.255834 0.153329 0.343339 0.0983256 0.447524C0.0866453 0.470025 0.0841451 0.494206 0.075004 0.517528C0.0483229 0.580852 0.0191807 0.642535 0.00918018 0.712538C0.00500027 0.73754 0.0125007 0.760861 0.0116803 0.785042C0.01086 0.801723 0 0.816724 0 0.833365V17.5009C0 17.8985 0.280835 18.2402 0.670036 18.3177L9.0038 19.9844C9.05799 19.9961 9.11299 20.0011 9.16713 20.0011C9.35796 20.0011 9.54547 19.9353 9.69548 19.8119C9.88799 19.6536 10.0005 19.4177 10.0005 19.1677V18.3343H14.1674C14.6282 18.3343 15.0008 17.961 15.0008 17.501V12.5007C15.0008 12.0406 14.6282 11.6673 14.1674 11.6673Z" fill="inherit"/>
</svg>
