<svg width="24" height="24" viewBox="0 0 24 24" fill="none" xmlns="http://www.w3.org/2000/svg">
<path d="M21.7031 0.0258789H2.29698C1.03038 0.0258789 0 1.05626 0 2.32285V16.8105C0 18.0771 1.03038 19.1075 2.29698 19.1075H8.05064L7.5077 22.5651H6.44044C6.05228 22.5651 5.73759 22.8798 5.73759 23.2679C5.73759 23.6561 6.05228 23.9708 6.44044 23.9708C8.79538 23.9761 15.2158 23.9749 17.5596 23.9708C17.9477 23.9708 18.2624 23.6561 18.2624 23.2679C18.2624 22.8798 17.9477 22.5651 17.5596 22.5651H16.396L15.9087 19.1075H21.7031C22.9696 19.1075 24 18.0771 24 16.8105V2.32285C24 1.05626 22.9696 0.0258789 21.7031 0.0258789ZM22.5943 2.32285V8.86385H20.8773C20.7111 8.01204 20.1822 7.28875 19.4583 6.86137C19.719 6.48708 19.8724 6.03275 19.8724 5.5431C19.8724 4.26775 18.8349 3.23019 17.5596 3.23019C16.2842 3.23019 15.2466 4.26779 15.2466 5.5431C15.2466 6.0328 15.4001 6.48708 15.6607 6.86137C14.9369 7.28875 14.408 8.01199 14.2418 8.86385H12.7029V1.43159H21.7031C22.1945 1.43159 22.5943 1.83137 22.5943 2.32285ZM17.6128 6.44753H17.5063C17.0309 6.4197 16.6524 6.0253 16.6524 5.54305C16.6524 5.04281 17.0594 4.63585 17.5596 4.63585C18.0598 4.63585 18.4667 5.04285 18.4667 5.54305C18.4667 6.0253 18.0882 6.4197 17.6128 6.44753ZM17.1757 7.85324C17.3921 7.85376 17.6756 7.85446 17.9434 7.85324C18.6147 7.85324 19.1898 8.27298 19.4201 8.8638H15.6991C15.9293 8.27298 16.5044 7.85324 17.1757 7.85324ZM2.29698 1.43159H11.2972V8.8638H9.7283C9.5621 8.01199 9.03318 7.28871 8.30933 6.86133C8.57 6.48703 8.72341 6.03271 8.72341 5.54305C8.72341 4.2677 7.68586 3.23015 6.41055 3.23015C5.13524 3.23015 4.09764 4.26775 4.09764 5.54305C4.09764 6.03275 4.25105 6.48703 4.51172 6.86133C3.78787 7.28871 3.25895 8.01194 3.09275 8.8638H1.40571V2.32285C1.40571 1.83137 1.80549 1.43159 2.29698 1.43159ZM6.46378 6.44753H6.35723C5.88181 6.4197 5.5033 6.0253 5.5033 5.54305C5.5033 5.04281 5.9103 4.63585 6.4105 4.63585C6.9107 4.63585 7.31765 5.04285 7.31765 5.54305C7.31765 6.0253 6.93914 6.4197 6.46378 6.44753ZM6.0266 7.85324C6.24299 7.85376 6.52647 7.85446 6.79431 7.85324C7.46558 7.85324 8.0407 8.27298 8.27096 8.8638H4.55C4.78025 8.27298 5.35533 7.85324 6.0266 7.85324ZM1.40571 16.8105V10.2695H11.2972V17.7017H9.7283C9.5621 16.8499 9.03318 16.1266 8.30933 15.6993C8.57 15.325 8.72341 14.8706 8.72341 14.3809C8.72341 13.1056 7.68586 12.0681 6.41055 12.0681C5.13524 12.0681 4.09764 13.1056 4.09764 14.3809C4.09764 14.8706 4.25105 15.3249 4.51172 15.6993C3.78782 16.1266 3.25895 16.8499 3.09275 17.7017H2.29698C1.80549 17.7018 1.40571 17.3019 1.40571 16.8105ZM6.35718 15.2855C5.88177 15.2576 5.50326 14.8632 5.50326 14.3809C5.50326 13.8807 5.91026 13.4738 6.41046 13.4738C6.91065 13.4738 7.31761 13.8807 7.31761 14.3809C7.31761 14.8632 6.9391 15.2576 6.46373 15.2855H6.35718ZM6.0266 16.6912C6.24299 16.6917 6.52647 16.6924 6.79431 16.6912C7.46558 16.6912 8.04075 17.111 8.27096 17.7017H4.55C4.78021 17.111 5.35533 16.6912 6.0266 16.6912ZM8.93061 22.5651L9.4735 19.1075H14.4891L14.9764 22.5651H8.93061ZM15.6991 17.7018C15.9293 17.111 16.5044 16.6912 17.1757 16.6912C17.3921 16.6917 17.6756 16.6924 17.9434 16.6912C18.6147 16.6912 19.1899 17.111 19.4201 17.7018H15.6991ZM17.6128 15.2855H17.5063C17.0309 15.2576 16.6524 14.8632 16.6524 14.3809C16.6524 13.8807 17.0594 13.4738 17.5596 13.4738C18.0598 13.4738 18.4667 13.8807 18.4667 14.3809C18.4667 14.8632 18.0882 15.2577 17.6128 15.2855ZM21.7031 17.7018H20.8774C20.7112 16.8499 20.1823 16.1267 19.4584 15.6993C19.7191 15.325 19.8725 14.8707 19.8725 14.381C19.8725 13.1056 18.8349 12.0681 17.5596 12.0681C16.2843 12.0681 15.2467 13.1057 15.2467 14.381C15.2467 14.8707 15.4001 15.325 15.6608 15.6993C14.9369 16.1267 14.408 16.8499 14.2418 17.7018H12.7029V10.2695H22.5944V16.8105C22.5943 17.3019 22.1945 17.7018 21.7031 17.7018Z" fill="#007BFF"/>
</svg>
