<svg width="24" height="24" viewBox="0 0 24 24" fill="none" xmlns="http://www.w3.org/2000/svg">
<path d="M20.4727 0H3.52734C1.58236 0 0 1.58236 0 3.52734V14.8242C0 15.9763 0.555281 17.001 1.41211 17.6451V18.6958C1.41211 19.8126 2.15775 20.7585 3.17723 21.0621V23.2969C3.17723 23.5674 3.33248 23.814 3.57642 23.9309C3.67312 23.9773 3.77695 24 3.88022 24C4.03744 24 4.19339 23.9473 4.32066 23.845L7.65802 21.1641H14.4711C15.2549 21.1641 15.954 20.7964 16.4064 20.2251L19.9754 23.7941C20.1099 23.9286 20.2898 24 20.4728 24C20.5633 24 20.6547 23.9825 20.7417 23.9465C21.0044 23.8377 21.1757 23.5813 21.1757 23.2969V18.2812C22.785 17.9543 24 16.5285 24 14.8242V3.52734C24 1.58236 22.4176 0 20.4727 0ZM22.5938 14.8242C22.5938 15.9938 21.6422 16.9453 20.4727 16.9453C20.0843 16.9453 19.7695 17.2601 19.7695 17.6484V21.5994L15.3214 17.1513C15.1895 17.0194 15.0107 16.9453 14.8242 16.9453H3.52734C2.35781 16.9453 1.40625 15.9938 1.40625 14.8242V3.52734C1.40625 2.35777 2.35781 1.40625 3.52734 1.40625H20.4727C21.6422 1.40625 22.5938 2.35777 22.5938 3.52734V14.8242ZM14.4712 19.7578H7.41066C7.25048 19.7578 7.09519 19.8125 6.97031 19.9128L4.58348 21.8302V20.4609C4.58348 20.0726 4.26867 19.7578 3.88036 19.7578C3.2948 19.7578 2.81836 19.2814 2.81836 18.6958V18.28C3.04744 18.3269 3.28458 18.3516 3.52734 18.3516H14.533L15.3968 19.2155C15.2146 19.5388 14.8681 19.7578 14.4712 19.7578Z" fill="#007BFF"/>
<path d="M12.73 10.1976C12.73 9.81966 12.8772 9.4643 13.1445 9.19702L13.995 8.34647C14.5279 7.81359 14.8213 7.10512 14.8213 6.35152C14.8213 4.79583 13.5557 3.5302 12 3.5302C10.4443 3.5302 9.17869 4.79583 9.17869 6.35152V7.05755C9.17869 7.44586 9.4935 7.76067 9.88181 7.76067C10.2701 7.76067 10.5849 7.44586 10.5849 7.05755V6.35156C10.5849 5.57128 11.2197 4.9365 12 4.9365C12.7803 4.9365 13.4151 5.57128 13.4151 6.35156C13.4151 6.72952 13.2679 7.08487 13.0006 7.35216L12.1501 8.20266C11.6172 8.73553 11.3237 9.444 11.3237 10.1976V11.294C11.3237 11.6823 11.6385 11.9971 12.0269 11.9971C12.4152 11.9971 12.73 11.6823 12.73 11.294V10.1976Z" fill="#007BFF"/>
<path d="M12 13.4151C11.6322 13.4151 11.2799 13.7385 11.2969 14.1182C11.3139 14.4991 11.6058 14.8213 12 14.8213C12.3678 14.8213 12.7201 14.4979 12.7031 14.1182C12.6861 13.7372 12.3942 13.4151 12 13.4151Z" fill="#007BFF"/>
</svg>
