<svg viewBox="0 0 24 24" fill="none" xmlns="http://www.w3.org/2000/svg">
<path d="M14.316 5.8897L15.9605 7.1063C16.1456 7.24322 16.0521 7.54622 15.818 7.54767L15.302 7.55081C15.3015 7.55081 15.301 7.55081 15.3005 7.55081C15.1677 7.55081 15.0593 7.44338 15.0585 7.31063C15.0561 6.92231 14.7396 6.60867 14.3511 6.61186C13.9628 6.61425 13.65 6.93098 13.6523 7.3193C13.6569 8.06953 14.165 8.70066 14.8534 8.895V8.92903C14.8534 9.31734 15.1682 9.63216 15.5565 9.63216C15.9447 9.63216 16.2595 9.31734 16.2595 8.92903V8.89355C16.5335 8.81761 16.7843 8.67155 16.9894 8.4638C17.2988 8.15039 17.4677 7.73527 17.4646 7.29375V7.28934C17.4611 6.77363 17.2115 6.28256 16.7968 5.97581L15.1524 4.75927C14.9656 4.62108 15.0638 4.32333 15.2964 4.32333H15.8132C15.9467 4.32333 16.0553 4.43175 16.0553 4.56502C16.0553 4.95333 16.3701 5.26814 16.7583 5.26814C17.1466 5.26814 17.4614 4.95333 17.4614 4.56502C17.4614 3.81103 16.9521 3.17409 16.2595 2.979V2.94516C16.2595 2.55684 15.9447 2.24203 15.5564 2.24203C15.1681 2.24203 14.8533 2.55684 14.8533 2.94516V2.97806C14.1591 3.17208 13.6482 3.80981 13.6482 4.56502C13.6482 5.08509 13.8979 5.58028 14.316 5.8897Z" fill="#007BFF"/>
<path d="M15.5565 11.8741C18.831 11.8741 21.4951 9.2108 21.4951 5.93705C21.4951 2.6633 18.831 0 15.5565 0C12.2819 0 9.61786 2.66334 9.61786 5.93709C9.61786 9.21084 12.2819 11.8741 15.5565 11.8741ZM15.5565 1.40625C18.0556 1.40625 20.0888 3.4388 20.0888 5.93709C20.0888 8.43539 18.0556 10.4679 15.5565 10.4679C13.0573 10.4679 11.0241 8.43539 11.0241 5.93709C11.0241 3.4388 13.0573 1.40625 15.5565 1.40625Z" fill="#007BFF"/>
<path d="M23.5165 13.4618C22.756 12.4828 21.3832 12.2986 20.3949 12.9842L17.7197 14.774C17.348 14.0818 16.617 13.6099 15.7777 13.6099H13.8694C12.9061 12.7065 11.6201 12.1935 10.2936 12.1935C9.29803 12.1935 8.32955 12.4748 7.49297 13.0069C6.73917 13.4864 6.12258 14.1487 5.69888 14.9307L5.34066 15.1497L5.24785 14.8783C5.12222 14.5109 4.72266 14.3148 4.35525 14.4404L0.475925 15.7659C0.108659 15.8914 -0.0876531 16.2913 0.0379719 16.6588L2.38514 23.5242C2.51082 23.8918 2.91052 24.0875 3.27774 23.9621L7.15707 22.6366C7.50352 22.5182 7.73049 22.14 7.58724 21.721L13.7429 21.5305C15.4193 21.5282 17.0269 21.0134 18.3925 20.0415L23.0346 16.7395C24.0989 15.9819 24.3186 14.4938 23.5165 13.4618ZM3.4883 22.404L1.59605 16.8693L4.14469 15.9984C4.41924 16.8015 5.75358 20.7044 6.03694 21.5333L3.4883 22.404ZM22.2194 15.5936L17.5773 18.8956C16.448 19.6994 15.1182 20.1242 13.7318 20.1242C13.7245 20.1242 13.7172 20.1243 13.71 20.1245L7.11127 20.3288L5.80674 16.513L6.59963 16.0281C6.59944 16.0283 6.59982 16.028 6.59963 16.0281C6.71635 15.9567 6.80813 15.8514 6.86381 15.738C7.51092 14.419 8.82516 13.5997 10.2936 13.5997C11.3548 13.5997 12.3404 14.0245 13.0688 14.7959C13.203 14.938 13.3958 15.016 13.58 15.016H15.7777C16.217 15.016 16.5744 15.3732 16.5744 15.8123C16.5744 16.2468 16.223 16.6086 15.7777 16.6086H11.8107C11.4224 16.6086 11.1076 16.9234 11.1076 17.3117C11.1076 17.7 11.4225 18.0148 11.8107 18.0148H15.7777C16.3666 18.0148 16.9199 17.7855 17.3351 17.3696C17.6257 17.0792 17.8247 16.7219 17.9187 16.3327L21.1822 14.1494C21.1861 14.1467 21.19 14.1441 21.1939 14.1413C21.5787 13.8725 22.1118 13.9457 22.4061 14.3246C22.7165 14.724 22.6316 15.3002 22.2194 15.5936Z" fill="#007BFF"/>
</svg>
