<svg viewBox="0 0 20 20" xmlns="http://www.w3.org/2000/svg">
<path d="M18.2422 0.0402832H1.75781C0.788555 0.0402832 0 0.828838 0 1.7981V18.2043C0 19.1736 0.788555 19.9622 1.75781 19.9622H18.2422C19.2114 19.9622 20 19.1736 20 18.2043V1.7981C20 0.828838 19.2114 0.0402832 18.2422 0.0402832ZM1.75781 1.21216H18.2422C18.5653 1.21216 18.8281 1.47501 18.8281 1.7981V4.72778H1.17188V1.7981C1.17188 1.47501 1.43473 1.21216 1.75781 1.21216ZM18.2422 18.7903H1.75781C1.43473 18.7903 1.17188 18.5274 1.17188 18.2043V5.89966H18.8281V18.2043C18.8281 18.5274 18.5653 18.7903 18.2422 18.7903Z" fill="inherit"/>
<path d="M11.9886 7.70485C11.6912 7.57739 11.3467 7.71517 11.2193 8.01259L7.70363 16.2157C7.57613 16.5131 7.71395 16.8576 8.01137 16.9851C8.30891 17.1126 8.65332 16.9747 8.78074 16.6774L12.2964 8.47423C12.4239 8.17677 12.2861 7.83231 11.9886 7.70485Z" fill="inherit"/>
<path d="M6.94191 9.63517C6.73973 9.38247 6.37094 9.34153 6.11836 9.54368L3.18867 11.8874C2.89574 12.1217 2.89555 12.5681 3.18867 12.8025L6.11836 15.1463C6.37105 15.3484 6.73984 15.3074 6.94191 15.0548C7.14406 14.8021 7.10312 14.4333 6.85039 14.2312L4.49266 12.345L6.85039 10.4588C7.10312 10.2566 7.14406 9.8879 6.94191 9.63517Z" fill="inherit"/>
<path d="M16.8113 11.8874L13.8816 9.54368C13.6289 9.34149 13.2602 9.38247 13.0581 9.63517C12.8559 9.88786 12.8969 10.2566 13.1496 10.4587L15.5073 12.345L13.1496 14.2312C12.8969 14.4333 12.8559 14.802 13.0581 15.0547C13.2605 15.3077 13.6293 15.3482 13.8816 15.1462L16.8113 12.8025C17.1043 12.5682 17.1045 12.1219 16.8113 11.8874Z" fill="inherit"/>
<path d="M2.96875 3.55591C3.29235 3.55591 3.55469 3.29358 3.55469 2.96997C3.55469 2.64637 3.29235 2.38403 2.96875 2.38403C2.64515 2.38403 2.38281 2.64637 2.38281 2.96997C2.38281 3.29358 2.64515 3.55591 2.96875 3.55591Z" fill="inherit"/>
<path d="M5.3125 3.55591C5.6361 3.55591 5.89844 3.29358 5.89844 2.96997C5.89844 2.64637 5.6361 2.38403 5.3125 2.38403C4.9889 2.38403 4.72656 2.64637 4.72656 2.96997C4.72656 3.29358 4.9889 3.55591 5.3125 3.55591Z" fill="inherit"/>
<path d="M7.65625 3.55591C7.97985 3.55591 8.24219 3.29358 8.24219 2.96997C8.24219 2.64637 7.97985 2.38403 7.65625 2.38403C7.33265 2.38403 7.07031 2.64637 7.07031 2.96997C7.07031 3.29358 7.33265 3.55591 7.65625 3.55591Z" fill="inherit"/>
<path d="M13.5156 3.55591H17.0312C17.3548 3.55591 17.6172 3.29356 17.6172 2.96997C17.6172 2.64638 17.3548 2.38403 17.0312 2.38403H13.5156C13.192 2.38403 12.9297 2.64638 12.9297 2.96997C12.9297 3.29356 13.192 3.55591 13.5156 3.55591Z" fill="inherit"/>
</svg>
