<svg viewBox="0 0 20 20" xmlns="http://www.w3.org/2000/svg">
<path d="M19.4137 7.53277H15.2658C16.6313 3.96588 13.8309 -0.0542489 9.99989 0.0018042C6.16964 -0.0544443 3.36776 3.96646 4.73406 7.53281H0.586122C-0.190459 7.56164 -0.189873 8.6761 0.586122 8.70465H1.59863L8.1588 15.2649V19.4153C8.1588 19.6183 8.26392 19.8069 8.43669 19.9137C8.60711 20.0191 8.82277 20.0314 9.00675 19.9393L11.5172 18.6841C11.7157 18.5849 11.841 18.382 11.841 18.1601V15.2649L18.4012 8.70465H19.4137C20.1903 8.67582 20.1897 7.56132 19.4137 7.53277ZM5.56513 5.60837C5.56513 3.16301 7.55456 1.17357 9.99993 1.17357C13.2221 1.13115 15.4311 4.66441 13.9941 7.53277H11.5546C11.9522 6.87076 12.0472 5.92891 11.1581 5.39642C10.8506 5.21709 10.4904 5.12701 10.142 5.03995C9.87333 4.97276 9.59545 4.90327 9.43221 4.80808C9.33065 4.74882 9.33065 4.7232 9.33065 4.66699C9.36354 3.93564 10.1701 3.87185 10.5406 4.15333C11.1186 4.67273 11.8934 3.8715 11.3556 3.31132C11.2063 3.16191 10.9382 2.99621 10.5858 2.90219V2.78427C10.557 2.00769 9.44256 2.00827 9.41401 2.78427V2.92208C8.2774 3.26886 7.53913 5.02983 8.84175 5.82036C9.14925 5.99969 9.50943 6.08976 9.85782 6.17683C10.1265 6.24402 10.4044 6.31351 10.5676 6.4087C10.6692 6.46795 10.6692 6.49358 10.6692 6.54979C10.6363 7.28114 9.82974 7.34492 9.45924 7.06345C9.0712 6.68717 8.4213 7.00165 8.46837 7.53281H6.00578C5.72391 6.95032 5.56513 6.29769 5.56513 5.60837ZM10.6692 17.798L9.33065 18.4672V15.6081H10.6692V17.798ZM11.0124 14.4363H8.98742L3.25585 8.70461H16.744L11.0124 14.4363Z" fill="inherit"/>
</svg>
