<svg viewBox="0 0 20 20" xmlns="http://www.w3.org/2000/svg">
<path d="M17.0605 0.0012207H2.93945C1.31863 0.0012207 0 1.31985 0 2.94067V12.3547C0 13.3148 0.462734 14.1687 1.17676 14.7055V15.5811C1.17676 16.5117 1.79812 17.3 2.6477 17.5529V19.4153C2.6477 19.6407 2.77707 19.8462 2.98035 19.9436C3.06094 19.9823 3.14746 20.0012 3.23352 20.0012C3.36453 20.0012 3.49449 19.9573 3.60055 19.8721L6.38168 17.6379H12.0593C12.7124 17.6379 13.295 17.3316 13.672 16.8554L16.6462 19.8296C16.7583 19.9417 16.9081 20.0013 17.0606 20.0013C17.1361 20.0013 17.2122 19.9867 17.2847 19.9566C17.5037 19.8659 17.6464 19.6523 17.6464 19.4153V15.2356C18.9875 14.9632 20 13.7749 20 12.3547V2.94067C20 1.31985 18.6814 0.0012207 17.0605 0.0012207ZM18.8281 12.3547C18.8281 13.3294 18.0352 14.1223 17.0605 14.1223C16.737 14.1223 16.4746 14.3847 16.4746 14.7083V18.0007L12.7678 14.294C12.6579 14.1841 12.5089 14.1223 12.3535 14.1223H2.93945C1.96484 14.1223 1.17188 13.3294 1.17188 12.3547V2.94067C1.17188 1.96603 1.96484 1.1731 2.93945 1.1731H17.0605C18.0352 1.1731 18.8281 1.96603 18.8281 2.94067V12.3547ZM12.0593 16.4661H6.17555C6.04207 16.4661 5.91266 16.5117 5.80859 16.5952L3.81957 18.193V17.052C3.81957 16.7284 3.55723 16.4661 3.23363 16.4661C2.74566 16.4661 2.34863 16.069 2.34863 15.5811V15.2345C2.53953 15.2736 2.73715 15.2942 2.93945 15.2942H12.1108L12.8307 16.0141C12.6788 16.2836 12.3901 16.4661 12.0593 16.4661Z" fill="inherit"/>
<path d="M10.6083 8.49923C10.6083 8.18427 10.731 7.88813 10.9537 7.6654L11.6625 6.95661C12.1066 6.51255 12.3511 5.92216 12.3511 5.29415C12.3511 3.99774 11.2964 2.94306 10 2.94306C8.70359 2.94306 7.64891 3.99774 7.64891 5.29415V5.88251C7.64891 6.2061 7.91125 6.46845 8.23484 6.46845C8.55844 6.46845 8.82078 6.2061 8.82078 5.88251V5.29419C8.82078 4.64395 9.34977 4.11497 10 4.11497C10.6502 4.11497 11.1792 4.64395 11.1792 5.29419C11.1792 5.60915 11.0566 5.90528 10.8339 6.12802L10.1251 6.83677C9.68102 7.28083 9.43645 7.87122 9.43645 8.49923V9.41286C9.43645 9.73645 9.69879 9.9988 10.0224 9.9988C10.346 9.9988 10.6083 9.73645 10.6083 9.41286V8.49923Z" fill="inherit"/>
<path d="M10 11.1804C9.69352 11.1804 9.39988 11.4499 9.41406 11.7664C9.42828 12.0838 9.67152 12.3523 10 12.3523C10.3065 12.3523 10.6001 12.0828 10.5859 11.7664C10.5717 11.4489 10.3285 11.1804 10 11.1804Z" fill="inherit"/>
</svg>
