<svg viewBox="0 0 20 20" xmlns="http://www.w3.org/2000/svg">
<path d="M19.4137 18.8294H18.7887V8.86866C18.7887 8.61643 18.6273 8.39256 18.388 8.3128L11.7576 6.10264V4.10315C11.7576 3.85889 11.6061 3.64026 11.3774 3.55452L2.00262 0.0389711C1.61996 -0.104505 1.21094 0.178815 1.21094 0.587604V18.8294H0.585938C0.262344 18.8294 0 19.0917 0 19.4153C0 19.7389 0.262344 20.0013 0.585938 20.0013C0.717539 20.0013 19.1598 20.0013 19.4137 20.0013C19.7373 20.0013 19.9996 19.7389 19.9996 19.4153C19.9996 19.0917 19.7373 18.8294 19.4137 18.8294ZM5.89832 18.8294H4.72648V16.4857H5.89832V18.8294ZM8.24203 18.8294H7.07019V16.4857H8.24203V18.8294ZM10.5857 18.8294H9.41391V15.8998C9.41391 15.5762 9.15156 15.3138 8.82797 15.3138H4.14055C3.81695 15.3138 3.55461 15.5762 3.55461 15.8998V18.8294H2.38277V1.43307L10.5857 4.50917V18.8294ZM15.2731 18.8294H14.1013V16.4857H15.2731V18.8294ZM17.6168 18.8294H16.445V15.8998C16.445 15.5762 16.1827 15.3138 15.8591 15.3138H13.5154C13.1918 15.3138 12.9294 15.5762 12.9294 15.8998V18.8294H11.7576V7.33788L17.6168 9.29096V18.8294Z" fill="inherit"/>
<path d="M5.31242 12.9701H4.14059C3.81699 12.9701 3.55465 13.2324 3.55465 13.556C3.55465 13.8796 3.81695 14.142 4.14059 14.142H5.31242C5.63602 14.142 5.89836 13.8796 5.89836 13.556C5.89836 13.2324 5.63602 12.9701 5.31242 12.9701Z" fill="inherit"/>
<path d="M8.82797 12.9701H7.65613C7.33254 12.9701 7.07019 13.2324 7.07019 13.556C7.07019 13.8796 7.3325 14.142 7.65613 14.142H8.82797C9.15156 14.142 9.41391 13.8796 9.41391 13.556C9.41391 13.2324 9.15156 12.9701 8.82797 12.9701Z" fill="inherit"/>
<path d="M5.31242 10.6264H4.14059C3.81699 10.6264 3.55465 10.8888 3.55465 11.2124C3.55465 11.536 3.81695 11.7983 4.14059 11.7983H5.31242C5.63602 11.7983 5.89836 11.536 5.89836 11.2124C5.89836 10.8888 5.63602 10.6264 5.31242 10.6264Z" fill="inherit"/>
<path d="M8.82797 10.6264H7.65613C7.33254 10.6264 7.07019 10.8888 7.07019 11.2124C7.07019 11.536 7.3325 11.7983 7.65613 11.7983H8.82797C9.15156 11.7983 9.41391 11.536 9.41391 11.2124C9.41391 10.8888 9.15156 10.6264 8.82797 10.6264Z" fill="inherit"/>
<path d="M15.8591 12.9701H13.5154C13.1918 12.9701 12.9294 13.2324 12.9294 13.556C12.9294 13.8796 13.1917 14.142 13.5154 14.142H15.8591C16.1827 14.142 16.445 13.8796 16.445 13.556C16.445 13.2324 16.1827 12.9701 15.8591 12.9701Z" fill="inherit"/>
<path d="M15.8591 10.6264H13.5154C13.1918 10.6264 12.9294 10.8888 12.9294 11.2124C12.9294 11.536 13.1917 11.7983 13.5154 11.7983H15.8591C16.1827 11.7983 16.445 11.536 16.445 11.2124C16.445 10.8888 16.1827 10.6264 15.8591 10.6264Z" fill="inherit"/>
<path d="M5.31242 8.28272H4.14059C3.81699 8.28272 3.55465 8.54506 3.55465 8.86866C3.55465 9.19225 3.81695 9.4546 4.14059 9.4546H5.31242C5.63602 9.4546 5.89836 9.19225 5.89836 8.86866C5.89832 8.54506 5.63602 8.28272 5.31242 8.28272Z" fill="inherit"/>
<path d="M8.82797 8.28272H7.65613C7.33254 8.28272 7.07019 8.54506 7.07019 8.86866C7.07019 9.19225 7.3325 9.4546 7.65613 9.4546H8.82797C9.15156 9.4546 9.41391 9.19225 9.41391 8.86866C9.41391 8.54506 9.15156 8.28272 8.82797 8.28272Z" fill="inherit"/>
<path d="M5.31242 5.93901H4.14059C3.81699 5.93901 3.55465 6.20135 3.55465 6.52495C3.55465 6.84854 3.81695 7.11088 4.14059 7.11088H5.31242C5.63602 7.11088 5.89836 6.84854 5.89836 6.52495C5.89832 6.20135 5.63602 5.93901 5.31242 5.93901Z" fill="inherit"/>
<path d="M8.82797 5.93901H7.65613C7.33254 5.93901 7.07019 6.20135 7.07019 6.52495C7.07019 6.84854 7.3325 7.11088 7.65613 7.11088H8.82797C9.15156 7.11088 9.41391 6.84854 9.41391 6.52495C9.41391 6.20135 9.15156 5.93901 8.82797 5.93901Z" fill="inherit"/>
</svg>
