<svg viewBox="0 0 20 20" xmlns="http://www.w3.org/2000/svg">
<path d="M14.888 20.0012C13.3647 20.0012 11.4959 19.2998 9.4371 17.9177C5.27438 15.1244 0.402926 9.3916 0.0253626 5.51794C-0.0953649 4.27905 0.215304 3.27942 0.948946 2.54578L3.4935 0.0012207L8.67477 5.18249L8.26047 5.5968C7.59958 6.25781 6.51657 7.3385 5.74228 8.10754C6.45456 9.15356 7.82956 10.6993 8.84409 11.7139C9.80441 12.6733 10.9156 13.5467 11.9171 14.2157C12.6385 13.4895 13.6096 12.5155 14.4038 11.7196L14.8187 11.3049L20 16.4873L17.4863 19.001C16.8173 19.6699 15.9344 20.0012 14.888 20.0012Z" fill="inherit"/>
</svg>
