<svg viewBox="0 0 20 20" xmlns="http://www.w3.org/2000/svg">
<path d="M10.6092 8.56337L10.1387 9.03392C10.1098 9.0204 10.0806 9.00732 10.0508 8.99524C9.39494 8.72962 8.64779 8.8813 8.1474 9.38165C7.46205 10.067 7.46205 11.1822 8.1474 11.8675C8.37588 12.096 8.37588 12.4677 8.1474 12.6962C7.97377 12.8698 7.70775 12.9168 7.48537 12.8133C7.19498 12.6779 7.05244 12.325 7.09416 11.8451C7.12221 11.5227 6.88361 11.2386 6.56123 11.2106C6.23893 11.1825 5.95475 11.4211 5.9267 11.7435C5.88436 12.23 5.96022 12.6706 6.1383 13.0342L5.63732 13.5352C5.4085 13.764 5.4085 14.135 5.63732 14.3638C5.86611 14.5927 6.23713 14.5927 6.46596 14.3638L6.96623 13.8636C6.97432 13.8675 6.98221 13.8717 6.99037 13.8754C7.22662 13.9855 7.47916 14.039 7.7301 14.039C8.18775 14.0389 8.63982 13.8611 8.97604 13.5249C9.66143 12.8395 9.66143 11.7243 8.97604 11.0389C8.7476 10.8104 8.7476 10.4387 8.97604 10.2103C9.14295 10.0434 9.39213 9.99282 9.61088 10.0815C9.8749 10.1884 10.03 10.4775 10.0362 10.8747C10.0413 11.1982 10.3067 11.4568 10.6313 11.4513C10.9549 11.4461 11.2131 11.1797 11.2079 10.8561C11.2021 10.484 11.1206 10.1447 10.9747 9.85513L11.4378 9.39208C11.6666 9.16325 11.6666 8.79228 11.4378 8.56345C11.209 8.33454 10.838 8.33454 10.6092 8.56337Z" fill="inherit"/>
<path d="M17.0703 0.0012207C15.6754 0.0012207 14.4764 0.984111 14.2 2.34497H10.039C9.88361 2.34497 9.73463 2.40673 9.62475 2.51661L0.171621 11.9697C-0.057207 12.1986 -0.057207 12.5695 0.171621 12.7984L7.20287 19.8296C7.43166 20.0584 7.80268 20.0585 8.0315 19.8296L17.4846 10.3765C17.5945 10.2666 17.6562 10.1176 17.6562 9.96216V5.80165C18.9919 5.52946 20 4.34575 20 2.93091C20 1.31548 18.6857 0.0012207 17.0703 0.0012207ZM13.969 6.86083C13.7405 7.08935 13.3688 7.08927 13.1403 6.86083C12.9113 6.63181 12.9113 6.26122 13.1403 6.0322C13.3687 5.80376 13.7405 5.80372 13.969 6.0322C14.198 6.26122 14.198 6.63181 13.969 6.86083ZM16.4844 9.71946L7.61717 18.5867L1.41455 12.384L10.2817 3.51685H14.051L13.9027 4.72435C13.345 4.61255 12.7432 4.77212 12.3117 5.2036C11.6263 5.88896 11.6263 7.00415 12.3117 7.68954C12.9971 8.37485 14.1122 8.37489 14.7976 7.68954C15.4088 7.07833 15.4745 6.12544 14.9954 5.44024L15.2316 3.51685H16.4844V9.71946ZM17.6562 4.58794V2.93091C17.6562 2.60731 17.3939 2.34497 17.0703 2.34497H15.4125C15.6562 1.65243 16.3154 1.1731 17.0703 1.1731C18.0396 1.1731 18.8281 1.96165 18.8281 2.93091C18.8281 3.69478 18.3382 4.34606 17.6562 4.58794Z" fill="inherit"/>
</svg>
