<svg width="24" height="24" viewBox="0 0 24 24" fill="none" xmlns="http://www.w3.org/2000/svg">
<path d="M12.731 10.2746L12.1664 10.8392C12.1317 10.823 12.0968 10.8073 12.061 10.7928C11.2739 10.4741 10.3774 10.6561 9.77688 11.2565C8.95446 12.0789 8.95446 13.4172 9.77688 14.2396C10.0511 14.5138 10.0511 14.9598 9.77688 15.234C9.56852 15.4423 9.2493 15.4988 8.98245 15.3744C8.63398 15.2121 8.46293 14.7886 8.51299 14.2126C8.54665 13.8258 8.26034 13.4849 7.87348 13.4512C7.48671 13.4176 7.1457 13.7039 7.11204 14.0907C7.06123 14.6745 7.15226 15.2032 7.36596 15.6396L6.76479 16.2408C6.4902 16.5154 6.4902 16.9606 6.76479 17.2351C7.03934 17.5097 7.48456 17.5098 7.75915 17.2351L8.35948 16.6348C8.36918 16.6395 8.37865 16.6445 8.38844 16.6491C8.67194 16.7812 8.97499 16.8453 9.27612 16.8453C9.8253 16.8452 10.3678 16.6318 10.7712 16.2284C11.5937 15.4059 11.5937 14.0677 10.7712 13.2452C10.4971 12.9711 10.4971 12.525 10.7712 12.2509C10.9715 12.0506 11.2706 11.9899 11.5331 12.0963C11.8499 12.2246 12.036 12.5715 12.0435 13.0481C12.0496 13.4364 12.368 13.7467 12.7576 13.74C13.1459 13.7339 13.4557 13.4142 13.4495 13.0259C13.4425 12.5793 13.3447 12.1721 13.1696 11.8247L13.7253 11.269C13.9999 10.9944 13.9999 10.5493 13.7253 10.2747C13.4508 9.99999 13.0056 9.99999 12.731 10.2746Z" fill="#007BFF"/>
<path d="M20.4844 0C18.8105 0 17.3717 1.17947 17.04 2.8125H12.0469C11.8603 2.8125 11.6816 2.88661 11.5497 3.01847L0.205945 14.3622C-0.0686484 14.6368 -0.0686484 15.082 0.205945 15.3566L8.64345 23.7941C8.91799 24.0687 9.36321 24.0687 9.6378 23.7941L20.9816 12.4503C21.1134 12.3184 21.1875 12.1396 21.1875 11.9531V6.96052C22.7902 6.63389 24 5.21344 24 3.51563C24 1.57711 22.4229 0 20.4844 0ZM16.7628 8.23153C16.4886 8.50575 16.0426 8.50566 15.7684 8.23153C15.4936 7.9567 15.4936 7.512 15.7684 7.23717C16.0425 6.96305 16.4886 6.963 16.7628 7.23717C17.0376 7.512 17.0376 7.9567 16.7628 8.23153ZM19.7812 11.6619L9.1406 22.3025L1.69746 14.8594L12.3381 4.21875H16.8611L16.6832 5.66775C16.014 5.53359 15.2918 5.72508 14.774 6.24286C13.9516 7.06528 13.9516 8.40352 14.774 9.22599C15.5965 10.0484 16.9347 10.0484 17.7571 9.22599C18.4906 8.49253 18.5694 7.34906 17.9945 6.52683L18.2779 4.21875H19.7812V11.6619ZM21.1875 5.50406V3.51563C21.1875 3.12731 20.8727 2.8125 20.4844 2.8125H18.495C18.7875 1.98145 19.5785 1.40625 20.4844 1.40625C21.6475 1.40625 22.5937 2.35252 22.5937 3.51563C22.5937 4.43227 22.0059 5.21381 21.1875 5.50406Z" fill="#007BFF"/>
</svg>
