<svg width="34" height="40" viewBox="0 0 34 40" fill="none" xmlns="http://www.w3.org/2000/svg">
<path d="M0.71918 35.8119C1.03309 36.1548 1.51997 36.2797 1.96029 36.1303L6.97716 34.4268L9.07453 39.292C9.25906 39.7201 9.67977 39.9981 10.1459 40H10.1507C10.6149 40 11.0356 39.7259 11.223 39.3008L15.1326 30.4328C15.7448 30.5079 16.3678 30.5474 17 30.5474C17.6322 30.5474 18.2553 30.508 18.8675 30.4328L22.7771 39.3008C22.9644 39.7259 23.3851 40.0001 23.8494 40H23.8543C24.3204 39.9981 24.7411 39.7201 24.9256 39.292L27.0231 34.4268L32.0399 36.1303C32.4799 36.2797 32.9671 36.1549 33.281 35.8119C33.595 35.469 33.6766 34.9729 33.4888 34.5475L29.0883 24.573C31.0604 22.0048 32.2347 18.7935 32.2347 15.3127C32.2347 6.86924 25.4005 0 17.0001 0C8.59976 0 1.76552 6.86924 1.76552 15.3127C1.76552 18.7935 2.93983 22.0048 4.91189 24.573L0.511364 34.5475C0.323706 34.9729 0.405191 35.469 0.71918 35.8119ZM30.2679 33.0533L26.752 31.8595C26.1734 31.6629 25.541 31.9442 25.299 32.5053L23.8374 35.8958L21.2175 29.953C23.5409 29.2827 25.6373 28.0727 27.3629 26.4687L30.2679 33.0533ZM4.1093 15.3127C4.1093 8.1616 9.89212 2.34378 17.0001 2.34378C24.1081 2.34378 29.8909 8.1616 29.8909 15.3127C29.8909 22.4207 24.1081 28.2035 17.0001 28.2035C9.89212 28.2035 4.1093 22.4207 4.1093 15.3127ZM6.63723 26.4687C8.36288 28.0727 10.4593 29.2827 12.7827 29.953L10.1627 35.8957L8.70116 32.5052C8.45921 31.944 7.82678 31.6629 7.24825 31.8594L3.73235 33.0533L6.63723 26.4687Z" fill="#007BFF"/>
<path d="M12.3973 16.8083L11.7121 20.8031C11.6367 21.2427 11.8174 21.6871 12.1782 21.9493C12.5385 22.211 13.0169 22.2464 13.4124 22.0385L17 20.1524L20.5876 22.0385C20.9825 22.2461 21.461 22.2115 21.8217 21.9493C22.1826 21.6871 22.3634 21.2428 22.288 20.8031L21.6028 16.8083L24.5052 13.9791C24.8246 13.6678 24.9396 13.2021 24.8017 12.7778C24.6638 12.3536 24.2972 12.0444 23.8557 11.9802L19.8447 11.3974L18.0509 7.76284C17.8535 7.36283 17.4461 7.10955 17 7.10955C16.554 7.10955 16.1466 7.36276 15.9492 7.76284L14.1554 11.3974L10.1443 11.9802C9.7029 12.0444 9.33609 12.3536 9.19828 12.7778C9.06039 13.2021 9.17539 13.6678 9.49477 13.9792L12.3973 16.8083ZM15.1021 13.6282C15.4838 13.5727 15.8138 13.333 15.9845 12.9871L17 10.9293L18.0156 12.9871C18.1863 13.3329 18.5163 13.5727 18.8979 13.6282L21.1688 13.9582L19.5256 15.5599C19.2494 15.8291 19.1234 16.217 19.1887 16.5972L19.5765 18.8589L17.5453 17.7911C17.204 17.6116 16.7961 17.6116 16.4547 17.7911L14.4235 18.8589L14.8114 16.5972C14.8766 16.217 14.7505 15.8291 14.4744 15.5599L12.8311 13.9582L15.1021 13.6282Z" fill="#007BFF"/>
</svg>
