<svg viewBox="0 0 20 20" xmlns="http://www.w3.org/2000/svg">
<path d="M9.99707 0C8.01926 0 6.08586 0.586489 4.44137 1.6853C2.79688 2.78412 1.51516 4.3459 0.758279 6.17316C0.00140322 8.00042 -0.19663 10.0111 0.189222 11.9509C0.575074 13.8907 1.52748 15.6725 2.92601 17.0711C4.32453 18.4696 6.10636 19.422 8.04617 19.8078C9.98598 20.1937 11.9966 19.9957 13.8239 19.2388C15.6512 18.4819 17.213 17.2002 18.3118 15.5557C19.4106 13.9112 19.9971 11.9778 19.9971 10C19.9939 7.34879 18.9394 4.80707 17.0647 2.93239C15.19 1.0577 12.6483 0.0031277 9.99707 0ZM13.3671 13.37C13.1966 13.5404 12.9654 13.6362 12.7243 13.6362C12.4833 13.6362 12.2521 13.5404 12.0816 13.37L9.35435 10.6427C9.18385 10.4723 9.08803 10.2411 9.08798 10V4.54545C9.08798 4.30435 9.18376 4.07312 9.35425 3.90263C9.52474 3.73214 9.75597 3.63636 9.99707 3.63636C10.2382 3.63636 10.4694 3.73214 10.6399 3.90263C10.8104 4.07312 10.9062 4.30435 10.9062 4.54545V9.62363L13.3671 12.0845C13.5375 12.255 13.6332 12.4862 13.6332 12.7273C13.6332 12.9683 13.5375 13.1995 13.3671 13.37Z" fill="inherit"/>
</svg>
