<svg viewBox="0 0 20 20" xmlns="http://www.w3.org/2000/svg">
<path d="M17.0721 2.9375C15.2596 1.125 12.7596 0 9.99707 0C7.23457 0 4.73457 1.125 2.93457 2.9375C1.12207 4.7375 -0.00292969 7.2375 -0.00292969 10C-0.00292969 15.525 4.48457 20 9.99707 20C12.7596 20 15.2596 18.8875 17.0721 17.075C18.8846 15.2625 19.9971 12.7625 19.9971 10C19.9971 7.2375 18.8846 4.7375 17.0721 2.9375ZM11.9596 10.625L14.9971 13.675C15.3596 14.0375 15.3596 14.625 14.9971 15C14.8096 15.175 14.5721 15.275 14.3346 15.275C14.0971 15.275 13.8471 15.175 13.6721 15L10.6346 11.95C10.2846 11.6125 9.73457 11.6125 9.38457 11.95L6.33457 15C6.15957 15.175 5.90957 15.275 5.67207 15.275C5.43457 15.275 5.19707 15.175 5.00957 15C4.64707 14.625 4.64707 14.0375 5.00957 13.675L8.05957 10.6375C8.40957 10.2875 8.40957 9.73749 8.05957 9.38749L5.00957 6.3375C4.64707 5.975 4.64707 5.37499 5.00957 5.01249C5.37207 4.64999 5.97207 4.64999 6.33457 5.01249L9.38457 8.0625C9.73457 8.4125 10.2846 8.4125 10.6346 8.0625L13.6721 5.01249C14.0346 4.64999 14.6346 4.64999 14.9971 5.01249C15.3596 5.37499 15.3596 5.975 14.9971 6.3375L11.9471 9.38749C11.6096 9.73749 11.6096 10.2875 11.9596 10.625Z" fill="inherit"/>
</svg>
