<svg viewBox="0 0 20 20" xmlns="http://www.w3.org/2000/svg">
<path d="M16.6097 0.0012207H2.46341C2.07529 0.0012207 1.70307 0.155401 1.42862 0.429844C1.15418 0.704288 1 1.07651 1 1.46463V18.2939C1.00038 18.6142 1.09245 18.9278 1.26533 19.1975C1.43821 19.4672 1.68468 19.6817 1.97561 19.8158C2.21028 19.939 2.47158 20.0026 2.73658 20.0012C3.08902 19.9897 3.42948 19.8705 3.71219 19.6597L8.9317 15.7573C9.10057 15.6306 9.30597 15.5622 9.51706 15.5622C9.72816 15.5622 9.93356 15.6306 10.1024 15.7573L15.3219 19.6597C15.5756 19.85 15.8772 19.9658 16.193 19.9943C16.5088 20.0228 16.8263 19.9628 17.1099 19.821C17.3935 19.6792 17.632 19.4612 17.7987 19.1915C17.9653 18.9218 18.0536 18.611 18.0536 18.2939V1.46463C18.0537 1.07987 17.9022 0.710572 17.6319 0.436682C17.3617 0.162793 16.9945 0.00635089 16.6097 0.0012207Z" fill="inherit"/>
</svg>
