<svg viewBox="0 0 20 20" xmlns="http://www.w3.org/2000/svg">
<path d="M19.9968 4.17761V5.10319C19.9968 5.45341 19.7183 5.71606 19.3765 5.71606H0.629677C0.275247 5.71606 0.00942414 5.4409 0.00942414 5.10319V4.17761C0.00942414 2.81425 1.13601 1.71356 2.5031 1.71356H3.55373V0.925585C3.55373 0.412765 3.98411 0 4.49044 0C5.00942 0 5.42715 0.412765 5.42715 0.925585V1.71356H14.579V0.925585C14.579 0.412765 14.9968 0 15.5158 0C16.0221 0 16.4525 0.412765 16.4525 0.925585V1.71356H17.5031C18.8702 1.70106 19.9968 2.81425 19.9968 4.17761Z" fill="inherit"/>
<path fill-rule="evenodd" clip-rule="evenodd" d="M19.3642 6.94189H0.629982C0.275551 6.94189 -0.00292969 7.21707 -0.00292969 7.56729V17.5235C-0.00292969 18.8868 1.12365 20.0001 2.5034 20.0001H17.4907C18.8705 20.0001 19.9971 18.8868 19.9971 17.5235V7.56729C19.9971 7.21707 19.7186 6.94189 19.3642 6.94189ZM5.26289 17.2984C5.56827 17.2984 5.80787 17.0941 5.86834 16.8135C5.87813 16.7683 5.88326 16.7211 5.88326 16.6724V15.0089C5.88326 14.6712 5.61744 14.396 5.26301 14.396H3.60478C3.29663 14.396 3.04589 14.604 2.98567 14.8803C2.97654 14.9219 2.97175 14.9651 2.97175 15.0094V16.673C2.97175 17.0232 3.25024 17.2984 3.60467 17.2984H5.26289ZM5.84563 12.1479C5.76048 12.384 5.53847 12.5579 5.26289 12.5579H3.60467C3.25024 12.5579 2.97175 12.2702 2.97175 11.9325V10.269C2.97175 10.193 2.98486 10.1211 3.00902 10.0551C3.09609 9.81695 3.32713 9.65576 3.60478 9.65576H5.26301C5.61744 9.65576 5.88326 9.91841 5.88326 10.2686V11.9322C5.88326 12.0074 5.87006 12.0802 5.84563 12.1479ZM11.4654 16.673C11.4654 17.0232 11.1869 17.2984 10.8325 17.2984H9.16163C8.94968 17.2984 8.76941 17.2 8.65873 17.0459C8.58409 16.9423 8.54098 16.8135 8.54098 16.6724V15.0089C8.54098 14.6712 8.8068 14.396 9.16123 14.396H10.8321C11.0496 14.396 11.2385 14.4996 11.352 14.6577C11.4237 14.7574 11.4654 14.8787 11.4654 15.0094V16.673ZM11.4654 11.9325C11.4654 12.2702 11.1869 12.5579 10.8325 12.5579H9.16163C9.01062 12.5579 8.8757 12.5057 8.77057 12.4196C8.62871 12.3037 8.54098 12.1262 8.54098 11.9322V10.2686C8.54098 9.91841 8.8068 9.65576 9.16123 9.65576H10.8321C10.9914 9.65576 11.1354 9.70883 11.2456 9.79906C11.3809 9.90957 11.4654 10.076 11.4654 10.269V11.9325ZM16.3895 17.2984C16.7115 17.2984 16.9708 17.0713 17.0155 16.7671C17.0201 16.7363 17.0225 16.7047 17.0225 16.6724V15.0089C17.0225 14.6712 16.744 14.396 16.3896 14.396H14.7313C14.4093 14.396 14.1605 14.6231 14.1176 14.9179C14.1132 14.9478 14.111 14.9783 14.111 15.0094V16.673C14.111 17.0232 14.3768 17.2984 14.7312 17.2984H16.3895ZM16.9984 12.102C16.9238 12.3611 16.6826 12.5579 16.3895 12.5579H14.7312C14.3768 12.5579 14.111 12.2702 14.111 11.9325V10.269C14.111 10.2149 14.1173 10.1629 14.1294 10.1136C14.1951 9.84369 14.4315 9.65576 14.7313 9.65576H16.3896C16.744 9.65576 17.0225 9.91841 17.0225 10.2686V11.9322C17.0225 11.9745 17.0181 12.016 17.0097 12.0563C17.0065 12.0717 17.0028 12.087 16.9984 12.102Z" fill="inherit"/>
</svg>
