<svg width="40" height="40" viewBox="0 0 40 40" fill="none" xmlns="http://www.w3.org/2000/svg">
<path d="M24.1922 16.661L18.7448 22.1085L16.4353 19.7991C15.9777 19.3415 15.2357 19.3415 14.778 19.7991C14.3204 20.2566 14.3204 20.9987 14.778 21.4563L17.9161 24.5944C18.1359 24.8141 18.4339 24.9376 18.7447 24.9376C19.0555 24.9376 19.3536 24.8142 19.5733 24.5944L25.8493 18.3183C26.307 17.8607 26.307 17.1187 25.8493 16.661C25.3919 16.2034 24.6498 16.2034 24.1922 16.661Z" fill="#007BFF"/>
<path d="M20 7.53132C13.1247 7.53132 7.53125 13.1248 7.53125 20.0001C7.53125 26.8754 13.1247 32.4688 20 32.4688C26.8753 32.4688 32.4688 26.8754 32.4688 20.0001C32.4688 13.1248 26.8753 7.53132 20 7.53132ZM20 30.1251C14.417 30.1251 9.875 25.583 9.875 20.0001C9.875 14.4171 14.417 9.87507 20 9.87507C25.583 9.87507 30.125 14.4171 30.125 20.0001C30.125 25.583 25.583 30.1251 20 30.1251Z" fill="#007BFF"/>
<path d="M39.7966 17.1405C39.7298 16.6744 39.3904 16.2934 38.9349 16.1737L36.9432 15.6495C36.5333 14.0489 35.9004 12.5234 35.0551 11.0984L36.0943 9.31641C36.3314 8.90969 36.3022 8.40062 36.0201 8.02375C35.4518 7.26453 34.82 6.53586 34.1421 5.85773C33.4658 5.18117 32.737 4.5493 31.976 3.97945C31.5991 3.69727 31.09 3.66797 30.6831 3.90539L28.9014 4.94477C27.4765 4.0993 25.9509 3.46641 24.3504 3.05648L23.8263 1.06484C23.7064 0.609453 23.3257 0.27 22.8595 0.203047C20.9794 -0.0670312 19.0205 -0.0670312 17.1404 0.203047C16.6742 0.269922 16.2935 0.609375 16.1737 1.06484L15.6495 3.05648C14.049 3.46633 12.5236 4.09922 11.0985 4.94477L9.3168 3.90539C8.91008 3.66812 8.40078 3.69742 8.02391 3.97945C7.26305 4.54922 6.53422 5.18109 5.85773 5.85773C5.17992 6.53578 4.54812 7.26445 3.97984 8.02367C3.69773 8.40055 3.66852 8.90961 3.90562 9.31633L4.94484 11.0984C4.09945 12.5234 3.46656 14.0489 3.05672 15.6495L1.065 16.1736C0.609531 16.2934 0.270078 16.6743 0.203281 17.1405C0.0684375 18.081 0 19.043 0 20C0 20.957 0.0684375 21.919 0.203359 22.8595C0.270156 23.3256 0.609609 23.7066 1.06508 23.8263L3.0568 24.3505C3.46672 25.9511 4.09961 27.4766 4.94492 28.9016L3.9057 30.6836C3.66859 31.0903 3.69781 31.5994 3.97992 31.9762C4.5482 32.7355 5.18 33.4641 5.85789 34.1423C6.53422 34.8188 7.26305 35.4507 8.02398 36.0205C8.40086 36.3027 8.91 36.332 9.31687 36.0946L11.0986 35.0552C12.5235 35.9007 14.0491 36.5336 15.6496 36.9434L16.1737 38.9351C16.2936 39.3905 16.6743 39.7299 17.1405 39.7969C18.0805 39.932 19.0427 40.0005 20 40.0005C20.9573 40.0005 21.9195 39.932 22.8596 39.797C23.3258 39.7301 23.7065 39.3907 23.8263 38.9352L24.3505 36.9436C25.951 36.5337 27.4764 35.9009 28.9015 35.0554L30.6832 36.0948C31.0901 36.3322 31.5993 36.3029 31.9761 36.0207C32.737 35.4509 33.4658 34.8191 34.1423 34.1424C34.8201 33.4644 35.4519 32.7357 36.0202 31.9765C36.3023 31.5996 36.3315 31.0905 36.0944 30.6838L35.0552 28.9018C35.9005 27.4767 36.5334 25.9513 36.9433 24.3507L38.935 23.8266C39.3905 23.7068 39.7299 23.3259 39.7967 22.8597C39.9316 21.9192 40.0001 20.9572 40.0001 20.0002C40.0001 19.0433 39.9316 18.081 39.7966 17.1405ZM37.5693 21.7622L35.6649 22.2633C35.2368 22.3759 34.9087 22.7203 34.8168 23.1534C34.4317 24.9689 33.7213 26.6814 32.7052 28.2437C32.4637 28.6148 32.4521 29.0905 32.6752 29.473L33.6691 31.1776C33.2976 31.6309 32.9011 32.0688 32.4848 32.4853C32.0692 32.9009 31.6314 33.2975 31.1773 33.6695L29.4732 32.6753C29.0905 32.4523 28.615 32.4638 28.2437 32.7053C26.6815 33.7216 24.9689 34.432 23.1537 34.817C22.7205 34.9089 22.3762 35.237 22.2635 35.6652L21.7623 37.5696C20.5945 37.6852 19.4059 37.6852 18.238 37.5696L17.7369 35.6652C17.6242 35.237 17.2798 34.9089 16.8467 34.817C15.0313 34.432 13.3187 33.7216 11.7567 32.7053C11.3855 32.4638 10.9098 32.4523 10.5272 32.6753L8.82305 33.6695C8.36891 33.2974 7.93125 32.901 7.5157 32.4854C7.09937 32.0688 6.70281 31.6309 6.33125 31.1776L7.32523 29.473C7.54828 29.0905 7.53664 28.6148 7.29523 28.2437C6.27914 26.6815 5.56867 24.9689 5.18359 23.1534C5.09164 22.7203 4.76359 22.3759 4.33547 22.2633L2.43109 21.7622C2.37297 21.178 2.34375 20.5881 2.34375 20C2.34375 19.4119 2.37297 18.822 2.4307 18.2378L4.33508 17.7367C4.7632 17.6241 5.09133 17.2797 5.1832 16.8466C5.56828 15.0311 6.27867 13.3186 7.29484 11.7563C7.53625 11.3852 7.54789 10.9095 7.32484 10.527L6.33086 8.82242C6.70242 8.36906 7.09891 7.93125 7.51523 7.51469C7.93078 7.09906 8.36859 6.7025 8.82266 6.33039L10.5268 7.32461C10.9095 7.54781 11.3851 7.53617 11.7563 7.29461C13.3185 6.27836 15.0311 5.56789 16.8463 5.18289C17.2795 5.09102 17.6237 4.76289 17.7365 4.33469L18.2377 2.43031C19.4055 2.31469 20.5941 2.31469 21.762 2.43031L22.2631 4.33469C22.3758 4.76289 22.7202 5.09102 23.1533 5.18289C24.9687 5.56789 26.6812 6.27836 28.2433 7.29461C28.6146 7.53617 29.0904 7.54781 29.4728 7.32461L31.177 6.33039C31.6311 6.7025 32.0687 7.09891 32.4843 7.51461C32.9006 7.93117 33.2972 8.36906 33.6688 8.82242L32.6748 10.527C32.4517 10.9095 32.4634 11.3852 32.7048 11.7563C33.7209 13.3185 34.4313 15.0311 34.8164 16.8466C34.9084 17.2797 35.2364 17.6241 35.6645 17.7367L37.5689 18.2378C37.6266 18.822 37.6559 19.412 37.6559 20C37.6559 20.588 37.627 21.178 37.5693 21.7622Z" fill="#007BFF"/>
</svg>
