<svg viewBox="0 0 24 24" fill="none" xmlns="http://www.w3.org/2000/svg">
<path d="M23.7941 5.05411C23.9586 4.88964 24.031 4.65445 23.9876 4.42591C23.9443 4.19737 23.7906 4.00507 23.5773 3.91231L21.2073 2.8815L20.3756 0.479797C20.2963 0.250931 20.1048 0.0789655 19.8688 0.0246902C19.6328 -0.0294913 19.3854 0.0414696 19.2141 0.212732L17.8735 1.5534C16.0696 0.555398 14.0021 0.01002 11.9918 0.01002C8.78866 0.01002 5.77727 1.25737 3.51229 3.52235C1.2473 5.78734 0 8.79868 0 12.0018C0 15.2049 1.24735 18.2163 3.51233 20.4812C5.77727 22.7462 8.78871 23.9936 11.9918 23.9936C15.195 23.9936 18.2064 22.7462 20.4714 20.4812C22.7363 18.2163 23.9837 15.2049 23.9837 12.0018C23.9837 10.0064 23.4873 8.04825 22.5443 6.30394L23.7941 5.05411ZM18.8697 7.99004L17.4167 7.60013L20.801 4.2381L22.0698 4.78995L18.8697 7.99004ZM18.6049 12.0018C18.6049 15.6482 15.6383 18.6149 11.9918 18.6149C8.34532 18.6149 5.37869 15.6482 5.37869 12.0018C5.37869 8.3553 8.34532 5.38867 11.9918 5.38867C13.0898 5.38867 14.0256 5.6053 14.9215 6.0679L15.2841 7.73666L14.3926 8.62231C13.7146 8.13927 12.8858 7.85491 11.9918 7.85491C9.70511 7.85491 7.84485 9.71518 7.84485 12.0018C7.84485 14.2885 9.70511 16.1487 11.9918 16.1487C14.2784 16.1487 16.1387 14.2885 16.1387 12.0018C16.1387 11.1158 15.8592 10.2939 15.3841 9.61937L16.2629 8.74633L17.9919 9.21034C18.4094 10.0652 18.6049 10.9566 18.6049 12.0018ZM14.7326 12.0018C14.7326 13.513 13.5031 14.7426 11.9918 14.7426C10.4805 14.7426 9.25099 13.513 9.25099 12.0018C9.25099 10.4905 10.4805 9.26096 11.9918 9.26096C12.4951 9.26096 12.9667 9.39791 13.3725 9.63564L11.4718 11.5239C11.1963 11.7975 11.1949 12.2427 11.4685 12.5181C11.6059 12.6564 11.7866 12.7257 11.9673 12.7257C12.1464 12.7257 12.3257 12.6576 12.4627 12.5214L14.3644 10.6323C14.5981 11.0356 14.7326 11.5031 14.7326 12.0018ZM19.4143 2.00096L19.835 3.21564L16.4676 6.56093L16.1797 5.23568L19.4143 2.00096ZM22.5775 12.0018C22.5775 14.8293 21.4764 17.4876 19.477 19.487C17.4776 21.4864 14.8193 22.5874 11.9918 22.5874C9.16428 22.5874 6.50596 21.4863 4.50659 19.487C2.50721 17.4876 1.4061 14.8293 1.4061 12.0018C1.4061 9.17421 2.50721 6.51593 4.50659 4.5166C6.50596 2.51723 9.16428 1.41612 11.9918 1.41612C13.6354 1.41612 15.3243 1.83021 16.8335 2.5933L14.914 4.51281C14.9121 4.51468 14.9105 4.51665 14.9086 4.51853C14.0066 4.15899 13.0447 3.98257 11.9918 3.98257C7.56995 3.98257 3.97255 7.57997 3.97255 12.0018C3.97255 16.4236 7.56995 20.021 11.9918 20.021C16.4135 20.021 20.011 16.4236 20.011 12.0018C20.011 11.0117 19.8639 10.1311 19.5545 9.29147C19.5619 9.28472 19.5696 9.27849 19.5767 9.27137L21.5007 7.34745C22.2073 8.79001 22.5775 10.3819 22.5775 12.0018Z" fill="#007BFF"/>
</svg>
