<svg width="24" height="24" viewBox="0 0 24 24" fill="none" xmlns="http://www.w3.org/2000/svg">
<path d="M8.48438 14.1094C8.09606 14.1094 7.78125 14.4242 7.78125 14.8125V16.2188C7.78125 16.6071 8.09606 16.9219 8.48438 16.9219C8.87269 16.9219 9.1875 16.6071 9.1875 16.2188V14.8125C9.1875 14.4242 8.87269 14.1094 8.48438 14.1094Z" fill="#007BFF"/>
<path d="M15.5156 16.9219C15.9039 16.9219 16.2188 16.6071 16.2188 16.2188V14.8125C16.2188 14.4242 15.9039 14.1094 15.5156 14.1094C15.1273 14.1094 14.8125 14.4242 14.8125 14.8125V16.2188C14.8125 16.6071 15.1273 16.9219 15.5156 16.9219Z" fill="#007BFF"/>
<path d="M12.75 4.96875H20.4375C20.8258 4.96875 21.1406 4.65394 21.1406 4.26562C21.1406 3.87731 20.8258 3.5625 20.4375 3.5625H12.75C12.3617 3.5625 12.0469 3.87731 12.0469 4.26562C12.0469 4.65394 12.3617 4.96875 12.75 4.96875Z" fill="#007BFF"/>
<path d="M24 8.25V3.04688C24 1.36683 22.6332 0 20.9531 0H12.2344C10.5543 0 9.1875 1.36683 9.1875 3.04688V8.48438H8.25C5.67998 8.48438 3.52458 10.2923 2.98805 12.7031H2.85938V8.36344C3.67777 8.07319 4.26562 7.29164 4.26562 6.375C4.26562 5.21189 3.31936 4.26562 2.15625 4.26562C0.993141 4.26562 0.046875 5.21189 0.046875 6.375C0.046875 7.29164 0.634734 8.07319 1.45312 8.36344V12.8082C0.610453 13.0848 0 13.8785 0 14.8125V17.625C0 18.7881 0.946266 19.7344 2.10938 19.7344H2.97783C3.49669 22.1685 5.66334 24 8.25 24H15.75C18.3367 24 20.5033 22.1685 21.0222 19.7344H21.8906C23.0537 19.7344 24 18.7881 24 17.625V14.8125C24 13.6494 23.0537 12.7031 21.8906 12.7031H21.0117C20.9024 12.2119 20.725 11.7386 20.4845 11.2969H20.9531C22.6332 11.2969 24 9.93005 24 8.25ZM10.5938 3.04688C10.5938 2.14223 11.3297 1.40625 12.2344 1.40625H20.9531C21.8578 1.40625 22.5938 2.14223 22.5938 3.04688V8.25C22.5938 9.15464 21.8578 9.89062 20.9531 9.89062H12.7031C12.594 9.89062 12.4863 9.91603 12.3887 9.96483L10.5938 10.8623V3.04688ZM2.15625 5.67188C2.54395 5.67188 2.85938 5.9873 2.85938 6.375C2.85938 6.7627 2.54395 7.07812 2.15625 7.07812C1.76855 7.07812 1.45312 6.7627 1.45312 6.375C1.45312 5.9873 1.76855 5.67188 2.15625 5.67188ZM1.40625 17.625V14.8125C1.40625 14.4248 1.72167 14.1094 2.10938 14.1094H2.85938V18.3281H2.10938C1.72167 18.3281 1.40625 18.0127 1.40625 17.625ZM22.5938 14.8125V17.625C22.5938 18.0127 22.2783 18.3281 21.8906 18.3281H21.1406V14.1094H21.8906C22.2783 14.1094 22.5938 14.4248 22.5938 14.8125ZM19.7344 13.875V18.6094C19.7344 20.8064 17.947 22.5938 15.75 22.5938H8.25C6.05302 22.5938 4.26562 20.8064 4.26562 18.6094V13.875C4.26562 11.678 6.05302 9.89062 8.25 9.89062H9.1875V12C9.1875 12.5218 9.73791 12.8625 10.2051 12.6289L12.8691 11.2969H18.7867C19.3978 12.0161 19.7344 12.9283 19.7344 13.875Z" fill="#007BFF"/>
<path d="M12.75 7.78125H20.4375C20.8258 7.78125 21.1406 7.46644 21.1406 7.07812C21.1406 6.68981 20.8258 6.375 20.4375 6.375H12.75C12.3617 6.375 12.0469 6.68981 12.0469 7.07812C12.0469 7.46644 12.3617 7.78125 12.75 7.78125Z" fill="#007BFF"/>
<path d="M9.89062 19.0312C9.89062 19.4196 10.2054 19.7344 10.5938 19.7344H13.4062C13.7946 19.7344 14.1094 19.4196 14.1094 19.0312C14.1094 18.6429 13.7946 18.3281 13.4062 18.3281H10.5938C10.2054 18.3281 9.89062 18.6429 9.89062 19.0312Z" fill="#007BFF"/>
</svg>
