<svg width="24" height="24" viewBox="0 0 24 24" fill="none" xmlns="http://www.w3.org/2000/svg">
<path d="M12 0C5.39255 0 0 5.39292 0 12C0 18.6075 5.39292 24 12 24C18.6075 24 24 18.607 24 12C24 5.39255 18.6071 0 12 0ZM12 22.5938C6.15858 22.5938 1.40625 17.8414 1.40625 12C1.40625 6.15858 6.15858 1.40625 12 1.40625C17.8414 1.40625 22.5938 6.15858 22.5938 12C22.5938 17.8414 17.8414 22.5938 12 22.5938Z" fill="#007BFF"/>
<path d="M6.0338 18.6693C6.42212 18.6693 6.73692 18.3545 6.73692 17.9662C6.73692 17.5779 6.42212 17.2631 6.0338 17.2631C5.64547 17.2631 5.33067 17.5779 5.33067 17.9662C5.33067 18.3545 5.64547 18.6693 6.0338 18.6693Z" fill="#007BFF"/>
<path d="M17.9662 6.73692C18.3545 6.73692 18.6693 6.42212 18.6693 6.0338C18.6693 5.64547 18.3545 5.33067 17.9662 5.33067C17.5779 5.33067 17.2631 5.64547 17.2631 6.0338C17.2631 6.42212 17.5779 6.73692 17.9662 6.73692Z" fill="#007BFF"/>
<path d="M5.53659 5.53659C5.262 5.81119 5.262 6.25636 5.53659 6.53095C5.81119 6.80555 6.25636 6.80555 6.53095 6.53095C6.80555 6.25636 6.80555 5.81119 6.53095 5.53659C6.25641 5.262 5.81119 5.262 5.53659 5.53659Z" fill="#007BFF"/>
<path d="M17.469 17.469C17.1945 17.7436 17.1945 18.1888 17.469 18.4634C17.7436 18.738 18.1888 18.738 18.4634 18.4634C18.738 18.1888 18.738 17.7436 18.4634 17.469C18.1888 17.1945 17.7436 17.1945 17.469 17.469Z" fill="#007BFF"/>
<path d="M12 5.67188C12.3883 5.67188 12.7031 5.35706 12.7031 4.96875V3.5625C12.7031 3.17419 12.3883 2.85938 12 2.85938C11.6117 2.85938 11.2969 3.17419 11.2969 3.5625V4.96875C11.2969 5.35706 11.6117 5.67188 12 5.67188Z" fill="#007BFF"/>
<path d="M12 18.3281C11.6117 18.3281 11.2969 18.6429 11.2969 19.0312V20.4375C11.2969 20.8258 11.6117 21.1406 12 21.1406C12.3883 21.1406 12.7031 20.8258 12.7031 20.4375V19.0312C12.7031 18.6429 12.3883 18.3281 12 18.3281Z" fill="#007BFF"/>
<path d="M5.67188 12C5.67188 11.6117 5.35706 11.2969 4.96875 11.2969H3.5625C3.17419 11.2969 2.85938 11.6117 2.85938 12C2.85938 12.3883 3.17419 12.7031 3.5625 12.7031H4.96875C5.35706 12.7031 5.67188 12.3883 5.67188 12Z" fill="#007BFF"/>
<path d="M18.3281 12C18.3281 12.3883 18.6429 12.7031 19.0312 12.7031H20.4375C20.8258 12.7031 21.1406 12.3883 21.1406 12C21.1406 11.6117 20.8258 11.2969 20.4375 11.2969H19.0312C18.6429 11.2969 18.3281 11.6117 18.3281 12Z" fill="#007BFF"/>
<path d="M12.7031 11.7088V7.78125C12.7031 7.39294 12.3883 7.07812 12 7.07812C11.6117 7.07812 11.2969 7.39294 11.2969 7.78125V12C11.2969 12.1865 11.371 12.3653 11.5028 12.4972L15.7216 16.716C15.9961 16.9905 16.4414 16.9905 16.716 16.716C16.9905 16.4414 16.9905 15.9962 16.716 15.7216L12.7031 11.7088Z" fill="#007BFF"/>
</svg>
