<svg width="24" height="22" viewBox="0 0 24 22" fill="none" xmlns="http://www.w3.org/2000/svg">
<path d="M7.93725 16.3904C8.56298 15.7849 8.95312 14.9374 8.95312 14C8.95312 12.1649 7.46011 10.6719 5.625 10.6719C3.78989 10.6719 2.29688 12.1649 2.29688 14C2.29688 14.9344 2.68448 15.7795 3.3067 16.3846C1.35834 17.2031 0 19.0201 0 21.125C0 21.5133 0.314812 21.8281 0.703125 21.8281C1.09144 21.8281 1.40625 21.5133 1.40625 21.125C1.40625 19.0314 3.29878 17.3281 5.625 17.3281C7.92539 17.3281 9.79688 19.0314 9.79688 21.125C9.79688 21.5133 10.1117 21.8281 10.5 21.8281C10.8883 21.8281 11.2031 21.5133 11.2031 21.125C11.2031 19.0249 9.86227 17.2116 7.93725 16.3904ZM3.70312 14C3.70312 12.9403 4.5653 12.0781 5.625 12.0781C6.6847 12.0781 7.54688 12.9403 7.54688 14C7.54688 15.0597 6.6847 15.9219 5.625 15.9219C4.5653 15.9219 3.70312 15.0597 3.70312 14Z" fill="#007BFF"/>
<path d="M12.7969 10.625C12.7969 11.0133 13.1117 11.3281 13.5 11.3281C13.8883 11.3281 14.2031 11.0133 14.2031 10.625C14.2031 8.53142 16.0746 6.82812 18.375 6.82812C20.7012 6.82812 22.5938 8.53142 22.5938 10.625C22.5938 11.0133 22.9086 11.3281 23.2969 11.3281C23.6852 11.3281 24 11.0133 24 10.625C24 8.52008 22.6417 6.70311 20.6933 5.88462C21.3155 5.27952 21.7031 4.43441 21.7031 3.5C21.7031 1.66489 20.2101 0.171875 18.375 0.171875C16.5399 0.171875 15.0469 1.66489 15.0469 3.5C15.0469 4.43741 15.437 5.28491 16.0627 5.89039C14.1377 6.71159 12.7969 8.52491 12.7969 10.625ZM16.4531 3.5C16.4531 2.4403 17.3153 1.57812 18.375 1.57812C19.4347 1.57812 20.2969 2.4403 20.2969 3.5C20.2969 4.5597 19.4347 5.42188 18.375 5.42188C17.3153 5.42188 16.4531 4.5597 16.4531 3.5Z" fill="#007BFF"/>
<path d="M2.95312 9.07812H9.79687C10.5723 9.07812 11.2031 8.44728 11.2031 7.67188V6.125C11.2632 6.06453 11.7125 5.56123 12.9875 4.11167C13.9087 3.19044 13.4533 1.89331 12.2978 1.68322C12.1527 1.65673 12.778 1.67188 2.95312 1.67188C2.17772 1.67188 1.54688 2.30272 1.54688 3.07812V7.67188C1.54688 8.44728 2.17772 9.07812 2.95312 9.07812ZM2.95312 3.07812C8.42367 3.07812 11.2494 3.07911 12.0316 3.07911C11.9438 3.16822 11.4483 3.6897 10.243 5.048C9.95498 5.34622 9.79687 5.72394 9.79687 6.125V7.67188H2.95312V3.07812Z" fill="#007BFF"/>
<path d="M16.8595 16.0404C16.5365 16.2587 16.4503 16.6891 16.6655 17.0155C16.8679 17.3234 17.3013 17.4332 17.6405 17.2095C17.9622 16.9925 18.0508 16.5625 17.8345 16.2345C17.62 15.9159 17.1912 15.8225 16.8595 16.0404Z" fill="#007BFF"/>
<path d="M19.5605 16.7623C19.6887 17.3807 20.4949 17.5322 20.8345 17.0155C21.1734 16.5017 20.7414 15.8179 20.1127 15.9355C19.7319 16.0145 19.4877 16.374 19.5605 16.7623Z" fill="#007BFF"/>
<path d="M24 18.9219V14.3281C24 13.5527 23.3692 12.9219 22.5938 12.9219C11.0242 12.9219 11.8374 12.9085 11.7022 12.9332C10.5467 13.1433 10.0913 14.4404 11.0125 15.3617C12.2875 16.8112 12.7368 17.3145 12.7969 17.375V18.9219C12.7969 19.6973 13.4277 20.3281 14.2031 20.3281H22.5938C23.3692 20.3281 24 19.6973 24 18.9219ZM22.5938 18.9219H14.2031V17.375C14.2031 16.9739 14.045 16.5962 13.757 16.298C12.5517 14.9397 12.0562 14.4182 11.9684 14.3291C12.7505 14.3291 17.1232 14.3281 22.5938 14.3281V18.9219Z" fill="#007BFF"/>
</svg>
