<svg viewBox="0 0 20 20" xmlns="http://www.w3.org/2000/svg">
<path d="M5.93555 11.6456C6.213 11.3274 5.98699 10.8304 5.56474 10.8304H4.30054C4.29231 10.7053 4.2877 10.5793 4.2877 10.4522C4.2877 7.30235 6.85022 4.73983 9.99999 4.73983C11.5137 4.73983 12.8915 5.33181 13.9147 6.29616L15.6973 4.21069C14.1368 2.78315 12.1286 2.00122 9.99999 2.00122C7.74267 2.00122 5.62048 2.88029 4.0243 4.47643C2.42816 6.07261 1.54909 8.1948 1.54909 10.4521C1.54909 10.5787 1.55225 10.7047 1.55775 10.8304H0.492908C0.0706611 10.8304 -0.15539 11.3273 0.1221 11.6456L3.02881 14.9797L5.93555 11.6456Z" fill="inherit"/>
<path d="M19.8779 10.038L16.9712 6.70389L14.0645 10.038C13.7871 10.3563 14.0131 10.8533 14.4353 10.8533H15.698C15.4915 13.8166 13.0149 16.1644 10 16.1644C8.68396 16.1644 7.47057 15.7168 6.50365 14.9662L4.72087 17.0518C6.21437 18.2512 8.05697 18.9031 10.0001 18.9031C12.2574 18.9031 14.3796 18.024 15.9758 16.4278C17.477 14.9266 18.3437 12.96 18.4414 10.8533H19.5072C19.9294 10.8533 20.1554 10.3563 19.8779 10.038Z" fill="inherit"/>
</svg>
