<svg width="40" height="40" viewBox="0 0 40 40" fill="none" xmlns="http://www.w3.org/2000/svg">
<path d="M31.5288 34.1057C30.6893 34.3053 30.1705 35.1477 30.3702 35.9873C30.4401 36.2813 30.315 36.4967 30.2342 36.599C30.1528 36.702 29.9705 36.875 29.6647 36.875H10.4915C10.1857 36.875 10.0034 36.702 9.92195 36.599C9.84117 36.4967 9.71609 36.2813 9.78602 35.9873C10.9196 31.2201 15.1518 27.8906 20.0781 27.8906C22.7537 27.8906 25.302 28.8809 27.2534 30.6789C27.888 31.2636 28.8765 31.2232 29.4613 30.5886C30.046 29.9539 30.0055 28.9655 29.3709 28.3807C28.1699 27.2741 26.7952 26.4041 25.3123 25.7948C26.8947 24.3641 27.8906 22.2962 27.8906 20C27.8906 15.6922 24.3859 12.1875 20.0781 12.1875C15.7703 12.1875 12.2656 15.6922 12.2656 20C12.2656 22.3008 13.2655 24.3722 14.8534 25.8032C13.6641 26.2926 12.542 26.9477 11.5285 27.7558C9.14359 29.6571 7.44508 32.3237 6.74586 35.2644C6.47227 36.415 6.73617 37.6076 7.47 38.5363C8.20492 39.4665 9.30625 40 10.4915 40H29.6648C30.85 40 31.9513 39.4665 32.6863 38.5363C33.4201 37.6076 33.684 36.415 33.4104 35.2644C33.2109 34.4248 32.3685 33.9061 31.5288 34.1057ZM20.0781 15.3125C22.6628 15.3125 24.7656 17.4153 24.7656 20C24.7656 22.5847 22.6628 24.6875 20.0781 24.6875C17.4934 24.6875 15.3906 22.5847 15.3906 20C15.3906 17.4153 17.4934 15.3125 20.0781 15.3125Z" fill="#007BFF"/>
<path d="M35.3125 14.5312H34.5255C34.3185 14.5312 34.1458 14.4205 34.0625 14.2188C33.9782 14.0159 33.9917 13.7422 34.1381 13.5958L34.6945 13.0395C36.5223 11.2117 36.5223 8.23797 34.6945 6.41023L33.5897 5.30547C32.7043 4.42008 31.5272 3.9325 30.2752 3.9325C29.023 3.9325 27.8459 4.42008 26.9605 5.30547L26.4041 5.86187C26.2577 6.00828 26.0038 6.03672 25.8013 5.95258C25.5991 5.86906 25.4687 5.68148 25.4687 5.47453V4.6875C25.4687 2.10281 23.3659 0 20.7812 0H19.2187C16.634 0 14.5312 2.10281 14.5312 4.6875V5.47453C14.5312 5.68148 14.4009 5.86906 14.1986 5.95258C13.996 6.03672 13.7421 6.00828 13.5957 5.86187L13.0393 5.30547C12.1539 4.42008 10.9768 3.9325 9.72469 3.9325C8.47266 3.9325 7.29547 4.42008 6.41016 5.30547L5.30547 6.41031C3.47781 8.23797 3.47781 11.2118 5.30547 13.0395L5.86187 13.5959C6.00828 13.7422 6.0218 14.0159 5.9375 14.2188C5.85422 14.4205 5.68148 14.5312 5.47453 14.5312H4.6875C2.10281 14.5312 0 16.6341 0 19.2188V20.7812C0 23.3659 2.10281 25.4688 4.6875 25.4688H5.47445C5.68141 25.4688 5.86906 25.5991 5.95258 25.8013L5.9632 25.827C6.29281 26.6245 7.20672 27.0038 8.00406 26.6742C8.80156 26.3446 9.18086 25.4309 8.85125 24.6334L8.84086 24.6082C8.27281 23.2326 6.95148 22.3438 5.47445 22.3438H4.6875C3.82594 22.3438 3.125 21.6428 3.125 20.7812V19.2188C3.125 18.3572 3.82594 17.6562 4.6875 17.6562H5.47453C6.95148 17.6562 8.27281 16.7674 8.84062 15.3923L8.85023 15.3691C9.42148 13.9938 9.11586 12.4303 8.07156 11.386L7.51516 10.8297C6.90594 10.2205 6.90594 9.22922 7.51516 8.61992L8.62 7.51508C9.31758 6.8175 10.251 6.93641 10.8297 7.51508L11.3862 8.07156C12.4304 9.11578 13.9937 9.42133 15.3722 8.84898L15.392 8.84078C16.7674 8.27281 17.6562 6.95148 17.6562 5.47453V4.6875C17.6562 3.82594 18.3572 3.125 19.2188 3.125H20.7812C21.6428 3.125 22.3438 3.82594 22.3438 4.6875V5.47453C22.3438 6.95148 23.2326 8.27281 24.6081 8.84078L24.6279 8.84898C26.0064 9.42141 27.5697 9.11578 28.6139 8.07156L29.1704 7.51508C29.7491 6.93641 30.6825 6.8175 31.3801 7.51508L32.4849 8.61992C33.0941 9.22914 33.0941 10.2205 32.4849 10.8297L31.9285 11.386C30.8842 12.4303 30.5786 13.9938 31.1498 15.3691L31.1595 15.3923C31.7272 16.7674 33.0485 17.6562 34.5255 17.6562H35.3125C36.1741 17.6562 36.875 18.3572 36.875 19.2188V20.7812C36.875 21.6428 36.1741 22.3438 35.3125 22.3438H34.5255C33.0486 22.3438 31.7272 23.2326 31.1592 24.6082L31.1488 24.6334C30.8192 25.4309 31.1985 26.3446 31.996 26.6742C32.7934 27.0038 33.7073 26.6245 34.0369 25.827L34.0475 25.8013C34.131 25.5991 34.3186 25.4688 34.5256 25.4688H35.3125C37.8972 25.4688 40 23.3659 40 20.7812V19.2188C40 16.6341 37.8972 14.5312 35.3125 14.5312Z" fill="#007BFF"/>
</svg>
