<svg viewBox="0 0 20 20" xmlns="http://www.w3.org/2000/svg">
<path d="M10 3.75C6.17879 3.75 2.71351 5.84062 0.15649 9.23635C-0.0521632 9.51455 -0.0521632 9.90322 0.15649 10.1814C2.71351 13.5812 6.17879 15.6719 10 15.6719C13.8212 15.6719 17.2865 13.5812 19.8435 10.1855C20.0522 9.90731 20.0522 9.51864 19.8435 9.24044C17.2865 5.84062 13.8212 3.75 10 3.75ZM10.2741 13.9085C7.73755 14.0681 5.64284 11.9775 5.80239 9.43682C5.93331 7.3421 7.63118 5.64424 9.72589 5.51332C12.2625 5.35376 14.3572 7.44438 14.1976 9.98504C14.0626 12.0757 12.3647 13.7735 10.2741 13.9085ZM10.1473 11.9693C8.78081 12.0552 7.65163 10.9301 7.74164 9.56364C7.81119 8.43446 8.72763 7.52212 9.85681 7.44848C11.2233 7.36256 12.3525 8.48765 12.2625 9.85412C12.1888 10.9874 11.2724 11.8997 10.1473 11.9693Z" fill="inherit"/>
</svg>
