<svg viewBox="0 0 20 20" xmlns="http://www.w3.org/2000/svg">
<path d="M10 0C8.02219 0 6.08879 0.58649 4.4443 1.6853C2.79981 2.78412 1.51809 4.3459 0.761209 6.17316C0.00433294 8.00042 -0.193701 10.0111 0.192152 11.9509C0.578004 13.8907 1.53041 15.6725 2.92894 17.0711C4.32746 18.4696 6.10929 19.422 8.0491 19.8078C9.98891 20.1937 11.9996 19.9957 13.8268 19.2388C15.6541 18.4819 17.2159 17.2002 18.3147 15.5557C19.4135 13.9112 20 11.9778 20 10C19.9991 7.3481 18.9453 4.80508 17.0701 2.92991C15.1949 1.05474 12.6519 0.000883523 10 0ZM10 16C9.73629 16 9.47851 15.9218 9.25924 15.7753C9.03998 15.6288 8.86908 15.4205 8.76816 15.1769C8.66725 14.9333 8.64084 14.6652 8.69229 14.4065C8.74374 14.1479 8.87072 13.9103 9.05719 13.7239C9.24366 13.5374 9.48124 13.4104 9.73988 13.3589C9.99852 13.3075 10.2666 13.3339 10.5102 13.4348C10.7539 13.5357 10.9621 13.7066 11.1086 13.9259C11.2551 14.1452 11.3333 14.403 11.3333 14.6667C11.3323 15.02 11.1915 15.3585 10.9416 15.6083C10.6918 15.8581 10.3533 15.9989 10 16ZM11.5267 5.66L11.08 11.0067C11.0567 11.2771 10.9328 11.5289 10.7329 11.7123C10.5329 11.8958 10.2714 11.9976 10 11.9976C9.72861 11.9976 9.4671 11.8958 9.26713 11.7123C9.06716 11.5289 8.9433 11.2771 8.92 11.0067L8.47334 5.66C8.45407 5.4529 8.47715 5.24405 8.54115 5.04615C8.60515 4.84826 8.70875 4.66545 8.84563 4.50885C8.98252 4.35225 9.14983 4.22515 9.3374 4.13525C9.52496 4.04536 9.72885 3.99457 9.93666 3.98597C10.1445 3.97737 10.3519 4.01114 10.5462 4.08522C10.7406 4.1593 10.9178 4.27214 11.0672 4.41689C11.2165 4.56164 11.3349 4.73526 11.415 4.92719C11.4952 5.11912 11.5354 5.32535 11.5333 5.53333C11.5344 5.57566 11.5322 5.61802 11.5267 5.66Z" fill="inherit"/>
</svg>
