<svg viewBox="0 0 20 20" xmlns="http://www.w3.org/2000/svg">
<path d="M1.85983 17.9072C2.01679 18.0786 2.26023 18.1411 2.48039 18.0664L4.98882 17.2146L6.03751 19.6472C6.12978 19.8613 6.34013 20.0003 6.57318 20.0012H6.5756C6.80771 20.0012 7.01803 19.8642 7.11174 19.6516L9.06653 15.2176C9.37263 15.2552 9.68416 15.2749 10.0003 15.2749C10.3164 15.2749 10.6279 15.2552 10.934 15.2176L12.8888 19.6516C12.9824 19.8642 13.1928 20.0013 13.425 20.0012H13.4274C13.6605 20.0003 13.8708 19.8613 13.963 19.6472L15.0118 17.2146L17.5202 18.0664C17.7402 18.1411 17.9838 18.0787 18.1408 17.9072C18.2978 17.7357 18.3385 17.4877 18.2447 17.275L16.0444 12.2877C17.0304 11.0036 17.6176 9.39799 17.6176 7.65758C17.6176 3.43584 14.2005 0.0012207 10.0003 0.0012207C5.80012 0.0012207 2.38301 3.43584 2.38301 7.65758C2.38301 9.39799 2.97016 11.0036 3.95619 12.2877L1.75593 17.275C1.6621 17.4877 1.70284 17.7357 1.85983 17.9072ZM16.6342 16.5279L14.8763 15.931C14.587 15.8327 14.2707 15.9733 14.1498 16.2539L13.4189 17.9491L12.109 14.9777C13.2707 14.6426 14.3189 14.0376 15.1817 13.2356L16.6342 16.5279ZM3.5549 7.65758C3.5549 4.08202 6.4463 1.17311 10.0003 1.17311C13.5543 1.17311 16.4457 4.08202 16.4457 7.65758C16.4457 11.2116 13.5543 14.103 10.0003 14.103C6.4463 14.103 3.5549 11.2116 3.5549 7.65758ZM4.81886 13.2356C5.68168 14.0376 6.7299 14.6426 7.8916 14.9777L6.58162 17.9491L5.85083 16.2538C5.72985 15.9732 5.41363 15.8327 5.12437 15.9309L3.36642 16.5279L4.81886 13.2356Z" fill="inherit"/>
<path d="M7.6989 8.40536L7.35628 10.4028C7.31858 10.6226 7.40893 10.8448 7.58937 10.9759C7.76949 11.1067 8.00871 11.1244 8.20644 11.0205L10.0003 10.0774L11.794 11.0205C11.9915 11.1243 12.2308 11.107 12.4111 10.9759C12.5915 10.8448 12.6819 10.6226 12.6442 10.4028L12.3017 8.40536L13.7528 6.99077C13.9125 6.8351 13.97 6.60225 13.9011 6.39014C13.8321 6.17802 13.6488 6.02341 13.4281 5.99134L11.4226 5.69993L10.5257 3.88264C10.427 3.68264 10.2233 3.556 10.0003 3.556C9.77725 3.556 9.57353 3.6826 9.47482 3.88264L8.57793 5.69993L6.5724 5.99134C6.35169 6.02341 6.16829 6.17802 6.09938 6.39014C6.03044 6.60225 6.08794 6.8351 6.24763 6.99081L7.6989 8.40536ZM9.0513 6.8153C9.24216 6.78756 9.40712 6.66772 9.49248 6.49475L10.0003 5.46587L10.508 6.49475C10.5934 6.66768 10.7584 6.78756 10.9492 6.8153L12.0847 6.9803L11.263 7.78117C11.125 7.91578 11.062 8.10973 11.0946 8.29981L11.2885 9.43069L10.2729 8.89677C10.1023 8.80704 9.8983 8.80701 9.7276 8.89677L8.712 9.43069L8.90595 8.29981C8.93852 8.10973 8.87552 7.91578 8.73743 7.78117L7.91578 6.9803L9.0513 6.8153Z" fill="inherit"/>
</svg>
