<svg viewBox="0 0 20 20" xmlns="http://www.w3.org/2000/svg">
<path d="M12.0961 8.33173L9.37238 11.0555L8.21766 9.90075C7.98887 9.67196 7.61785 9.67196 7.38902 9.90075C7.16019 10.1295 7.16019 10.5006 7.38902 10.7294L8.95805 12.2984C9.06793 12.4083 9.21695 12.47 9.37234 12.47C9.52773 12.47 9.6768 12.4083 9.78664 12.2984L12.9246 9.16036C13.1535 8.93157 13.1535 8.56055 12.9246 8.33173C12.6959 8.1029 12.3249 8.1029 12.0961 8.33173Z" fill="inherit"/>
<path d="M10 3.76688C6.56234 3.76688 3.76562 6.5636 3.76562 10.0013C3.76562 13.4389 6.56234 16.2356 10 16.2356C13.4377 16.2356 16.2344 13.4389 16.2344 10.0013C16.2344 6.5636 13.4377 3.76688 10 3.76688ZM10 15.0638C7.20852 15.0638 4.9375 12.7927 4.9375 10.0013C4.9375 7.20977 7.20852 4.93876 10 4.93876C12.7915 4.93876 15.0625 7.20977 15.0625 10.0013C15.0625 12.7927 12.7915 15.0638 10 15.0638Z" fill="inherit"/>
<path d="M19.8983 8.57149C19.8649 8.33841 19.6952 8.14794 19.4675 8.08806L18.4716 7.82599C18.2666 7.02567 17.9502 6.2629 17.5275 5.55044L18.0471 4.65942C18.1657 4.45606 18.1511 4.20153 18.01 4.0131C17.7259 3.63349 17.41 3.26915 17.0711 2.93009C16.7329 2.59181 16.3685 2.27587 15.988 1.99095C15.7996 1.84985 15.545 1.8352 15.3416 1.95392L14.4507 2.4736C13.7382 2.05087 12.9755 1.73442 12.1752 1.52946L11.9131 0.533643C11.8532 0.305947 11.6629 0.136221 11.4298 0.102744C10.4897 -0.0322949 9.51027 -0.0322949 8.5702 0.102744C8.33711 0.136182 8.14676 0.305908 8.08683 0.533643L7.82477 1.52946C7.02449 1.73438 6.2618 2.05083 5.54926 2.4736L4.6584 1.95392C4.45504 1.83528 4.20039 1.84993 4.01195 1.99095C3.63152 2.27583 3.26711 2.59177 2.92887 2.93009C2.58996 3.26911 2.27406 3.63345 1.98992 4.01306C1.84887 4.20149 1.83426 4.45603 1.95281 4.65938L2.47242 5.5504C2.04973 6.26294 1.73328 7.02567 1.52836 7.82595L0.5325 8.08802C0.304766 8.1479 0.135039 8.33837 0.101641 8.57146C0.0342187 9.04173 0 9.52274 0 10.0012C0 10.4797 0.0342188 10.9607 0.10168 11.4309C0.135078 11.664 0.304805 11.8545 0.532539 11.9144L1.5284 12.1765C1.73336 12.9768 2.0498 13.7395 2.47246 14.452L1.95285 15.343C1.8343 15.5464 1.84891 15.8009 1.98996 15.9893C2.2741 16.369 2.59 16.7333 2.92895 17.0724C3.26711 17.4106 3.63152 17.7266 4.01199 18.0115C4.20043 18.1525 4.455 18.1672 4.65844 18.0485L5.5493 17.5288C6.26176 17.9516 7.02453 18.268 7.8248 18.4729L8.08687 19.4688C8.1468 19.6965 8.33715 19.8662 8.57023 19.8997C9.04027 19.9672 9.52133 20.0015 10 20.0015C10.4787 20.0015 10.9597 19.9672 11.4298 19.8997C11.6629 19.8663 11.8532 19.6966 11.9132 19.4688L12.1752 18.473C12.9755 18.2681 13.7382 17.9517 14.4507 17.5289L15.3416 18.0486C15.545 18.1673 15.7996 18.1527 15.988 18.0116C16.3685 17.7267 16.7329 17.4108 17.0711 17.0724C17.41 16.7334 17.7259 16.3691 18.0101 15.9895C18.1511 15.801 18.1657 15.5465 18.0472 15.3431L17.5276 14.4521C17.9503 13.7396 18.2667 12.9769 18.4716 12.1766L19.4675 11.9145C19.6952 11.8546 19.865 11.6641 19.8984 11.4311C19.9658 10.9608 20 10.4798 20 10.0013C20 9.52286 19.9658 9.04173 19.8983 8.57149ZM18.7846 10.8823L17.8325 11.1329C17.6184 11.1891 17.4543 11.3614 17.4084 11.5779C17.2159 12.4857 16.8607 13.3419 16.3526 14.1231C16.2319 14.3086 16.2261 14.5465 16.3376 14.7377L16.8346 15.59C16.6488 15.8167 16.4505 16.0356 16.2424 16.2439C16.0346 16.4517 15.8157 16.65 15.5887 16.836L14.7366 16.3389C14.5453 16.2274 14.3075 16.2331 14.1218 16.3539C13.3407 16.862 12.4845 17.2172 11.5768 17.4097C11.3603 17.4557 11.1881 17.6197 11.1318 17.8338L10.8812 18.786C10.2972 18.8438 9.70297 18.8438 9.11902 18.786L8.86844 17.8338C8.81211 17.6197 8.63992 17.4557 8.42336 17.4097C7.51566 17.2172 6.65937 16.862 5.87836 16.3539C5.69273 16.2331 5.45488 16.2274 5.26359 16.3389L4.41152 16.836C4.18445 16.6499 3.96562 16.4517 3.75785 16.2439C3.54969 16.0356 3.35141 15.8167 3.16562 15.59L3.66262 14.7377C3.77414 14.5465 3.76832 14.3086 3.64762 14.1231C3.13957 13.342 2.78434 12.4857 2.5918 11.5779C2.54582 11.3614 2.3818 11.1892 2.16773 11.1329L1.21555 10.8823C1.18648 10.5902 1.17188 10.2953 1.17188 10.0012C1.17188 9.70716 1.18648 9.4122 1.21535 9.12013L2.16754 8.86958C2.3816 8.81329 2.54566 8.64106 2.5916 8.4245C2.78414 7.51677 3.13934 6.66052 3.64742 5.87938C3.76813 5.6938 3.77395 5.45599 3.66242 5.2647L3.16543 4.41243C3.35121 4.18575 3.54945 3.96685 3.75762 3.75856C3.96539 3.55075 4.1843 3.35247 4.41133 3.16642L5.2634 3.66353C5.45477 3.77513 5.69254 3.76931 5.87816 3.64853C6.65926 3.1404 7.51555 2.78517 8.42316 2.59267C8.63973 2.54673 8.81187 2.38267 8.86824 2.16856L9.11883 1.21638C9.70277 1.15856 10.297 1.15856 10.881 1.21638L11.1316 2.16856C11.1879 2.38267 11.3601 2.54673 11.5766 2.59267C12.4843 2.78517 13.3406 3.1404 14.1216 3.64853C14.3073 3.76931 14.5452 3.77513 14.7364 3.66353L15.5885 3.16642C15.8155 3.35247 16.0344 3.55067 16.2421 3.75853C16.4503 3.96681 16.6486 4.18575 16.8344 4.41243L16.3374 5.2647C16.2259 5.45599 16.2317 5.6938 16.3524 5.87938C16.8604 6.66048 17.2157 7.51677 17.4082 8.4245C17.4542 8.64106 17.6182 8.81325 17.8323 8.86958L18.7845 9.12013C18.8133 9.4122 18.8279 9.7072 18.8279 10.0012C18.8279 10.2952 18.8135 10.5902 18.7846 10.8823Z" fill="inherit"/>
</svg>
