<svg viewBox="0 0 20 20" xmlns="http://www.w3.org/2000/svg">
<path d="M15.7644 17.0541C15.3446 17.1539 15.0853 17.5751 15.1851 17.9949C15.22 18.1419 15.1575 18.2496 15.1171 18.3007C15.0764 18.3522 14.9852 18.4387 14.8323 18.4387H5.24574C5.09285 18.4387 5.00172 18.3522 4.96098 18.3007C4.92059 18.2496 4.85805 18.1419 4.89301 17.9949C5.45981 15.6113 7.5759 13.9465 10.0391 13.9465C11.3768 13.9465 12.651 14.4417 13.6267 15.3407C13.944 15.633 14.4382 15.6128 14.7306 15.2955C15.023 14.9782 15.0028 14.484 14.6855 14.1916C14.085 13.6383 13.3976 13.2033 12.6561 12.8986C13.4473 12.1833 13.9453 11.1493 13.9453 10.0012C13.9453 7.84731 12.193 6.09497 10.0391 6.09497C7.88516 6.09497 6.13281 7.84731 6.13281 10.0012C6.13281 11.1516 6.63277 12.1873 7.42672 12.9028C6.83207 13.1475 6.27098 13.4751 5.76426 13.8791C4.5718 14.8298 3.72254 16.1631 3.37293 17.6334C3.23613 18.2087 3.36809 18.805 3.735 19.2694C4.10246 19.7345 4.65312 20.0012 5.24574 20.0012H14.8324C15.425 20.0012 15.9757 19.7345 16.3431 19.2694C16.71 18.805 16.842 18.2087 16.7052 17.6334C16.6054 17.2136 16.1843 16.9543 15.7644 17.0541ZM10.0391 7.65747C11.3314 7.65747 12.3828 8.70888 12.3828 10.0012C12.3828 11.2936 11.3314 12.345 10.0391 12.345C8.74672 12.345 7.69531 11.2936 7.69531 10.0012C7.69531 8.70888 8.74672 7.65747 10.0391 7.65747Z" fill="inherit"/>
<path d="M17.6562 7.26685H17.2627C17.1593 7.26685 17.0729 7.21145 17.0312 7.1106C16.9891 7.00915 16.9959 6.87231 17.0691 6.79911L17.3473 6.52095C18.2611 5.60708 18.2611 4.1202 17.3473 3.20634L16.7948 2.65396C16.3521 2.21126 15.7636 1.96747 15.1376 1.96747C14.5115 1.96747 13.923 2.21126 13.4803 2.65396L13.2021 2.93216C13.1289 3.00536 13.0019 3.01958 12.9006 2.97751C12.7995 2.93575 12.7343 2.84196 12.7343 2.73849V2.34497C12.7343 1.05263 11.6829 0.0012207 10.3906 0.0012207H9.60933C8.31699 0.0012207 7.26558 1.05263 7.26558 2.34497V2.73849C7.26558 2.84196 7.20043 2.93575 7.0993 2.97751C6.99801 3.01958 6.87105 3.00536 6.79785 2.93216L6.51965 2.65396C6.07695 2.21126 5.4884 1.96747 4.86234 1.96747C4.23633 1.96747 3.64773 2.21126 3.20508 2.65396L2.65273 3.20638C1.73891 4.1202 1.73891 5.60712 2.65273 6.52099L2.93094 6.79915C3.00414 6.87231 3.0109 7.00915 2.96875 7.1106C2.92711 7.21145 2.84074 7.26685 2.73727 7.26685H2.34375C1.05141 7.26685 0 8.31825 0 9.6106V10.3918C0 11.6842 1.05141 12.7356 2.34375 12.7356H2.73723C2.8407 12.7356 2.93453 12.8008 2.97629 12.9019L2.9816 12.9147C3.14641 13.3135 3.60336 13.5031 4.00203 13.3383C4.40078 13.1735 4.59043 12.7167 4.42562 12.3179L4.42043 12.3053C4.13641 11.6175 3.47574 11.1731 2.73723 11.1731H2.34375C1.91297 11.1731 1.5625 10.8226 1.5625 10.3918V9.6106C1.5625 9.17981 1.91297 8.82935 2.34375 8.82935H2.73727C3.47574 8.82935 4.13641 8.38493 4.42031 7.69739L4.42512 7.68579C4.71074 6.99814 4.55793 6.21638 4.03578 5.69423L3.75758 5.41606C3.45297 5.11145 3.45297 4.61583 3.75758 4.31118L4.31 3.75876C4.65879 3.40997 5.12551 3.46942 5.41484 3.75876L5.69309 4.037C6.2152 4.55911 6.99684 4.71188 7.68609 4.42571L7.69598 4.42161C8.38371 4.13763 8.82812 3.47696 8.82812 2.73849V2.34497C8.82812 1.91419 9.17859 1.56372 9.60938 1.56372H10.3906C10.8214 1.56372 11.1719 1.91419 11.1719 2.34497V2.73849C11.1719 3.47696 11.6163 4.13763 12.3041 4.42161L12.3139 4.42571C13.0032 4.71192 13.7848 4.55911 14.307 4.037L14.5852 3.75876C14.8745 3.46942 15.3412 3.40997 15.69 3.75876L16.2425 4.31118C16.5471 4.61579 16.5471 5.11145 16.2425 5.41606L15.9643 5.69423C15.4421 6.21638 15.2893 6.9981 15.5749 7.68579L15.5797 7.69739C15.8636 8.38493 16.5243 8.82935 17.2627 8.82935H17.6562C18.087 8.82935 18.4375 9.17981 18.4375 9.6106V10.3918C18.4375 10.8226 18.087 11.1731 17.6562 11.1731H17.2628C16.5243 11.1731 15.8636 11.6175 15.5796 12.3053L15.5744 12.3179C15.4096 12.7167 15.5993 13.1735 15.998 13.3383C16.3967 13.5031 16.8536 13.3135 17.0184 12.9147L17.0238 12.9019C17.0655 12.8008 17.1593 12.7356 17.2628 12.7356H17.6562C18.9486 12.7356 20 11.6842 20 10.3918V9.6106C20 8.31825 18.9486 7.26685 17.6562 7.26685Z" fill="inherit"/>
</svg>
