<svg viewBox="0 0 20 20" xmlns="http://www.w3.org/2000/svg">
<path d="M19.4141 18.8293H0.585938C0.262344 18.8293 0 19.0917 0 19.4153C0 19.7389 0.262344 20.0012 0.585938 20.0012H19.4141C19.7377 20.0012 20 19.7389 20 19.4153C20 19.0917 19.7377 18.8293 19.4141 18.8293Z" fill="inherit"/>
<path d="M1.79688 14.0637C1.47328 14.0637 1.21094 14.3261 1.21094 14.6497V17.0715C1.21094 17.3951 1.47328 17.6575 1.79688 17.6575H4.14062C4.46422 17.6575 4.72656 17.3951 4.72656 17.0715V14.6497C4.72656 14.3261 4.46422 14.0637 4.14062 14.0637H1.79688ZM3.55469 16.4856H2.38281V15.2356H3.55469V16.4856Z" fill="inherit"/>
<path d="M6.48438 12.1106C6.16078 12.1106 5.89844 12.3729 5.89844 12.6965V17.0715C5.89844 17.3951 6.16078 17.6575 6.48438 17.6575H8.82812C9.15172 17.6575 9.41406 17.3951 9.41406 17.0715V12.6965C9.41406 12.3729 9.15172 12.1106 8.82812 12.1106H6.48438ZM8.24219 16.4856H7.07031V13.2825H8.24219V16.4856Z" fill="inherit"/>
<path d="M11.1719 13.2825C10.8483 13.2825 10.5859 13.5448 10.5859 13.8684V17.0715C10.5859 17.3951 10.8483 17.6575 11.1719 17.6575H13.5156C13.8392 17.6575 14.1016 17.3951 14.1016 17.0715V13.8684C14.1016 13.5448 13.8392 13.2825 13.5156 13.2825H11.1719ZM12.9297 16.4856H11.7578V14.4543H12.9297V16.4856Z" fill="inherit"/>
<path d="M15.2734 9.96216V17.0715C15.2734 17.3951 15.5358 17.6575 15.8594 17.6575H18.2031C18.5267 17.6575 18.7891 17.3951 18.7891 17.0715V9.96216C18.7891 9.63856 18.5267 9.37622 18.2031 9.37622H15.8594C15.5358 9.37622 15.2734 9.63856 15.2734 9.96216ZM16.4453 10.5481H17.6172V16.4856H16.4453V10.5481Z" fill="inherit"/>
<path d="M5.27344 8.39966C5.59704 8.39966 5.85938 8.13733 5.85938 7.81372C5.85938 7.49012 5.59704 7.22778 5.27344 7.22778C4.94983 7.22778 4.6875 7.49012 4.6875 7.81372C4.6875 8.13733 4.94983 8.39966 5.27344 8.39966Z" fill="inherit"/>
<path d="M4.10156 4.49341C4.42516 4.49341 4.6875 4.23106 4.6875 3.90747C4.6875 3.87978 4.68941 3.85192 4.6932 3.82501C4.73352 3.53599 4.98199 3.32153 5.27383 3.32153C5.27781 3.32153 5.28184 3.32157 5.28586 3.32165C5.58613 3.32767 5.84305 3.57618 5.85859 3.87552C5.86703 4.03841 5.81016 4.19294 5.69836 4.31067C5.58645 4.42849 5.43551 4.49341 5.27344 4.49341C4.94984 4.49341 4.6875 4.75575 4.6875 5.07935V6.05591C4.6875 6.3795 4.94984 6.64185 5.27344 6.64185C5.59703 6.64185 5.85938 6.3795 5.85938 6.05591V5.56399C6.11871 5.47204 6.35609 5.31985 6.5482 5.11751C6.88344 4.76442 7.05414 4.30173 7.02887 3.8147C6.98133 2.89966 6.22609 2.16841 5.30941 2.14997C4.42059 2.13208 3.65543 2.78247 3.53254 3.66317C3.52133 3.74376 3.51562 3.82591 3.51562 3.90747C3.51562 4.23106 3.77797 4.49341 4.10156 4.49341Z" fill="inherit"/>
<path d="M4.33305 10.4641L2.60273 11.8484C2.35004 12.0505 2.30906 12.4192 2.51121 12.6719C2.71336 12.9246 3.08207 12.9656 3.33477 12.7634L6.2075 10.4653C6.67371 10.3816 7.11887 10.2365 7.53422 10.0385L12.1467 11.6858C12.3944 11.7743 12.6707 11.6868 12.8225 11.4719L16.6986 5.98079L16.8612 6.90329C16.9174 7.22196 17.2213 7.43478 17.54 7.37856C17.8587 7.32235 18.0714 7.01845 18.0153 6.69977L17.6083 4.39161C17.5521 4.07294 17.2482 3.86013 16.9295 3.91634L14.6213 4.32333C14.3027 4.37954 14.0898 4.68345 14.1461 5.00212C14.2023 5.32079 14.5062 5.5336 14.8248 5.47739L15.7324 5.31739L12.1217 10.4325L8.75672 9.23071C9.85375 8.26368 10.5469 6.8486 10.5469 5.27466C10.5469 2.36688 8.18121 0.0012207 5.27344 0.0012207C2.36566 0.0012207 0 2.36688 0 5.27466C0 7.86157 1.87234 10.0194 4.33305 10.4641ZM5.27344 1.1731C7.53504 1.1731 9.375 3.01306 9.375 5.27466C9.375 7.53626 7.53504 9.37622 5.27344 9.37622C3.01184 9.37622 1.17188 7.53626 1.17188 5.27466C1.17188 3.01306 3.01184 1.1731 5.27344 1.1731Z" fill="inherit"/>
</svg>
