<svg viewBox="0 0 20 20" xmlns="http://www.w3.org/2000/svg">
<path d="M6.61438 14.4932C7.13582 13.9886 7.46094 13.2824 7.46094 12.5012C7.46094 10.972 6.21676 9.72778 4.6875 9.72778C3.15824 9.72778 1.91406 10.972 1.91406 12.5012C1.91406 13.2799 2.23707 13.9841 2.75559 14.4884C1.13195 15.1705 0 16.6846 0 18.4387C0 18.7623 0.262344 19.0247 0.585938 19.0247C0.909531 19.0247 1.17188 18.7623 1.17188 18.4387C1.17188 16.6941 2.74898 15.2747 4.6875 15.2747C6.60449 15.2747 8.16406 16.6941 8.16406 18.4387C8.16406 18.7623 8.42641 19.0247 8.75 19.0247C9.07359 19.0247 9.33594 18.7623 9.33594 18.4387C9.33594 16.6886 8.21855 15.1775 6.61438 14.4932ZM3.08594 12.5012C3.08594 11.6181 3.80441 10.8997 4.6875 10.8997C5.57059 10.8997 6.28906 11.6181 6.28906 12.5012C6.28906 13.3843 5.57059 14.1028 4.6875 14.1028C3.80441 14.1028 3.08594 13.3843 3.08594 12.5012Z" fill="inherit"/>
<path d="M10.6641 9.68872C10.6641 10.0123 10.9264 10.2747 11.25 10.2747C11.5736 10.2747 11.8359 10.0123 11.8359 9.68872C11.8359 7.94407 13.3955 6.52466 15.3125 6.52466C17.251 6.52466 18.8281 7.94407 18.8281 9.68872C18.8281 10.0123 19.0905 10.2747 19.4141 10.2747C19.7377 10.2747 20 10.0123 20 9.68872C20 7.93462 18.868 6.42048 17.2444 5.73841C17.7629 5.23415 18.0859 4.52989 18.0859 3.75122C18.0859 2.22196 16.8418 0.977783 15.3125 0.977783C13.7832 0.977783 12.5391 2.22196 12.5391 3.75122C12.5391 4.53239 12.8642 5.23864 13.3856 5.74321C11.7814 6.42755 10.6641 7.93864 10.6641 9.68872ZM13.7109 3.75122C13.7109 2.86813 14.4294 2.14966 15.3125 2.14966C16.1956 2.14966 16.9141 2.86813 16.9141 3.75122C16.9141 4.63431 16.1956 5.35278 15.3125 5.35278C14.4294 5.35278 13.7109 4.63431 13.7109 3.75122Z" fill="inherit"/>
<path d="M2.46094 8.39966H8.16406C8.81023 8.39966 9.33594 7.87396 9.33594 7.22778V5.93872C9.38598 5.88833 9.76039 5.46892 10.8229 4.26095C11.5906 3.49325 11.2111 2.41231 10.2482 2.23724C10.1273 2.21517 10.6484 2.22778 2.46094 2.22778C1.81477 2.22778 1.28906 2.75349 1.28906 3.39966V7.22778C1.28906 7.87396 1.81477 8.39966 2.46094 8.39966ZM2.46094 3.39966C7.01973 3.39966 9.37453 3.40048 10.0264 3.40048C9.95316 3.47474 9.54027 3.90931 8.53586 5.04122C8.29582 5.28974 8.16406 5.6045 8.16406 5.93872V7.22778H2.46094V3.39966Z" fill="inherit"/>
<path d="M14.0496 14.2016C13.7804 14.3834 13.7086 14.7422 13.8879 15.0141C14.0566 15.2708 14.4178 15.3622 14.7004 15.1758C14.9685 14.9949 15.0423 14.6367 14.8621 14.3633C14.6834 14.0978 14.326 14.02 14.0496 14.2016Z" fill="inherit"/>
<path d="M16.3004 14.8032C16.4072 15.3185 17.0791 15.4447 17.3621 15.0141C17.6445 14.586 17.2845 14.0161 16.7605 14.1141C16.4432 14.18 16.2398 14.4795 16.3004 14.8032Z" fill="inherit"/>
<path d="M20 16.6028V12.7747C20 12.1285 19.4743 11.6028 18.8281 11.6028C9.1868 11.6028 9.86449 11.5917 9.7518 11.6122C8.78891 11.7873 8.40938 12.8682 9.17707 13.6359C10.2396 14.8439 10.614 15.2633 10.6641 15.3137V16.6028C10.6641 17.249 11.1898 17.7747 11.8359 17.7747H18.8281C19.4743 17.7747 20 17.249 20 16.6028ZM18.8281 16.6028H11.8359V15.3137C11.8359 14.9795 11.7041 14.6647 11.4641 14.4162C10.4597 13.2843 10.0468 12.8497 9.97363 12.7755C10.6254 12.7755 14.2693 12.7747 18.8281 12.7747V16.6028Z" fill="inherit"/>
</svg>
