<svg viewBox="0 0 20 20" xmlns="http://www.w3.org/2000/svg">
<path d="M20 10.0013C20 8.74751 19.2513 7.6652 18.1775 7.17808C19.6995 5.31537 17.9553 2.43132 15.6459 2.50741H15.5479C15.054 -0.136262 11.5492 -0.908466 9.99423 1.28198C8.43833 -0.909561 4.93381 -0.134816 4.44059 2.50741H4.34253C2.03303 2.43116 0.289171 5.31591 1.81095 7.17808C-0.604353 8.2607 -0.602946 11.7429 1.81095 12.8245C0.289015 14.6873 2.03319 17.5713 4.34253 17.4952H4.44059C4.93447 20.1389 8.43931 20.9111 9.99423 18.7207C11.5501 20.9122 15.0547 20.1374 15.5479 17.4952H15.6459C17.9554 17.5715 19.6993 14.6867 18.1775 12.8245C19.2513 12.3374 20 11.2551 20 10.0013ZM16.9019 11.9269H16.2739C15.4969 11.9559 15.4973 13.0708 16.2739 13.0995C16.9894 13.0995 17.5715 13.6816 17.5715 14.3971C17.5715 15.4589 16.7077 16.3227 15.6459 16.3227H15.508C15.2625 15.5936 14.5729 15.0668 13.762 15.0668C13.4382 15.0668 13.1757 15.3293 13.1757 15.6531C13.1757 15.9768 13.4382 16.2393 13.762 16.2393C14.1312 16.2393 14.4316 16.5397 14.4316 16.909C14.3351 19.4596 10.6769 19.4596 10.5805 16.909V14.3971C10.5516 13.6201 9.43649 13.6206 9.40792 14.3971V16.909C9.31095 19.4601 5.65325 19.4594 5.55675 16.9089C5.55675 16.5397 5.85716 16.2393 6.22639 16.2393C6.55017 16.2393 6.81267 15.9768 6.81267 15.653C6.81267 15.3292 6.55017 15.0667 6.22639 15.0667C5.41557 15.0667 4.72588 15.5935 4.48038 16.3227H4.34249C3.2807 16.3227 2.41689 15.4588 2.41689 14.3971C2.41689 13.6815 2.99902 13.0994 3.71451 13.0994C4.49101 13.071 4.49137 11.9555 3.71451 11.9269H3.08661C0.534899 11.8298 0.536853 8.1719 3.08661 8.07571H3.71459C4.49156 8.04675 4.49117 6.93185 3.71459 6.90316C2.9991 6.90316 2.41696 6.32102 2.41696 5.60553C2.41696 4.54375 3.28078 3.67993 4.34257 3.67993H4.48046C4.72595 4.40906 5.41561 4.93585 6.22647 4.93585C6.55025 4.93585 6.81275 4.67335 6.81275 4.34957C6.81275 4.02579 6.55025 3.7633 6.22647 3.7633C5.85723 3.7633 5.55683 3.46289 5.55683 3.09365C5.65333 0.542997 9.31157 0.542997 9.408 3.09365V5.60553C9.43684 6.38258 10.552 6.382 10.5805 5.60553V3.09369C10.6775 0.542607 14.3352 0.543311 14.4317 3.09373C14.4317 3.46297 14.1313 3.76337 13.7621 3.76337C13.4383 3.76337 13.1758 4.02587 13.1758 4.34965C13.1758 4.67343 13.4383 4.93593 13.7621 4.93593C14.5729 4.93593 15.2626 4.40914 15.5081 3.68001H15.646C16.7078 3.68001 17.5716 4.54383 17.5716 5.60561C17.5716 6.32114 16.9894 6.90324 16.274 6.90324C15.4975 6.93169 15.4971 8.04718 16.274 8.07579H16.9019C19.4536 8.17284 19.4516 11.8307 16.9019 11.9269Z" fill="inherit"/>
<path d="M8.15204 7.53114C7.14352 7.53114 6.30984 8.34611 6.30984 9.37334V11.8852C6.33868 12.6623 7.45382 12.6617 7.48239 11.8852V11.2156H8.82172V11.8852C8.85057 12.6623 9.9657 12.6617 9.99427 11.8852V9.37334C9.99424 8.36674 9.18111 7.53114 8.15204 7.53114ZM8.82168 10.043H7.48235V9.37334C7.51472 8.4865 8.78893 8.48564 8.82168 9.37334V10.043Z" fill="inherit"/>
<path d="M13.1341 8.70369C13.9111 8.67485 13.9106 7.55971 13.1341 7.53114H11.2502C10.4731 7.55999 10.4737 8.67512 11.2502 8.70369H11.6059V11.2989H11.2502C10.4731 11.3278 10.4737 12.4429 11.2502 12.4715H13.1341C13.9111 12.4427 13.9106 11.3275 13.1341 11.2989H12.7784V8.70369H13.1341Z" fill="inherit"/>
</svg>
