<svg viewBox="0 0 20 20" xmlns="http://www.w3.org/2000/svg">
<path d="M18.1589 2.51165H14.6718C13.6664 0.999775 11.9478 0.0012207 10 0.0012207C8.05223 0.0012207 6.33355 0.999775 5.3282 2.51165H1.84113C0.825937 2.51165 0 3.33759 0 4.35278V14.3945C0 15.4097 0.825937 16.2356 1.84113 16.2356H6.90363V18.8293H5.60676C5.28316 18.8293 5.02082 19.0917 5.02082 19.4153C5.02082 19.7389 5.28316 20.0012 5.60676 20.0012H14.3932C14.7168 20.0012 14.9792 19.7389 14.9792 19.4153C14.9792 19.0917 14.7168 18.8293 14.3932 18.8293H13.0964V16.2356H18.1589C19.1741 16.2356 20 15.4097 20 14.3945V4.35278C20 3.33759 19.1741 2.51165 18.1589 2.51165ZM10 1.1731C12.4454 1.1731 14.4349 3.16259 14.4349 5.60798C14.4349 8.05337 12.4454 10.0429 10 10.0429C7.55457 10.0429 5.56512 8.05337 5.56512 5.60798C5.56512 3.16259 7.55457 1.1731 10 1.1731ZM11.9245 18.8293H8.07555V16.2356H11.9245V18.8293ZM18.8281 14.3945C18.8281 14.7635 18.5279 15.0637 18.1589 15.0637H1.84113C1.47211 15.0637 1.17188 14.7635 1.17188 14.3945V4.35278C1.17188 3.98376 1.47211 3.68353 1.84113 3.68353H4.73352C4.5134 4.28399 4.3932 4.93224 4.3932 5.60802C4.3932 8.69962 6.9084 11.2148 9.99996 11.2148C11.3352 11.2148 12.5626 10.7454 13.5266 9.96329L16.4893 12.926C16.718 13.1548 17.0891 13.1548 17.3179 12.926C17.5467 12.6972 17.5467 12.3262 17.3179 12.0974L14.3552 9.13466C15.1373 8.17067 15.6067 6.94321 15.6067 5.60802C15.6067 4.93224 15.4865 4.28399 15.2664 3.68353H18.1588C18.5278 3.68353 18.828 3.98376 18.828 4.35278L18.8281 14.3945Z" fill="inherit"/>
</svg>
