<svg viewBox="0 0 20 20" xmlns="http://www.w3.org/2000/svg">
<path d="M18.0859 0.0227051H1.91415C0.858654 0.0227051 0 0.881359 0 1.93685V14.0099C0 15.0654 0.858654 15.924 1.91415 15.924H6.70886L6.25642 18.8054H5.36704C5.04357 18.8054 4.78132 19.0676 4.78132 19.3911C4.78132 19.7145 5.04357 19.9768 5.36704 19.9768C7.32948 19.9812 12.6798 19.9803 14.633 19.9768C14.9564 19.9768 15.2187 19.7145 15.2187 19.3911C15.2187 19.0676 14.9564 18.8054 14.633 18.8054H13.6634L13.2573 15.924H18.0859C19.1413 15.924 20 15.0654 20 14.0099V1.93685C20 0.881359 19.1413 0.0227051 18.0859 0.0227051ZM18.8286 1.93685V7.38768H17.3978C17.2593 6.67784 16.8185 6.0751 16.2153 5.71895C16.4325 5.40704 16.5603 5.02843 16.5603 4.62039C16.5603 3.55759 15.6957 2.69297 14.633 2.69297C13.5702 2.69297 12.7055 3.55763 12.7055 4.62039C12.7055 5.02847 12.8334 5.40704 13.0506 5.71895C12.4474 6.0751 12.0066 6.6778 11.8681 7.38768H10.5857V1.19413H18.0859C18.4954 1.19413 18.8286 1.52728 18.8286 1.93685ZM14.6774 5.37408H14.5886C14.1924 5.35089 13.877 5.02223 13.877 4.62035C13.877 4.20348 14.2161 3.86435 14.633 3.86435C15.0498 3.86435 15.3889 4.20352 15.3889 4.62035C15.3889 5.02223 15.0735 5.35089 14.6774 5.37408ZM14.3131 6.54551C14.4934 6.54594 14.7296 6.54652 14.9528 6.54551C15.5122 6.54551 15.9915 6.89529 16.1834 7.38764H13.0826C13.2744 6.89529 13.7537 6.54551 14.3131 6.54551ZM1.91415 1.19413H9.41431V7.38764H8.10692C7.96842 6.6778 7.52765 6.07506 6.92444 5.71891C7.14167 5.407 7.26951 5.0284 7.26951 4.62035C7.26951 3.55756 6.40488 2.69293 5.34212 2.69293C4.27937 2.69293 3.4147 3.55759 3.4147 4.62035C3.4147 5.02843 3.54254 5.407 3.75976 5.71891C3.15656 6.07506 2.71579 6.67776 2.57729 7.38764H1.17142V1.93685C1.17142 1.52728 1.50458 1.19413 1.91415 1.19413ZM5.38648 5.37408H5.29769C4.90151 5.35089 4.58609 5.02223 4.58609 4.62035C4.58609 4.20348 4.92525 3.86435 5.34208 3.86435C5.75892 3.86435 6.09804 4.20352 6.09804 4.62035C6.09804 5.02223 5.78262 5.35089 5.38648 5.37408ZM5.02217 6.54551C5.20249 6.54594 5.43873 6.54652 5.66192 6.54551C6.22132 6.54551 6.70059 6.89529 6.89246 7.38764H3.79167C3.98355 6.89529 4.46278 6.54551 5.02217 6.54551ZM1.17142 14.0099V8.55907H9.41431V14.7526H8.10692C7.96842 14.0427 7.52765 13.44 6.92444 13.0839C7.14167 12.7719 7.26951 12.3933 7.26951 11.9852C7.26951 10.9225 6.40488 10.0579 5.34212 10.0579C4.27937 10.0579 3.4147 10.9225 3.4147 11.9852C3.4147 12.3933 3.54254 12.7719 3.75976 13.0839C3.15652 13.44 2.71579 14.0427 2.57729 14.7526H1.91415C1.50458 14.7526 1.17142 14.4194 1.17142 14.0099ZM5.29765 12.739C4.90147 12.7158 4.58605 12.3871 4.58605 11.9852C4.58605 11.5684 4.92521 11.2293 5.34205 11.2293C5.75888 11.2293 6.09801 11.5684 6.09801 11.9852C6.09801 12.3871 5.78258 12.7158 5.38644 12.739H5.29765ZM5.02217 13.9104C5.20249 13.9109 5.43873 13.9115 5.66192 13.9104C6.22132 13.9104 6.70062 14.2603 6.89246 14.7526H3.79167C3.98351 14.2603 4.46278 13.9104 5.02217 13.9104ZM7.44218 18.8054L7.89458 15.924H12.0742L12.4803 18.8054H7.44218ZM13.0825 14.7526C13.2744 14.2603 13.7537 13.9105 14.3131 13.9105C14.4934 13.9109 14.7296 13.9115 14.9528 13.9105C15.5122 13.9105 15.9915 14.2603 16.1834 14.7526H13.0825ZM14.6774 12.739H14.5886C14.1924 12.7158 13.877 12.3871 13.877 11.9852C13.877 11.5684 14.2161 11.2293 14.633 11.2293C15.0498 11.2293 15.3889 11.5684 15.3889 11.9852C15.3889 12.3872 15.0735 12.7159 14.6774 12.739ZM18.0859 14.7526H17.3978C17.2593 14.0427 16.8186 13.44 16.2153 13.0839C16.4325 12.772 16.5604 12.3934 16.5604 11.9853C16.5604 10.9225 15.6958 10.0579 14.633 10.0579C13.5702 10.0579 12.7056 10.9225 12.7056 11.9853C12.7056 12.3934 12.8334 12.7719 13.0506 13.0839C12.4474 13.44 12.0067 14.0427 11.8682 14.7526H10.5858V8.55907H18.8287V14.0099C18.8286 14.4194 18.4954 14.7526 18.0859 14.7526Z" fill="inherit"/>
</svg>
